<?xml version="1.0" encoding="utf-8" standalone="no"?>
<!DOCTYPE svg PUBLIC "-//W3C//DTD SVG 1.1//EN"
  "http://www.w3.org/Graphics/SVG/1.1/DTD/svg11.dtd">
<!-- Created with matplotlib (https://matplotlib.org/) -->
<svg height="291.6pt" version="1.1" viewBox="0 0 736.452 291.6" width="736.452pt" xmlns="http://www.w3.org/2000/svg" xmlns:xlink="http://www.w3.org/1999/xlink">
 <metadata>
  <rdf:RDF xmlns:cc="http://creativecommons.org/ns#" xmlns:dc="http://purl.org/dc/elements/1.1/" xmlns:rdf="http://www.w3.org/1999/02/22-rdf-syntax-ns#">
   <cc:Work>
    <dc:type rdf:resource="http://purl.org/dc/dcmitype/StillImage"/>
    <dc:date>2022-04-30T17:51:11.630848</dc:date>
    <dc:format>image/svg+xml</dc:format>
    <dc:creator>
     <cc:Agent>
      <dc:title>Matplotlib v3.3.4, https://matplotlib.org/</dc:title>
     </cc:Agent>
    </dc:creator>
   </cc:Work>
  </rdf:RDF>
 </metadata>
 <defs>
  <style type="text/css">*{stroke-linecap:butt;stroke-linejoin:round;}</style>
 </defs>
 <g id="figure_1">
  <g id="patch_1">
   <path d="M 0 291.6 
L 736.452 291.6 
L 736.452 0 
L 0 0 
z
" style="fill:#ffffff;"/>
  </g>
  <g id="axes_1">
   <g id="PolyCollection_1">
    <path clip-path="url(#pe91f93a716)" d="M -487.127908 256.168246 
L -476.091083 256.168246 
L -465.054258 256.168246 
L -454.017434 256.168246 
L -442.980609 256.168246 
L -431.943785 256.168246 
L -420.90696 256.168246 
L -409.870135 256.168246 
L -398.833311 256.168246 
L -387.796486 256.168246 
L -376.759662 256.168246 
L -365.722837 256.168246 
L -354.686012 256.168246 
L -343.649188 256.168246 
L -332.612363 256.168246 
L -321.575538 256.168246 
L -310.538714 256.168246 
L -299.501889 256.168246 
L -288.465065 256.168246 
L -277.42824 256.168246 
L -266.391415 256.168246 
L -255.354591 256.168246 
L -244.317766 256.168246 
L -233.280942 256.168246 
L -222.244117 256.168246 
L -211.207292 256.168246 
L -200.170468 256.168246 
L -189.133643 256.168246 
L -178.096818 256.168246 
L -167.059994 256.168246 
L -156.023169 256.168246 
L -144.986345 256.168246 
L -133.94952 256.168246 
L -122.912695 256.168246 
L -111.875871 256.168246 
L -100.839046 256.168246 
L -89.802222 256.168246 
L -78.765397 256.168246 
L -67.728572 256.168246 
L -56.691748 256.168246 
L -45.654923 256.168246 
L -34.618098 256.168246 
L -23.581274 256.168246 
L -12.544449 256.168246 
L -1.507625 256.168246 
L 9.5292 256.168246 
L 20.566025 256.168246 
L 31.602849 256.168246 
L 42.639674 256.168246 
L 53.676498 256.168246 
L 64.713323 256.168246 
L 75.750148 256.168246 
L 86.786972 256.168246 
L 97.823797 256.168246 
L 108.860622 256.168246 
L 119.897446 256.168246 
L 130.934271 256.168246 
L 141.971095 256.168246 
L 153.00792 256.168246 
L 164.044745 256.168246 
L 175.081569 256.168246 
L 186.118394 256.168246 
L 197.155218 256.168246 
L 208.192043 256.168246 
L 219.228868 256.168246 
L 230.265692 256.168246 
L 241.302517 256.168246 
L 252.339342 256.168246 
L 263.376166 256.168246 
L 274.412991 256.168246 
L 285.449815 256.168246 
L 296.48664 256.168246 
L 307.523465 256.168246 
L 318.560289 256.168246 
L 329.597114 256.168246 
L 340.633938 256.168246 
L 351.670763 256.168246 
L 362.707588 256.168246 
L 373.744412 256.168246 
L 384.781237 256.168246 
L 395.818062 256.168246 
L 406.854886 256.168246 
L 417.891711 256.168246 
L 428.928535 256.168246 
L 439.96536 256.168246 
L 451.002185 256.168246 
L 462.039009 256.168246 
L 473.075834 256.168246 
L 484.112658 256.168246 
L 495.149483 256.168246 
L 506.186308 256.168246 
L 517.223132 256.168246 
L 528.259957 256.168246 
L 539.296782 256.168246 
L 550.333606 256.168246 
L 561.370431 256.168246 
L 572.407255 256.168246 
L 583.44408 256.168246 
L 594.480905 256.168246 
L 605.517729 256.168246 
L 616.554554 256.168246 
L 627.591378 256.168246 
L 638.628203 256.168246 
L 649.665028 256.168246 
L 660.701852 256.168246 
L 671.738677 256.168246 
L 682.775502 256.168246 
L 693.812326 256.168246 
L 704.849151 256.168246 
L 715.885975 256.168246 
L 726.9228 256.168246 
L 737.959625 256.168246 
L 748.996449 256.168246 
L 760.033274 256.168246 
L 771.070098 256.168246 
L 782.106923 256.168246 
L 793.143748 256.168246 
L 804.180572 256.168246 
L 815.217397 256.168246 
L 826.254222 256.168246 
L 837.291046 256.168246 
L 848.327871 256.168246 
L 859.364695 256.168246 
L 870.40152 256.168246 
L 881.438345 256.168246 
L 892.475169 256.168246 
L 903.511994 256.168246 
L 914.548818 256.168246 
L 925.585643 256.168246 
L 936.622468 256.168246 
L 947.659292 256.168246 
L 958.696117 256.168246 
L 969.732942 256.168246 
L 980.769766 256.168246 
L 991.806591 256.168246 
L 1002.843415 256.168246 
L 1013.88024 256.168246 
L 1024.917065 256.168246 
L 1035.953889 256.168246 
L 1046.990714 256.168246 
L 1058.027538 256.168246 
L 1069.064363 256.168246 
L 1080.101188 256.168246 
L 1091.138012 256.168246 
L 1102.174837 256.168246 
L 1113.211662 256.168246 
L 1124.248486 256.168246 
L 1135.285311 256.168246 
L 1146.322135 256.168246 
L 1157.35896 256.168246 
L 1168.395785 256.168246 
L 1179.432609 256.168246 
L 1190.469434 256.168246 
L 1201.506258 256.168246 
L 1212.543083 256.168246 
L 1223.579908 256.168246 
L 1234.616732 256.168246 
L 1245.653557 256.168246 
L 1256.690382 256.168246 
L 1267.727206 256.168246 
L 1278.764031 256.168246 
L 1289.800855 256.168246 
L 1300.83768 256.168246 
L 1311.874505 256.168246 
L 1322.911329 256.168246 
L 1333.948154 256.168246 
L 1344.984978 256.168246 
L 1356.021803 256.168246 
L 1367.058628 256.168246 
L 1378.095452 256.168246 
L 1389.132277 256.168246 
L 1400.169102 256.168246 
L 1411.205926 256.168246 
L 1422.242751 256.168246 
L 1433.279575 256.168246 
L 1444.3164 256.168246 
L 1455.353225 256.168246 
L 1466.390049 256.168246 
L 1477.426874 256.168246 
L 1488.463698 256.168246 
L 1499.500523 256.168246 
L 1510.537348 256.168246 
L 1521.574172 256.168246 
L 1532.610997 256.168246 
L 1543.647822 256.168246 
L 1554.684646 256.168246 
L 1565.721471 256.168246 
L 1576.758295 256.168246 
L 1587.79512 256.168246 
L 1598.831945 256.168246 
L 1609.868769 256.168246 
L 1620.905594 256.168246 
L 1631.942418 256.168246 
L 1642.979243 256.168246 
L 1654.016068 256.168246 
L 1665.052892 256.168246 
L 1676.089717 256.168246 
L 1687.126542 256.168246 
L 1698.163366 256.168246 
L 1709.200191 256.168246 
L 1720.237015 256.168246 
L 1731.27384 256.168246 
L 1742.310665 256.168246 
L 1753.347489 256.168246 
L 1764.384314 256.168246 
L 1775.421138 256.168246 
L 1786.457963 256.168246 
L 1797.494788 256.168246 
L 1808.531612 256.168246 
L 1819.568437 256.168246 
L 1819.568437 145.8 
L 1808.531612 145.8 
L 1797.494788 145.8 
L 1786.457963 145.8 
L 1775.421138 145.8 
L 1764.384314 145.8 
L 1753.347489 145.8 
L 1742.310665 145.8 
L 1731.27384 145.8 
L 1720.237015 145.8 
L 1709.200191 145.8 
L 1698.163366 145.8 
L 1687.126542 145.8 
L 1676.089717 145.8 
L 1665.052892 145.8 
L 1654.016068 145.8 
L 1642.979243 145.8 
L 1631.942418 145.8 
L 1620.905594 145.8 
L 1609.868769 145.8 
L 1598.831945 145.8 
L 1587.79512 145.8 
L 1576.758295 145.8 
L 1565.721471 145.8 
L 1554.684646 145.8 
L 1543.647822 145.8 
L 1532.610997 145.8 
L 1521.574172 145.8 
L 1510.537348 145.8 
L 1499.500523 145.8 
L 1488.463698 145.8 
L 1477.426874 145.8 
L 1466.390049 145.8 
L 1455.353225 145.8 
L 1444.3164 145.8 
L 1433.279575 145.8 
L 1422.242751 145.8 
L 1411.205926 145.8 
L 1400.169102 145.8 
L 1389.132277 145.8 
L 1378.095452 145.8 
L 1367.058628 145.8 
L 1356.021803 145.8 
L 1344.984978 145.8 
L 1333.948154 145.8 
L 1322.911329 145.8 
L 1311.874505 145.8 
L 1300.83768 145.8 
L 1289.800855 145.8 
L 1278.764031 145.8 
L 1267.727206 145.8 
L 1256.690382 145.8 
L 1245.653557 145.8 
L 1234.616732 145.8 
L 1223.579908 145.8 
L 1212.543083 145.8 
L 1201.506258 145.8 
L 1190.469434 145.8 
L 1179.432609 145.8 
L 1168.395785 145.8 
L 1157.35896 145.8 
L 1146.322135 145.8 
L 1135.285311 145.8 
L 1124.248486 145.8 
L 1113.211662 145.8 
L 1102.174837 145.8 
L 1091.138012 145.8 
L 1080.101188 145.8 
L 1069.064363 145.8 
L 1058.027538 145.8 
L 1046.990714 145.8 
L 1035.953889 145.8 
L 1024.917065 145.8 
L 1013.88024 145.8 
L 1002.843415 145.8 
L 991.806591 145.8 
L 980.769766 145.8 
L 969.732942 145.8 
L 958.696117 145.8 
L 947.659292 145.8 
L 936.622468 145.8 
L 925.585643 145.8 
L 914.548818 145.8 
L 903.511994 145.8 
L 892.475169 145.8 
L 881.438345 145.8 
L 870.40152 145.8 
L 859.364695 145.8 
L 848.327871 145.8 
L 837.291046 145.8 
L 826.254222 145.8 
L 815.217397 145.8 
L 804.180572 145.8 
L 793.143748 145.8 
L 782.106923 145.8 
L 771.070098 145.8 
L 760.033274 145.8 
L 748.996449 145.8 
L 737.959625 145.8 
L 726.9228 145.8 
L 715.885975 145.8 
L 704.849151 145.8 
L 693.812326 145.8 
L 682.775502 145.8 
L 671.738677 145.8 
L 660.701852 145.8 
L 649.665028 145.8 
L 638.628203 145.8 
L 627.591378 145.8 
L 616.554554 145.8 
L 605.517729 145.8 
L 594.480905 145.8 
L 583.44408 145.8 
L 572.407255 145.8 
L 561.370431 145.8 
L 550.333606 145.8 
L 539.296782 145.8 
L 528.259957 145.8 
L 517.223132 145.8 
L 506.186308 145.8 
L 495.149483 145.8 
L 484.112658 145.8 
L 473.075834 145.8 
L 462.039009 145.8 
L 451.002185 145.8 
L 439.96536 145.8 
L 428.928535 145.8 
L 417.891711 145.8 
L 406.854886 145.8 
L 395.818062 145.8 
L 384.781237 145.8 
L 373.744412 145.8 
L 362.707588 145.8 
L 351.670763 145.8 
L 340.633938 145.8 
L 329.597114 145.8 
L 318.560289 145.8 
L 307.523465 145.8 
L 296.48664 145.8 
L 285.449815 145.8 
L 274.412991 145.8 
L 263.376166 145.8 
L 252.339342 145.8 
L 241.302517 145.8 
L 230.265692 145.8 
L 219.228868 145.8 
L 208.192043 145.8 
L 197.155218 145.8 
L 186.118394 145.8 
L 175.081569 145.8 
L 164.044745 145.8 
L 153.00792 145.8 
L 141.971095 145.8 
L 130.934271 145.8 
L 119.897446 145.8 
L 108.860622 145.8 
L 97.823797 145.8 
L 86.786972 145.8 
L 75.750148 145.8 
L 64.713323 145.8 
L 53.676498 145.8 
L 42.639674 145.8 
L 31.602849 145.8 
L 20.566025 145.8 
L 9.5292 145.8 
L -1.507625 145.8 
L -12.544449 145.8 
L -23.581274 145.8 
L -34.618098 145.8 
L -45.654923 145.8 
L -56.691748 145.8 
L -67.728572 145.8 
L -78.765397 145.8 
L -89.802222 145.8 
L -100.839046 145.8 
L -111.875871 145.8 
L -122.912695 145.8 
L -133.94952 145.8 
L -144.986345 145.8 
L -156.023169 145.8 
L -167.059994 145.8 
L -178.096818 145.8 
L -189.133643 145.8 
L -200.170468 145.8 
L -211.207292 145.8 
L -222.244117 145.8 
L -233.280942 145.8 
L -244.317766 145.8 
L -255.354591 145.8 
L -266.391415 145.8 
L -277.42824 145.8 
L -288.465065 145.8 
L -299.501889 145.8 
L -310.538714 145.8 
L -321.575538 145.8 
L -332.612363 145.8 
L -343.649188 145.8 
L -354.686012 145.8 
L -365.722837 145.8 
L -376.759662 145.8 
L -387.796486 145.8 
L -398.833311 145.8 
L -409.870135 145.8 
L -420.90696 145.8 
L -431.943785 145.8 
L -442.980609 145.8 
L -454.017434 145.8 
L -465.054258 145.8 
L -476.091083 145.8 
L -487.127908 145.8 
z
" style="fill:#c7c7c7;"/>
    <path clip-path="url(#pe91f93a716)" d="M -487.127908 145.8 
L -476.091083 145.8 
L -465.054258 145.8 
L -454.017434 145.8 
L -442.980609 145.8 
L -431.943785 145.8 
L -420.90696 145.8 
L -409.870135 145.8 
L -398.833311 145.8 
L -387.796486 145.8 
L -376.759662 145.8 
L -365.722837 145.8 
L -354.686012 145.8 
L -343.649188 145.8 
L -332.612363 145.8 
L -321.575538 145.8 
L -310.538714 145.8 
L -299.501889 145.8 
L -288.465065 145.8 
L -277.42824 145.8 
L -266.391415 145.8 
L -255.354591 145.8 
L -244.317766 145.8 
L -233.280942 145.8 
L -222.244117 145.8 
L -211.207292 145.8 
L -200.170468 145.8 
L -189.133643 145.8 
L -178.096818 145.8 
L -167.059994 145.8 
L -156.023169 145.8 
L -144.986345 145.8 
L -133.94952 145.8 
L -122.912695 145.8 
L -111.875871 145.8 
L -100.839046 145.8 
L -89.802222 145.8 
L -78.765397 145.8 
L -67.728572 145.8 
L -56.691748 145.8 
L -45.654923 145.8 
L -34.618098 145.8 
L -23.581274 145.8 
L -12.544449 145.8 
L -1.507625 145.8 
L 9.5292 145.8 
L 20.566025 145.8 
L 31.602849 145.8 
L 42.639674 145.8 
L 53.676498 145.8 
L 64.713323 145.8 
L 75.750148 145.8 
L 86.786972 145.8 
L 97.823797 145.8 
L 108.860622 145.8 
L 119.897446 145.8 
L 130.934271 145.8 
L 141.971095 145.8 
L 153.00792 145.8 
L 164.044745 145.8 
L 175.081569 145.8 
L 186.118394 145.8 
L 197.155218 145.8 
L 208.192043 145.8 
L 219.228868 145.8 
L 230.265692 145.8 
L 241.302517 145.8 
L 252.339342 145.8 
L 263.376166 145.8 
L 274.412991 145.8 
L 285.449815 145.8 
L 296.48664 145.8 
L 307.523465 145.8 
L 318.560289 145.8 
L 329.597114 145.8 
L 340.633938 145.8 
L 351.670763 145.8 
L 362.707588 145.8 
L 373.744412 145.8 
L 384.781237 145.8 
L 395.818062 145.8 
L 406.854886 145.8 
L 417.891711 145.8 
L 428.928535 145.8 
L 439.96536 145.8 
L 451.002185 145.8 
L 462.039009 145.8 
L 473.075834 145.8 
L 484.112658 145.8 
L 495.149483 145.8 
L 506.186308 145.8 
L 517.223132 145.8 
L 528.259957 145.8 
L 539.296782 145.8 
L 550.333606 145.8 
L 561.370431 145.8 
L 572.407255 145.8 
L 583.44408 145.8 
L 594.480905 145.8 
L 605.517729 145.8 
L 616.554554 145.8 
L 627.591378 145.8 
L 638.628203 145.8 
L 649.665028 145.8 
L 660.701852 145.8 
L 671.738677 145.8 
L 682.775502 145.8 
L 693.812326 145.8 
L 704.849151 145.8 
L 715.885975 145.8 
L 726.9228 145.8 
L 737.959625 145.8 
L 748.996449 145.8 
L 760.033274 145.8 
L 771.070098 145.8 
L 782.106923 145.8 
L 793.143748 145.8 
L 804.180572 145.8 
L 815.217397 145.8 
L 826.254222 145.8 
L 837.291046 145.8 
L 848.327871 145.8 
L 859.364695 145.8 
L 870.40152 145.8 
L 881.438345 145.8 
L 892.475169 145.8 
L 903.511994 145.8 
L 914.548818 145.8 
L 925.585643 145.8 
L 936.622468 145.8 
L 947.659292 145.8 
L 958.696117 145.8 
L 969.732942 145.8 
L 980.769766 145.8 
L 991.806591 145.8 
L 1002.843415 145.8 
L 1013.88024 145.8 
L 1024.917065 145.8 
L 1035.953889 145.8 
L 1046.990714 145.8 
L 1058.027538 145.8 
L 1069.064363 145.8 
L 1080.101188 145.8 
L 1091.138012 145.8 
L 1102.174837 145.8 
L 1113.211662 145.8 
L 1124.248486 145.8 
L 1135.285311 145.8 
L 1146.322135 145.8 
L 1157.35896 145.8 
L 1168.395785 145.8 
L 1179.432609 145.8 
L 1190.469434 145.8 
L 1201.506258 145.8 
L 1212.543083 145.8 
L 1223.579908 145.8 
L 1234.616732 145.8 
L 1245.653557 145.8 
L 1256.690382 145.8 
L 1267.727206 145.8 
L 1278.764031 145.8 
L 1289.800855 145.8 
L 1300.83768 145.8 
L 1311.874505 145.8 
L 1322.911329 145.8 
L 1333.948154 145.8 
L 1344.984978 145.8 
L 1356.021803 145.8 
L 1367.058628 145.8 
L 1378.095452 145.8 
L 1389.132277 145.8 
L 1400.169102 145.8 
L 1411.205926 145.8 
L 1422.242751 145.8 
L 1433.279575 145.8 
L 1444.3164 145.8 
L 1455.353225 145.8 
L 1466.390049 145.8 
L 1477.426874 145.8 
L 1488.463698 145.8 
L 1499.500523 145.8 
L 1510.537348 145.8 
L 1521.574172 145.8 
L 1532.610997 145.8 
L 1543.647822 145.8 
L 1554.684646 145.8 
L 1565.721471 145.8 
L 1576.758295 145.8 
L 1587.79512 145.8 
L 1598.831945 145.8 
L 1609.868769 145.8 
L 1620.905594 145.8 
L 1631.942418 145.8 
L 1642.979243 145.8 
L 1654.016068 145.8 
L 1665.052892 145.8 
L 1676.089717 145.8 
L 1687.126542 145.8 
L 1698.163366 145.8 
L 1709.200191 145.8 
L 1720.237015 145.8 
L 1731.27384 145.8 
L 1742.310665 145.8 
L 1753.347489 145.8 
L 1764.384314 145.8 
L 1775.421138 145.8 
L 1786.457963 145.8 
L 1797.494788 145.8 
L 1808.531612 145.8 
L 1819.568437 145.8 
L 1819.568437 35.431754 
L 1808.531612 35.431754 
L 1797.494788 35.431754 
L 1786.457963 35.431754 
L 1775.421138 35.431754 
L 1764.384314 35.431754 
L 1753.347489 35.431754 
L 1742.310665 35.431754 
L 1731.27384 35.431754 
L 1720.237015 35.431754 
L 1709.200191 35.431754 
L 1698.163366 35.431754 
L 1687.126542 35.431754 
L 1676.089717 35.431754 
L 1665.052892 35.431754 
L 1654.016068 35.431754 
L 1642.979243 35.431754 
L 1631.942418 35.431754 
L 1620.905594 35.431754 
L 1609.868769 35.431754 
L 1598.831945 35.431754 
L 1587.79512 35.431754 
L 1576.758295 35.431754 
L 1565.721471 35.431754 
L 1554.684646 35.431754 
L 1543.647822 35.431754 
L 1532.610997 35.431754 
L 1521.574172 35.431754 
L 1510.537348 35.431754 
L 1499.500523 35.431754 
L 1488.463698 35.431754 
L 1477.426874 35.431754 
L 1466.390049 35.431754 
L 1455.353225 35.431754 
L 1444.3164 35.431754 
L 1433.279575 35.431754 
L 1422.242751 35.431754 
L 1411.205926 35.431754 
L 1400.169102 35.431754 
L 1389.132277 35.431754 
L 1378.095452 35.431754 
L 1367.058628 35.431754 
L 1356.021803 35.431754 
L 1344.984978 35.431754 
L 1333.948154 35.431754 
L 1322.911329 35.431754 
L 1311.874505 35.431754 
L 1300.83768 35.431754 
L 1289.800855 35.431754 
L 1278.764031 35.431754 
L 1267.727206 35.431754 
L 1256.690382 35.431754 
L 1245.653557 35.431754 
L 1234.616732 35.431754 
L 1223.579908 35.431754 
L 1212.543083 35.431754 
L 1201.506258 35.431754 
L 1190.469434 35.431754 
L 1179.432609 35.431754 
L 1168.395785 35.431754 
L 1157.35896 35.431754 
L 1146.322135 35.431754 
L 1135.285311 35.431754 
L 1124.248486 35.431754 
L 1113.211662 35.431754 
L 1102.174837 35.431754 
L 1091.138012 35.431754 
L 1080.101188 35.431754 
L 1069.064363 35.431754 
L 1058.027538 35.431754 
L 1046.990714 35.431754 
L 1035.953889 35.431754 
L 1024.917065 35.431754 
L 1013.88024 35.431754 
L 1002.843415 35.431754 
L 991.806591 35.431754 
L 980.769766 35.431754 
L 969.732942 35.431754 
L 958.696117 35.431754 
L 947.659292 35.431754 
L 936.622468 35.431754 
L 925.585643 35.431754 
L 914.548818 35.431754 
L 903.511994 35.431754 
L 892.475169 35.431754 
L 881.438345 35.431754 
L 870.40152 35.431754 
L 859.364695 35.431754 
L 848.327871 35.431754 
L 837.291046 35.431754 
L 826.254222 35.431754 
L 815.217397 35.431754 
L 804.180572 35.431754 
L 793.143748 35.431754 
L 782.106923 35.431754 
L 771.070098 35.431754 
L 760.033274 35.431754 
L 748.996449 35.431754 
L 737.959625 35.431754 
L 726.9228 35.431754 
L 715.885975 35.431754 
L 704.849151 35.431754 
L 693.812326 35.431754 
L 682.775502 35.431754 
L 671.738677 35.431754 
L 660.701852 35.431754 
L 649.665028 35.431754 
L 638.628203 35.431754 
L 627.591378 35.431754 
L 616.554554 35.431754 
L 605.517729 35.431754 
L 594.480905 35.431754 
L 583.44408 35.431754 
L 572.407255 35.431754 
L 561.370431 35.431754 
L 550.333606 35.431754 
L 539.296782 35.431754 
L 528.259957 35.431754 
L 517.223132 35.431754 
L 506.186308 35.431754 
L 495.149483 35.431754 
L 484.112658 35.431754 
L 473.075834 35.431754 
L 462.039009 35.431754 
L 451.002185 35.431754 
L 439.96536 35.431754 
L 428.928535 35.431754 
L 417.891711 35.431754 
L 406.854886 35.431754 
L 395.818062 35.431754 
L 384.781237 35.431754 
L 373.744412 35.431754 
L 362.707588 35.431754 
L 351.670763 35.431754 
L 340.633938 35.431754 
L 329.597114 35.431754 
L 318.560289 35.431754 
L 307.523465 35.431754 
L 296.48664 35.431754 
L 285.449815 35.431754 
L 274.412991 35.431754 
L 263.376166 35.431754 
L 252.339342 35.431754 
L 241.302517 35.431754 
L 230.265692 35.431754 
L 219.228868 35.431754 
L 208.192043 35.431754 
L 197.155218 35.431754 
L 186.118394 35.431754 
L 175.081569 35.431754 
L 164.044745 35.431754 
L 153.00792 35.431754 
L 141.971095 35.431754 
L 130.934271 35.431754 
L 119.897446 35.431754 
L 108.860622 35.431754 
L 97.823797 35.431754 
L 86.786972 35.431754 
L 75.750148 35.431754 
L 64.713323 35.431754 
L 53.676498 35.431754 
L 42.639674 35.431754 
L 31.602849 35.431754 
L 20.566025 35.431754 
L 9.5292 35.431754 
L -1.507625 35.431754 
L -12.544449 35.431754 
L -23.581274 35.431754 
L -34.618098 35.431754 
L -45.654923 35.431754 
L -56.691748 35.431754 
L -67.728572 35.431754 
L -78.765397 35.431754 
L -89.802222 35.431754 
L -100.839046 35.431754 
L -111.875871 35.431754 
L -122.912695 35.431754 
L -133.94952 35.431754 
L -144.986345 35.431754 
L -156.023169 35.431754 
L -167.059994 35.431754 
L -178.096818 35.431754 
L -189.133643 35.431754 
L -200.170468 35.431754 
L -211.207292 35.431754 
L -222.244117 35.431754 
L -233.280942 35.431754 
L -244.317766 35.431754 
L -255.354591 35.431754 
L -266.391415 35.431754 
L -277.42824 35.431754 
L -288.465065 35.431754 
L -299.501889 35.431754 
L -310.538714 35.431754 
L -321.575538 35.431754 
L -332.612363 35.431754 
L -343.649188 35.431754 
L -354.686012 35.431754 
L -365.722837 35.431754 
L -376.759662 35.431754 
L -387.796486 35.431754 
L -398.833311 35.431754 
L -409.870135 35.431754 
L -420.90696 35.431754 
L -431.943785 35.431754 
L -442.980609 35.431754 
L -454.017434 35.431754 
L -465.054258 35.431754 
L -476.091083 35.431754 
L -487.127908 35.431754 
z
" style="fill:#c7c7c7;"/>
   </g>
   <g id="PathCollection_1"/>
   <g id="PathCollection_2">
    <path clip-path="url(#pe91f93a716)" d="M -487.127908 209.261742 
L -470.572671 200.984123 
L -487.127908 192.706505 
z
" style="fill:#dddddd;stroke:#dddddd;stroke-width:0.5;"/>
    <path clip-path="url(#pe91f93a716)" d="M -487.127908 98.893495 
L -470.572671 90.615877 
L -487.127908 82.338258 
z
" style="fill:#dddddd;stroke:#dddddd;stroke-width:0.5;"/>
   </g>
   <g id="PathCollection_3">
    <path clip-path="url(#pe91f93a716)" d="M -1 256.168246 
L 737.452 256.168246 
L 737.452 256.168246 
" style="fill:none;stroke:#555555;stroke-width:0.5;"/>
    <path clip-path="url(#pe91f93a716)" d="M -1 145.8 
L 737.452 145.8 
L 737.452 145.8 
" style="fill:none;stroke:#555555;stroke-width:0.5;"/>
   </g>
   <g id="PathCollection_4">
    <path clip-path="url(#pe91f93a716)" d="M -1 145.8 
L 737.452 145.8 
L 737.452 145.8 
" style="fill:none;stroke:#555555;stroke-width:0.5;"/>
    <path clip-path="url(#pe91f93a716)" d="M -1 35.431754 
L 737.452 35.431754 
L 737.452 35.431754 
" style="fill:none;stroke:#555555;stroke-width:0.5;"/>
   </g>
   <g id="PatchCollection_1">
    <path clip-path="url(#pe91f93a716)" d="M 285.449815 156.174615 
C 288.376815 156.174615 291.184327 155.011706 293.254029 152.942004 
C 295.323731 150.872302 296.48664 148.064791 296.48664 145.137791 
C 296.48664 142.21079 295.323731 139.403279 293.254029 137.333577 
C 291.184327 135.263875 288.376815 134.100966 285.449815 134.100966 
C 282.522815 134.100966 279.715303 135.263875 277.645602 137.333577 
C 275.5759 139.403279 274.412991 142.21079 274.412991 145.137791 
C 274.412991 148.064791 275.5759 150.872302 277.645602 152.942004 
C 279.715303 155.011706 282.522815 156.174615 285.449815 156.174615 
z
" style="fill:#008000;stroke:#008000;"/>
    <path clip-path="url(#pe91f93a716)" d="M 374.830216 143.349944 
L 335.370459 157.386083 
L 335.193882 148.558389 
L 285.538104 149.551637 
L 285.361527 140.723944 
L 335.017305 139.730696 
L 334.840727 130.903002 
z
" style="fill:#008000;stroke:#008000;"/>
    <path clip-path="url(#pe91f93a716)" d="M 616.554554 154.62946 
L 616.554554 136.97054 
L 671.738677 136.97054 
L 671.738677 154.62946 
z
" style="fill:#f1b514;stroke:#302404;stroke-width:0.5;"/>
    <path clip-path="url(#pe91f93a716)" d="M 410.43297 152.994677 
L 409.096355 138.183511 
L 428.882235 136.397958 
L 430.218851 151.209124 
z
" style="fill:#d95558;stroke:#831d20;stroke-width:0.5;"/>
    <path clip-path="url(#pe91f93a716)" d="M 520.092707 152.131994 
L 520.092707 137.260641 
L 539.958991 137.260641 
L 539.958991 152.131994 
z
" style="fill:#d95558;stroke:#831d20;stroke-width:0.5;"/>
    <path clip-path="url(#pe91f93a716)" d="M 575.27683 106.881013 
L 575.27683 92.00966 
L 595.143114 92.00966 
L 595.143114 106.881013 
z
" style="fill:#d95558;stroke:#831d20;stroke-width:0.5;"/>
    <path clip-path="url(#pe91f93a716)" d="M 285.449815 150.656203 
C 286.913315 150.656203 288.317071 150.074748 289.351922 149.039897 
C 290.386773 148.005046 290.968228 146.601291 290.968228 145.137791 
C 290.968228 143.67429 290.386773 142.270535 289.351922 141.235684 
C 288.317071 140.200833 286.913315 139.619378 285.449815 139.619378 
C 283.986315 139.619378 282.582559 140.200833 281.547709 141.235684 
C 280.512858 142.270535 279.931403 143.67429 279.931403 145.137791 
C 279.931403 146.601291 280.512858 148.005046 281.547709 149.039897 
C 282.582559 150.074748 283.986315 150.656203 285.449815 150.656203 
z
" style="fill:#1d7eea;stroke:#00478f;stroke-width:0.5;"/>
   </g>
   <g id="line2d_1">
    <path clip-path="url(#pe91f93a716)" d="M 285.449815 145.137791 
" style="fill:none;stroke:#ffd700;stroke-linecap:square;stroke-width:2;"/>
   </g>
   <g id="line2d_2">
    <path clip-path="url(#pe91f93a716)" d="M 285.449815 145.137791 
L 295.382958 144.939128 
L 305.3161 144.740465 
L 315.249242 144.541802 
L 325.182384 144.343139 
L 335.115526 144.144476 
" style="fill:none;stroke:#ffd700;stroke-linecap:square;stroke-width:2;"/>
   </g>
   <g id="line2d_3">
    <path clip-path="url(#pe91f93a716)" d="M 335.115526 144.144476 
L 345.048668 143.945813 
L 354.98181 143.747151 
L 364.914953 143.548488 
L 374.848095 143.349825 
L 384.781237 143.151162 
" style="fill:none;stroke:#ffd700;stroke-linecap:square;stroke-width:2;"/>
   </g>
   <g id="line2d_4">
    <path clip-path="url(#pe91f93a716)" d="M 384.781237 143.151162 
L 394.714379 142.952499 
L 404.647521 142.753836 
L 414.580663 142.555174 
L 424.513806 142.356511 
L 434.446948 142.157848 
" style="fill:none;stroke:#ffd700;stroke-dasharray:7.4,3.2;stroke-dashoffset:0;stroke-width:2;"/>
   </g>
   <g id="line2d_5">
    <path clip-path="url(#pe91f93a716)" d="M 384.781237 143.151162 
L 394.714379 142.952499 
L 404.645832 142.68449 
L 414.569299 142.208317 
L 424.469703 141.38499 
L 434.317217 140.075915 
" style="fill:none;stroke:#ffd700;stroke-dasharray:7.4,3.2;stroke-dashoffset:0;stroke-width:2;"/>
   </g>
   <g id="line2d_6">
    <path clip-path="url(#pe91f93a716)" d="M 384.781237 143.151162 
L 394.714379 142.952499 
L 404.648606 142.823195 
L 414.583177 142.902207 
L 424.508583 143.329018 
L 434.400565 144.243303 
" style="fill:none;stroke:#ffd700;stroke-dasharray:7.4,3.2;stroke-dashoffset:0;stroke-width:2;"/>
   </g>
   <g id="line2d_7">
    <path clip-path="url(#pe91f93a716)" d="M 335.115526 144.144476 
L 345.048668 143.945813 
L 354.980121 143.677804 
L 364.903588 143.201631 
L 374.803992 142.378304 
L 384.651506 141.06923 
" style="fill:none;stroke:#ffd700;stroke-linecap:square;stroke-width:2;"/>
   </g>
   <g id="line2d_8">
    <path clip-path="url(#pe91f93a716)" d="M 384.651506 141.06923 
L 394.393557 139.138196 
L 403.993941 136.592534 
L 413.457957 133.577771 
L 422.810896 130.23337 
L 432.091828 126.693537 
" style="fill:none;stroke:#ffd700;stroke-linecap:square;stroke-width:2;"/>
   </g>
   <g id="line2d_9">
    <path clip-path="url(#pe91f93a716)" d="M 432.091828 126.693537 
L 441.347875 123.08897 
L 450.603921 119.484402 
L 459.859968 115.879834 
L 469.116015 112.275267 
L 478.372062 108.670699 
" style="fill:none;stroke:#ffd700;stroke-linecap:square;stroke-width:2;"/>
   </g>
   <g id="line2d_10">
    <path clip-path="url(#pe91f93a716)" d="M 478.372062 108.670699 
L 487.628109 105.066131 
L 496.884156 101.461564 
L 506.140203 97.856996 
L 515.39625 94.252428 
L 524.652297 90.647861 
" style="fill:none;stroke:#ffd700;stroke-linecap:square;stroke-width:2;"/>
   </g>
   <g id="line2d_11">
    <path clip-path="url(#pe91f93a716)" d="M 524.652297 90.647861 
L 533.908344 87.043293 
L 543.164391 83.438725 
L 552.420438 79.834158 
L 561.676485 76.22959 
L 570.932532 72.625022 
" style="fill:none;stroke:#ffd700;stroke-linecap:square;stroke-width:2;"/>
   </g>
   <g id="line2d_12">
    <path clip-path="url(#pe91f93a716)" d="M 570.932532 72.625022 
L 580.188579 69.020455 
L 589.444625 65.415887 
L 598.700672 61.811319 
L 607.956719 58.206752 
L 617.212766 54.602184 
" style="fill:none;stroke:#ffd700;stroke-linecap:square;stroke-width:2;"/>
   </g>
   <g id="line2d_13">
    <path clip-path="url(#pe91f93a716)" d="M 570.932532 72.625022 
L 580.188579 69.020455 
L 589.419177 65.351372 
L 598.570648 61.48963 
L 607.58101 57.309945 
L 616.374575 52.69248 
" style="fill:none;stroke:#ffd700;stroke-linecap:square;stroke-width:2;"/>
   </g>
   <g id="line2d_14">
    <path clip-path="url(#pe91f93a716)" d="M 570.932532 72.625022 
L 580.188579 69.020455 
L 589.46951 65.480622 
L 598.822449 62.136221 
L 608.286465 59.121458 
L 617.886849 56.575796 
" style="fill:none;stroke:#ffd700;stroke-linecap:square;stroke-width:2;"/>
   </g>
   <g id="line2d_15">
    <path clip-path="url(#pe91f93a716)" d="M 524.652297 90.647861 
L 533.908344 87.043293 
L 543.138942 83.37421 
L 552.290414 79.512468 
L 561.300776 75.332783 
L 570.09434 70.715319 
" style="fill:none;stroke:#ffd700;stroke-linecap:square;stroke-width:2;"/>
   </g>
   <g id="line2d_16">
    <path clip-path="url(#pe91f93a716)" d="M 570.09434 70.715319 
L 578.576593 65.549291 
L 586.714293 59.854944 
L 594.562505 53.76709 
L 602.192973 47.407966 
L 609.688569 40.890134 
" style="fill:none;stroke:#ffd700;stroke-linecap:square;stroke-width:2;"/>
   </g>
   <g id="line2d_17">
    <path clip-path="url(#pe91f93a716)" d="M 570.09434 70.715319 
L 578.576593 65.549291 
L 586.672476 59.796628 
L 594.341491 53.486107 
L 601.545273 46.649297 
L 608.247786 39.320397 
" style="fill:none;stroke:#ffd700;stroke-linecap:square;stroke-width:2;"/>
   </g>
   <g id="line2d_18">
    <path clip-path="url(#pe91f93a716)" d="M 524.652297 90.647861 
L 533.908344 87.043293 
L 543.189276 83.50346 
L 552.542215 80.159059 
L 562.006231 77.144296 
L 571.606614 74.598635 
" style="fill:none;stroke:#ffd700;stroke-linecap:square;stroke-width:2;"/>
   </g>
   <g id="line2d_19">
    <path clip-path="url(#pe91f93a716)" d="M 571.606614 74.598635 
L 581.348665 72.667601 
L 591.194207 71.358762 
L 601.092629 70.535573 
L 611.014111 70.059469 
L 620.943577 69.791487 
" style="fill:none;stroke:#ffd700;stroke-linecap:square;stroke-width:2;"/>
   </g>
   <g id="line2d_20">
    <path clip-path="url(#pe91f93a716)" d="M 571.606614 74.598635 
L 581.348665 72.667601 
L 591.202842 71.43 
L 601.11985 70.892024 
L 611.050078 71.056364 
L 620.943854 71.922197 
" style="fill:none;stroke:#ffd700;stroke-linecap:square;stroke-width:2;"/>
   </g>
   <g id="line2d_21">
    <path clip-path="url(#pe91f93a716)" d="M 478.372062 108.670699 
L 487.628109 105.066131 
L 496.858707 101.397049 
L 506.010179 97.535306 
L 515.020541 93.355621 
L 523.814106 88.738157 
" style="fill:none;stroke:#ffd700;stroke-linecap:square;stroke-width:2;"/>
   </g>
   <g id="line2d_22">
    <path clip-path="url(#pe91f93a716)" d="M 523.814106 88.738157 
L 532.296358 83.572129 
L 540.434059 77.877782 
L 548.28227 71.789928 
L 555.912738 65.430804 
L 563.408335 58.912972 
" style="fill:none;stroke:#ffd700;stroke-linecap:square;stroke-width:2;"/>
   </g>
   <g id="line2d_23">
    <path clip-path="url(#pe91f93a716)" d="M 563.408335 58.912972 
L 570.858287 52.342924 
L 578.308239 45.772877 
L 585.758191 39.202829 
L 593.208143 32.632781 
L 600.658095 26.062734 
" style="fill:none;stroke:#ffd700;stroke-dasharray:7.4,3.2;stroke-dashoffset:0;stroke-width:2;"/>
   </g>
   <g id="line2d_24">
    <path clip-path="url(#pe91f93a716)" d="M 563.408335 58.912972 
L 570.858287 52.342924 
L 578.26214 45.721062 
L 585.525393 38.945544 
L 592.546729 31.920074 
L 599.213841 24.558187 
" style="fill:none;stroke:#ffd700;stroke-dasharray:7.4,3.2;stroke-dashoffset:0;stroke-width:2;"/>
   </g>
   <g id="line2d_25">
    <path clip-path="url(#pe91f93a716)" d="M 563.408335 58.912972 
L 570.858287 52.342924 
L 578.353883 45.825092 
L 585.984351 39.465968 
L 593.832562 33.378114 
L 601.970263 27.683767 
" style="fill:none;stroke:#ffd700;stroke-dasharray:7.4,3.2;stroke-dashoffset:0;stroke-width:2;"/>
   </g>
   <g id="line2d_26">
    <path clip-path="url(#pe91f93a716)" d="M 523.814106 88.738157 
L 532.296358 83.572129 
L 540.392241 77.819466 
L 548.061256 71.508945 
L 555.265038 64.672135 
L 561.967552 57.343236 
" style="fill:none;stroke:#ffd700;stroke-linecap:square;stroke-width:2;"/>
   </g>
   <g id="line2d_27">
    <path clip-path="url(#pe91f93a716)" d="M 561.967552 57.343236 
L 568.135268 49.558909 
L 573.796761 41.398318 
L 579.050382 32.968854 
L 584.005775 24.360337 
L 588.779673 15.649654 
" style="fill:none;stroke:#ffd700;stroke-dasharray:7.4,3.2;stroke-dashoffset:0;stroke-width:2;"/>
   </g>
   <g id="line2d_28">
    <path clip-path="url(#pe91f93a716)" d="M 561.967552 57.343236 
L 568.135268 49.558909 
L 573.737332 41.358097 
L 578.745722 32.781822 
L 583.135382 23.872987 
L 586.884355 14.676158 
" style="fill:none;stroke:#ffd700;stroke-dasharray:7.4,3.2;stroke-dashoffset:0;stroke-width:2;"/>
   </g>
   <g id="line2d_29">
    <path clip-path="url(#pe91f93a716)" d="M 478.372062 108.670699 
L 487.628109 105.066131 
L 496.909041 101.526298 
L 506.26198 98.181897 
L 515.725996 95.167135 
L 525.326379 92.621473 
" style="fill:none;stroke:#ffd700;stroke-linecap:square;stroke-width:2;"/>
   </g>
   <g id="line2d_30">
    <path clip-path="url(#pe91f93a716)" d="M 525.326379 92.621473 
L 535.068431 90.690439 
L 544.913973 89.381601 
L 554.812394 88.558411 
L 564.733877 88.082307 
L 574.663343 87.814325 
" style="fill:none;stroke:#ffd700;stroke-linecap:square;stroke-width:2;"/>
   </g>
   <g id="line2d_31">
    <path clip-path="url(#pe91f93a716)" d="M 574.663343 87.814325 
L 584.596485 87.615662 
L 594.529627 87.416999 
L 604.462769 87.218336 
L 614.395911 87.019674 
L 624.329053 86.821011 
" style="fill:none;stroke:#ffd700;stroke-linecap:square;stroke-width:2;"/>
   </g>
   <g id="line2d_32">
    <path clip-path="url(#pe91f93a716)" d="M 574.663343 87.814325 
L 584.596485 87.615662 
L 594.527937 87.347653 
L 604.451405 86.87148 
L 614.351808 86.048153 
L 624.199323 84.739078 
" style="fill:none;stroke:#ffd700;stroke-linecap:square;stroke-width:2;"/>
   </g>
   <g id="line2d_33">
    <path clip-path="url(#pe91f93a716)" d="M 574.663343 87.814325 
L 584.596485 87.615662 
L 594.530711 87.486358 
L 604.465283 87.56537 
L 614.390689 87.992181 
L 624.28267 88.906466 
" style="fill:none;stroke:#ffd700;stroke-linecap:square;stroke-width:2;"/>
   </g>
   <g id="line2d_34">
    <path clip-path="url(#pe91f93a716)" d="M 525.326379 92.621473 
L 535.068431 90.690439 
L 544.922607 89.452839 
L 554.839615 88.914863 
L 564.769844 89.079202 
L 574.663619 89.945036 
" style="fill:none;stroke:#ffd700;stroke-linecap:square;stroke-width:2;"/>
   </g>
   <g id="line2d_35">
    <path clip-path="url(#pe91f93a716)" d="M 574.663619 89.945036 
L 584.471448 91.508031 
L 594.160842 93.690551 
L 603.731621 96.346971 
L 613.20381 99.336978 
L 622.611397 102.524988 
" style="fill:none;stroke:#ffd700;stroke-dasharray:7.4,3.2;stroke-dashoffset:0;stroke-width:2;"/>
   </g>
   <g id="line2d_36">
    <path clip-path="url(#pe91f93a716)" d="M 574.663619 89.945036 
L 584.471448 91.508031 
L 594.144266 93.76037 
L 603.633688 96.690785 
L 612.892242 100.284617 
L 621.873614 104.523888 
" style="fill:none;stroke:#ffd700;stroke-dasharray:7.4,3.2;stroke-dashoffset:0;stroke-width:2;"/>
   </g>
   <g id="line2d_37">
    <path clip-path="url(#pe91f93a716)" d="M 432.091828 126.693537 
L 441.347875 123.08897 
L 450.578473 119.419887 
L 459.729944 115.558145 
L 468.740306 111.37846 
L 477.533871 106.760995 
" style="fill:none;stroke:#ffd700;stroke-linecap:square;stroke-width:2;"/>
   </g>
   <g id="line2d_38">
    <path clip-path="url(#pe91f93a716)" d="M 477.533871 106.760995 
L 486.016124 101.594967 
L 494.153824 95.900621 
L 502.002036 89.812766 
L 509.632503 83.453643 
L 517.1281 76.93581 
" style="fill:none;stroke:#ffd700;stroke-linecap:square;stroke-width:2;"/>
   </g>
   <g id="line2d_39">
    <path clip-path="url(#pe91f93a716)" d="M 517.1281 76.93581 
L 524.578052 70.365763 
L 532.028004 63.795715 
L 539.477956 57.225667 
L 546.927908 50.65562 
L 554.377861 44.085572 
" style="fill:none;stroke:#ffd700;stroke-linecap:square;stroke-width:2;"/>
   </g>
   <g id="line2d_40">
    <path clip-path="url(#pe91f93a716)" d="M 554.377861 44.085572 
L 561.827813 37.515525 
L 569.277765 30.945477 
L 576.727717 24.375429 
L 584.177669 17.805382 
L 591.627621 11.235334 
" style="fill:none;stroke:#ffd700;stroke-dasharray:7.4,3.2;stroke-dashoffset:0;stroke-width:2;"/>
   </g>
   <g id="line2d_41">
    <path clip-path="url(#pe91f93a716)" d="M 554.377861 44.085572 
L 561.827813 37.515525 
L 569.231666 30.893662 
L 576.494919 24.118144 
L 583.516256 17.092674 
L 590.183367 9.730787 
" style="fill:none;stroke:#ffd700;stroke-dasharray:7.4,3.2;stroke-dashoffset:0;stroke-width:2;"/>
   </g>
   <g id="line2d_42">
    <path clip-path="url(#pe91f93a716)" d="M 554.377861 44.085572 
L 561.827813 37.515525 
L 569.323409 30.997692 
L 576.953877 24.638569 
L 584.802089 18.550714 
L 592.939789 12.856368 
" style="fill:none;stroke:#ffd700;stroke-dasharray:7.4,3.2;stroke-dashoffset:0;stroke-width:2;"/>
   </g>
   <g id="line2d_43">
    <path clip-path="url(#pe91f93a716)" d="M 517.1281 76.93581 
L 524.578052 70.365763 
L 531.981906 63.7439 
L 539.245158 56.968382 
L 546.266495 49.942912 
L 552.933606 42.581025 
" style="fill:none;stroke:#ffd700;stroke-linecap:square;stroke-width:2;"/>
   </g>
   <g id="line2d_44">
    <path clip-path="url(#pe91f93a716)" d="M 552.933606 42.581025 
L 559.119623 34.811234 
L 564.800304 26.663988 
L 570.073747 18.246911 
L 575.049384 9.650079 
L 579.843767 0.950654 
" style="fill:none;stroke:#ffd700;stroke-dasharray:7.4,3.2;stroke-dashoffset:0;stroke-width:2;"/>
   </g>
   <g id="line2d_45">
    <path clip-path="url(#pe91f93a716)" d="M 552.933606 42.581025 
L 559.119623 34.811234 
L 564.740971 26.623627 
L 569.769528 18.059162 
L 574.180141 9.160682 
L 577.950745 -0.027299 
" style="fill:none;stroke:#ffd700;stroke-dasharray:7.4,3.2;stroke-dashoffset:0;stroke-width:2;"/>
   </g>
   <g id="line2d_46">
    <path clip-path="url(#pe91f93a716)" d="M 517.1281 76.93581 
L 524.578052 70.365763 
L 532.073649 63.84793 
L 539.704116 57.488807 
L 547.552328 51.400952 
L 555.690028 45.706606 
" style="fill:none;stroke:#ffd700;stroke-linecap:square;stroke-width:2;"/>
   </g>
   <g id="line2d_47">
    <path clip-path="url(#pe91f93a716)" d="M 555.690028 45.706606 
L 564.172281 40.540578 
L 572.965845 35.923113 
L 581.976208 31.743428 
L 591.127679 27.881686 
L 600.358277 24.212603 
" style="fill:none;stroke:#ffd700;stroke-dasharray:7.4,3.2;stroke-dashoffset:0;stroke-width:2;"/>
   </g>
   <g id="line2d_48">
    <path clip-path="url(#pe91f93a716)" d="M 555.690028 45.706606 
L 564.172281 40.540578 
L 572.998471 35.987028 
L 582.124447 32.068734 
L 591.504555 28.805298 
L 601.091874 26.213044 
" style="fill:none;stroke:#ffd700;stroke-dasharray:7.4,3.2;stroke-dashoffset:0;stroke-width:2;"/>
   </g>
   <g id="line2d_49">
    <path clip-path="url(#pe91f93a716)" d="M 477.533871 106.760995 
L 486.016124 101.594967 
L 494.112007 95.842304 
L 501.781021 89.531784 
L 508.984804 82.694973 
L 515.687317 75.366074 
" style="fill:none;stroke:#ffd700;stroke-linecap:square;stroke-width:2;"/>
   </g>
   <g id="line2d_50">
    <path clip-path="url(#pe91f93a716)" d="M 515.687317 75.366074 
L 521.855033 67.581748 
L 527.516526 59.421156 
L 532.770147 50.991693 
L 537.725541 42.383176 
L 542.499439 33.672492 
" style="fill:none;stroke:#ffd700;stroke-dasharray:7.4,3.2;stroke-dashoffset:0;stroke-width:2;"/>
   </g>
   <g id="line2d_51">
    <path clip-path="url(#pe91f93a716)" d="M 515.687317 75.366074 
L 521.855033 67.581748 
L 527.457098 59.380935 
L 532.465487 50.80466 
L 536.855148 41.895826 
L 540.60412 32.698997 
" style="fill:none;stroke:#ffd700;stroke-dasharray:7.4,3.2;stroke-dashoffset:0;stroke-width:2;"/>
   </g>
   <g id="line2d_52">
    <path clip-path="url(#pe91f93a716)" d="M 432.091828 126.693537 
L 441.347875 123.08897 
L 450.628806 119.549137 
L 459.981745 116.204736 
L 469.445761 113.189973 
L 479.046145 110.644312 
" style="fill:none;stroke:#ffd700;stroke-linecap:square;stroke-width:2;"/>
   </g>
   <g id="line2d_53">
    <path clip-path="url(#pe91f93a716)" d="M 479.046145 110.644312 
L 488.788196 108.713278 
L 498.633738 107.404439 
L 508.53216 106.58125 
L 518.453642 106.105145 
L 528.383108 105.837163 
" style="fill:none;stroke:#ffd700;stroke-linecap:square;stroke-width:2;"/>
   </g>
   <g id="line2d_54">
    <path clip-path="url(#pe91f93a716)" d="M 528.383108 105.837163 
L 538.31625 105.638501 
L 548.249392 105.439838 
L 558.182534 105.241175 
L 568.115677 105.042512 
L 578.048819 104.843849 
" style="fill:none;stroke:#ffd700;stroke-dasharray:7.4,3.2;stroke-dashoffset:0;stroke-width:2;"/>
   </g>
   <g id="line2d_55">
    <path clip-path="url(#pe91f93a716)" d="M 528.383108 105.837163 
L 538.31625 105.638501 
L 548.247703 105.370491 
L 558.17117 104.894318 
L 568.071574 104.070991 
L 577.919088 102.761917 
" style="fill:none;stroke:#ffd700;stroke-dasharray:7.4,3.2;stroke-dashoffset:0;stroke-width:2;"/>
   </g>
   <g id="line2d_56">
    <path clip-path="url(#pe91f93a716)" d="M 528.383108 105.837163 
L 538.31625 105.638501 
L 548.250477 105.509196 
L 558.185048 105.588208 
L 568.110454 106.01502 
L 578.002436 106.929304 
" style="fill:none;stroke:#ffd700;stroke-linecap:square;stroke-width:2;"/>
   </g>
   <g id="line2d_57">
    <path clip-path="url(#pe91f93a716)" d="M 578.002436 106.929304 
L 587.813915 108.469215 
L 597.508419 110.628927 
L 607.085423 113.262819 
L 616.564621 116.230527 
L 625.979684 119.39639 
" style="fill:none;stroke:#ffd700;stroke-linecap:square;stroke-width:2;"/>
   </g>
   <g id="line2d_58">
    <path clip-path="url(#pe91f93a716)" d="M 625.979684 119.39639 
L 635.372472 122.627931 
L 644.765259 125.859473 
L 654.158046 129.091014 
L 663.550834 132.322555 
L 672.943621 135.554096 
" style="fill:none;stroke:#ffd700;stroke-linecap:square;stroke-width:2;"/>
   </g>
   <g id="line2d_59">
    <path clip-path="url(#pe91f93a716)" d="M 625.979684 119.39639 
L 635.372472 122.627931 
L 644.787535 125.793795 
L 654.266733 128.761503 
L 663.843737 131.395394 
L 673.538241 133.555107 
" style="fill:none;stroke:#ffd700;stroke-linecap:square;stroke-width:2;"/>
   </g>
   <g id="line2d_60">
    <path clip-path="url(#pe91f93a716)" d="M 625.979684 119.39639 
L 635.372472 122.627931 
L 644.74241 125.924954 
L 654.04099 129.417646 
L 663.211288 133.233669 
L 672.182468 137.495791 
" style="fill:none;stroke:#ffd700;stroke-linecap:square;stroke-width:2;"/>
   </g>
   <g id="line2d_61">
    <path clip-path="url(#pe91f93a716)" d="M 578.002436 106.929304 
L 587.813915 108.469215 
L 597.492007 110.698785 
L 606.988299 113.606862 
L 616.255284 117.178897 
L 625.246607 121.397021 
" style="fill:none;stroke:#ffd700;stroke-linecap:square;stroke-width:2;"/>
   </g>
   <g id="line2d_62">
    <path clip-path="url(#pe91f93a716)" d="M 625.246607 121.397021 
L 633.917288 126.240135 
L 642.263545 131.624161 
L 650.33533 137.412311 
L 658.199735 143.479734 
L 665.935338 149.71083 
" style="fill:none;stroke:#ffd700;stroke-linecap:square;stroke-width:2;"/>
   </g>
   <g id="line2d_63">
    <path clip-path="url(#pe91f93a716)" d="M 625.246607 121.397021 
L 633.917288 126.240135 
L 642.263545 131.624161 
L 650.33533 137.412311 
" style="fill:none;stroke:#008000;stroke-linecap:square;stroke-width:3;"/>
   </g>
   <g id="line2d_64">
    <path clip-path="url(#pe91f93a716)" d="M 285.449815 145.137791 
" style="fill:none;stroke:#008000;stroke-linecap:square;stroke-width:3;"/>
   </g>
   <g id="line2d_65">
    <path clip-path="url(#pe91f93a716)" d="M 285.449815 145.137791 
L 295.382958 144.939128 
L 305.3161 144.740465 
L 315.249242 144.541802 
L 325.182384 144.343139 
L 335.115526 144.144476 
" style="fill:none;stroke:#008000;stroke-linecap:square;stroke-width:3;"/>
   </g>
   <g id="line2d_66">
    <path clip-path="url(#pe91f93a716)" d="M 335.115526 144.144476 
L 345.048668 143.945813 
L 354.980121 143.677804 
L 364.903588 143.201631 
L 374.803992 142.378304 
L 384.651506 141.06923 
" style="fill:none;stroke:#008000;stroke-linecap:square;stroke-width:3;"/>
   </g>
   <g id="line2d_67">
    <path clip-path="url(#pe91f93a716)" d="M 384.651506 141.06923 
L 394.393557 139.138196 
L 403.993941 136.592534 
L 413.457957 133.577771 
L 422.810896 130.23337 
L 432.091828 126.693537 
" style="fill:none;stroke:#008000;stroke-linecap:square;stroke-width:3;"/>
   </g>
   <g id="line2d_68">
    <path clip-path="url(#pe91f93a716)" d="M 432.091828 126.693537 
L 441.347875 123.08897 
L 450.628806 119.549137 
L 459.981745 116.204736 
L 469.445761 113.189973 
L 479.046145 110.644312 
" style="fill:none;stroke:#008000;stroke-linecap:square;stroke-width:3;"/>
   </g>
   <g id="line2d_69">
    <path clip-path="url(#pe91f93a716)" d="M 479.046145 110.644312 
L 488.788196 108.713278 
L 498.633738 107.404439 
L 508.53216 106.58125 
L 518.453642 106.105145 
L 528.383108 105.837163 
" style="fill:none;stroke:#008000;stroke-linecap:square;stroke-width:3;"/>
   </g>
   <g id="line2d_70">
    <path clip-path="url(#pe91f93a716)" d="M 528.383108 105.837163 
L 538.31625 105.638501 
L 548.250477 105.509196 
L 558.185048 105.588208 
L 568.110454 106.01502 
L 578.002436 106.929304 
" style="fill:none;stroke:#008000;stroke-linecap:square;stroke-width:3;"/>
   </g>
   <g id="line2d_71">
    <path clip-path="url(#pe91f93a716)" d="M 578.002436 106.929304 
L 587.813915 108.469215 
L 597.492007 110.698785 
L 606.988299 113.606862 
L 616.255284 117.178897 
L 625.246607 121.397021 
" style="fill:none;stroke:#008000;stroke-linecap:square;stroke-width:3;"/>
   </g>
   <g id="line2d_72">
    <path clip-path="url(#pe91f93a716)" d="M 625.246607 121.397021 
L 633.917288 126.240135 
L 642.263545 131.624161 
L 650.33533 137.412311 
" style="fill:none;stroke:#008000;stroke-linecap:square;stroke-width:3;"/>
   </g>
   <g id="line2d_73">
    <path clip-path="url(#pe91f93a716)" d="M 285.449815 145.137791 
" style="fill:none;stroke:#ffd700;stroke-linecap:square;stroke-width:1.5;"/>
    <defs>
     <path d="M 0 4 
C 1.060812 4 2.078319 3.578535 2.828427 2.828427 
C 3.578535 2.078319 4 1.060812 4 0 
C 4 -1.060812 3.578535 -2.078319 2.828427 -2.828427 
C 2.078319 -3.578535 1.060812 -4 0 -4 
C -1.060812 -4 -2.078319 -3.578535 -2.828427 -2.828427 
C -3.578535 -2.078319 -4 -1.060812 -4 0 
C -4 1.060812 -3.578535 2.078319 -2.828427 2.828427 
C -2.078319 3.578535 -1.060812 4 0 4 
z
" id="m7b1b288664" style="stroke:#ffd700;"/>
    </defs>
    <g clip-path="url(#pe91f93a716)">
     <use style="fill:#ffd700;stroke:#ffd700;" x="285.449815" xlink:href="#m7b1b288664" y="145.137791"/>
    </g>
   </g>
   <g id="line2d_74">
    <path clip-path="url(#pe91f93a716)" d="M 335.115526 144.144476 
" style="fill:none;stroke:#ffd700;stroke-linecap:square;stroke-width:1.5;"/>
    <g clip-path="url(#pe91f93a716)">
     <use style="fill:#ffd700;stroke:#ffd700;" x="335.115526" xlink:href="#m7b1b288664" y="144.144476"/>
    </g>
   </g>
   <g id="line2d_75">
    <path clip-path="url(#pe91f93a716)" d="M 384.781237 143.151162 
" style="fill:none;stroke:#ffd700;stroke-linecap:square;stroke-width:1.5;"/>
    <g clip-path="url(#pe91f93a716)">
     <use style="fill:#ffd700;stroke:#ffd700;" x="384.781237" xlink:href="#m7b1b288664" y="143.151162"/>
    </g>
   </g>
   <g id="line2d_76">
    <path clip-path="url(#pe91f93a716)" d="M 434.446948 142.157848 
" style="fill:none;stroke:#ffd700;stroke-linecap:square;stroke-width:1.5;"/>
    <g clip-path="url(#pe91f93a716)">
     <use style="fill:#ffd700;stroke:#ffd700;" x="434.446948" xlink:href="#m7b1b288664" y="142.157848"/>
    </g>
   </g>
   <g id="line2d_77">
    <path clip-path="url(#pe91f93a716)" d="M 434.317217 140.075915 
" style="fill:none;stroke:#ffd700;stroke-linecap:square;stroke-width:1.5;"/>
    <g clip-path="url(#pe91f93a716)">
     <use style="fill:#ffd700;stroke:#ffd700;" x="434.317217" xlink:href="#m7b1b288664" y="140.075915"/>
    </g>
   </g>
   <g id="line2d_78">
    <path clip-path="url(#pe91f93a716)" d="M 434.400565 144.243303 
" style="fill:none;stroke:#ffd700;stroke-linecap:square;stroke-width:1.5;"/>
    <g clip-path="url(#pe91f93a716)">
     <use style="fill:#ffd700;stroke:#ffd700;" x="434.400565" xlink:href="#m7b1b288664" y="144.243303"/>
    </g>
   </g>
   <g id="line2d_79">
    <path clip-path="url(#pe91f93a716)" d="M 384.651506 141.06923 
" style="fill:none;stroke:#ffd700;stroke-linecap:square;stroke-width:1.5;"/>
    <g clip-path="url(#pe91f93a716)">
     <use style="fill:#ffd700;stroke:#ffd700;" x="384.651506" xlink:href="#m7b1b288664" y="141.06923"/>
    </g>
   </g>
   <g id="line2d_80">
    <path clip-path="url(#pe91f93a716)" d="M 432.091828 126.693537 
" style="fill:none;stroke:#ffd700;stroke-linecap:square;stroke-width:1.5;"/>
    <g clip-path="url(#pe91f93a716)">
     <use style="fill:#ffd700;stroke:#ffd700;" x="432.091828" xlink:href="#m7b1b288664" y="126.693537"/>
    </g>
   </g>
   <g id="line2d_81">
    <path clip-path="url(#pe91f93a716)" d="M 478.372062 108.670699 
" style="fill:none;stroke:#ffd700;stroke-linecap:square;stroke-width:1.5;"/>
    <g clip-path="url(#pe91f93a716)">
     <use style="fill:#ffd700;stroke:#ffd700;" x="478.372062" xlink:href="#m7b1b288664" y="108.670699"/>
    </g>
   </g>
   <g id="line2d_82">
    <path clip-path="url(#pe91f93a716)" d="M 524.652297 90.647861 
" style="fill:none;stroke:#ffd700;stroke-linecap:square;stroke-width:1.5;"/>
    <g clip-path="url(#pe91f93a716)">
     <use style="fill:#ffd700;stroke:#ffd700;" x="524.652297" xlink:href="#m7b1b288664" y="90.647861"/>
    </g>
   </g>
   <g id="line2d_83">
    <path clip-path="url(#pe91f93a716)" d="M 570.932532 72.625022 
" style="fill:none;stroke:#ffd700;stroke-linecap:square;stroke-width:1.5;"/>
    <g clip-path="url(#pe91f93a716)">
     <use style="fill:#ffd700;stroke:#ffd700;" x="570.932532" xlink:href="#m7b1b288664" y="72.625022"/>
    </g>
   </g>
   <g id="line2d_84">
    <path clip-path="url(#pe91f93a716)" d="M 617.212766 54.602184 
" style="fill:none;stroke:#ffd700;stroke-linecap:square;stroke-width:1.5;"/>
    <g clip-path="url(#pe91f93a716)">
     <use style="fill:#ffd700;stroke:#ffd700;" x="617.212766" xlink:href="#m7b1b288664" y="54.602184"/>
    </g>
   </g>
   <g id="line2d_85">
    <path clip-path="url(#pe91f93a716)" d="M 616.374575 52.69248 
" style="fill:none;stroke:#ffd700;stroke-linecap:square;stroke-width:1.5;"/>
    <g clip-path="url(#pe91f93a716)">
     <use style="fill:#ffd700;stroke:#ffd700;" x="616.374575" xlink:href="#m7b1b288664" y="52.69248"/>
    </g>
   </g>
   <g id="line2d_86">
    <path clip-path="url(#pe91f93a716)" d="M 617.886849 56.575796 
" style="fill:none;stroke:#ffd700;stroke-linecap:square;stroke-width:1.5;"/>
    <g clip-path="url(#pe91f93a716)">
     <use style="fill:#ffd700;stroke:#ffd700;" x="617.886849" xlink:href="#m7b1b288664" y="56.575796"/>
    </g>
   </g>
   <g id="line2d_87">
    <path clip-path="url(#pe91f93a716)" d="M 570.09434 70.715319 
" style="fill:none;stroke:#ffd700;stroke-linecap:square;stroke-width:1.5;"/>
    <g clip-path="url(#pe91f93a716)">
     <use style="fill:#ffd700;stroke:#ffd700;" x="570.09434" xlink:href="#m7b1b288664" y="70.715319"/>
    </g>
   </g>
   <g id="line2d_88">
    <path clip-path="url(#pe91f93a716)" d="M 609.688569 40.890134 
" style="fill:none;stroke:#ffd700;stroke-linecap:square;stroke-width:1.5;"/>
    <g clip-path="url(#pe91f93a716)">
     <use style="fill:#ffd700;stroke:#ffd700;" x="609.688569" xlink:href="#m7b1b288664" y="40.890134"/>
    </g>
   </g>
   <g id="line2d_89">
    <path clip-path="url(#pe91f93a716)" d="M 608.247786 39.320397 
" style="fill:none;stroke:#ffd700;stroke-linecap:square;stroke-width:1.5;"/>
    <g clip-path="url(#pe91f93a716)">
     <use style="fill:#ffd700;stroke:#ffd700;" x="608.247786" xlink:href="#m7b1b288664" y="39.320397"/>
    </g>
   </g>
   <g id="line2d_90">
    <path clip-path="url(#pe91f93a716)" d="M 571.606614 74.598635 
" style="fill:none;stroke:#ffd700;stroke-linecap:square;stroke-width:1.5;"/>
    <g clip-path="url(#pe91f93a716)">
     <use style="fill:#ffd700;stroke:#ffd700;" x="571.606614" xlink:href="#m7b1b288664" y="74.598635"/>
    </g>
   </g>
   <g id="line2d_91">
    <path clip-path="url(#pe91f93a716)" d="M 620.943577 69.791487 
" style="fill:none;stroke:#ffd700;stroke-linecap:square;stroke-width:1.5;"/>
    <g clip-path="url(#pe91f93a716)">
     <use style="fill:#ffd700;stroke:#ffd700;" x="620.943577" xlink:href="#m7b1b288664" y="69.791487"/>
    </g>
   </g>
   <g id="line2d_92">
    <path clip-path="url(#pe91f93a716)" d="M 620.943854 71.922197 
" style="fill:none;stroke:#ffd700;stroke-linecap:square;stroke-width:1.5;"/>
    <g clip-path="url(#pe91f93a716)">
     <use style="fill:#ffd700;stroke:#ffd700;" x="620.943854" xlink:href="#m7b1b288664" y="71.922197"/>
    </g>
   </g>
   <g id="line2d_93">
    <path clip-path="url(#pe91f93a716)" d="M 523.814106 88.738157 
" style="fill:none;stroke:#ffd700;stroke-linecap:square;stroke-width:1.5;"/>
    <g clip-path="url(#pe91f93a716)">
     <use style="fill:#ffd700;stroke:#ffd700;" x="523.814106" xlink:href="#m7b1b288664" y="88.738157"/>
    </g>
   </g>
   <g id="line2d_94">
    <path clip-path="url(#pe91f93a716)" d="M 563.408335 58.912972 
" style="fill:none;stroke:#ffd700;stroke-linecap:square;stroke-width:1.5;"/>
    <g clip-path="url(#pe91f93a716)">
     <use style="fill:#ffd700;stroke:#ffd700;" x="563.408335" xlink:href="#m7b1b288664" y="58.912972"/>
    </g>
   </g>
   <g id="line2d_95">
    <path clip-path="url(#pe91f93a716)" d="M 600.658095 26.062734 
" style="fill:none;stroke:#ffd700;stroke-linecap:square;stroke-width:1.5;"/>
    <g clip-path="url(#pe91f93a716)">
     <use style="fill:#ffd700;stroke:#ffd700;" x="600.658095" xlink:href="#m7b1b288664" y="26.062734"/>
    </g>
   </g>
   <g id="line2d_96">
    <path clip-path="url(#pe91f93a716)" d="M 599.213841 24.558187 
" style="fill:none;stroke:#ffd700;stroke-linecap:square;stroke-width:1.5;"/>
    <g clip-path="url(#pe91f93a716)">
     <use style="fill:#ffd700;stroke:#ffd700;" x="599.213841" xlink:href="#m7b1b288664" y="24.558187"/>
    </g>
   </g>
   <g id="line2d_97">
    <path clip-path="url(#pe91f93a716)" d="M 601.970263 27.683767 
" style="fill:none;stroke:#ffd700;stroke-linecap:square;stroke-width:1.5;"/>
    <g clip-path="url(#pe91f93a716)">
     <use style="fill:#ffd700;stroke:#ffd700;" x="601.970263" xlink:href="#m7b1b288664" y="27.683767"/>
    </g>
   </g>
   <g id="line2d_98">
    <path clip-path="url(#pe91f93a716)" d="M 561.967552 57.343236 
" style="fill:none;stroke:#ffd700;stroke-linecap:square;stroke-width:1.5;"/>
    <g clip-path="url(#pe91f93a716)">
     <use style="fill:#ffd700;stroke:#ffd700;" x="561.967552" xlink:href="#m7b1b288664" y="57.343236"/>
    </g>
   </g>
   <g id="line2d_99">
    <path clip-path="url(#pe91f93a716)" d="M 588.779673 15.649654 
" style="fill:none;stroke:#ffd700;stroke-linecap:square;stroke-width:1.5;"/>
    <g clip-path="url(#pe91f93a716)">
     <use style="fill:#ffd700;stroke:#ffd700;" x="588.779673" xlink:href="#m7b1b288664" y="15.649654"/>
    </g>
   </g>
   <g id="line2d_100">
    <path clip-path="url(#pe91f93a716)" d="M 586.884355 14.676158 
" style="fill:none;stroke:#ffd700;stroke-linecap:square;stroke-width:1.5;"/>
    <g clip-path="url(#pe91f93a716)">
     <use style="fill:#ffd700;stroke:#ffd700;" x="586.884355" xlink:href="#m7b1b288664" y="14.676158"/>
    </g>
   </g>
   <g id="line2d_101">
    <path clip-path="url(#pe91f93a716)" d="M 525.326379 92.621473 
" style="fill:none;stroke:#ffd700;stroke-linecap:square;stroke-width:1.5;"/>
    <g clip-path="url(#pe91f93a716)">
     <use style="fill:#ffd700;stroke:#ffd700;" x="525.326379" xlink:href="#m7b1b288664" y="92.621473"/>
    </g>
   </g>
   <g id="line2d_102">
    <path clip-path="url(#pe91f93a716)" d="M 574.663343 87.814325 
" style="fill:none;stroke:#ffd700;stroke-linecap:square;stroke-width:1.5;"/>
    <g clip-path="url(#pe91f93a716)">
     <use style="fill:#ffd700;stroke:#ffd700;" x="574.663343" xlink:href="#m7b1b288664" y="87.814325"/>
    </g>
   </g>
   <g id="line2d_103">
    <path clip-path="url(#pe91f93a716)" d="M 624.329053 86.821011 
" style="fill:none;stroke:#ffd700;stroke-linecap:square;stroke-width:1.5;"/>
    <g clip-path="url(#pe91f93a716)">
     <use style="fill:#ffd700;stroke:#ffd700;" x="624.329053" xlink:href="#m7b1b288664" y="86.821011"/>
    </g>
   </g>
   <g id="line2d_104">
    <path clip-path="url(#pe91f93a716)" d="M 624.199323 84.739078 
" style="fill:none;stroke:#ffd700;stroke-linecap:square;stroke-width:1.5;"/>
    <g clip-path="url(#pe91f93a716)">
     <use style="fill:#ffd700;stroke:#ffd700;" x="624.199323" xlink:href="#m7b1b288664" y="84.739078"/>
    </g>
   </g>
   <g id="line2d_105">
    <path clip-path="url(#pe91f93a716)" d="M 624.28267 88.906466 
" style="fill:none;stroke:#ffd700;stroke-linecap:square;stroke-width:1.5;"/>
    <g clip-path="url(#pe91f93a716)">
     <use style="fill:#ffd700;stroke:#ffd700;" x="624.28267" xlink:href="#m7b1b288664" y="88.906466"/>
    </g>
   </g>
   <g id="line2d_106">
    <path clip-path="url(#pe91f93a716)" d="M 574.663619 89.945036 
" style="fill:none;stroke:#ffd700;stroke-linecap:square;stroke-width:1.5;"/>
    <g clip-path="url(#pe91f93a716)">
     <use style="fill:#ffd700;stroke:#ffd700;" x="574.663619" xlink:href="#m7b1b288664" y="89.945036"/>
    </g>
   </g>
   <g id="line2d_107">
    <path clip-path="url(#pe91f93a716)" d="M 622.611397 102.524988 
" style="fill:none;stroke:#ffd700;stroke-linecap:square;stroke-width:1.5;"/>
    <g clip-path="url(#pe91f93a716)">
     <use style="fill:#ffd700;stroke:#ffd700;" x="622.611397" xlink:href="#m7b1b288664" y="102.524988"/>
    </g>
   </g>
   <g id="line2d_108">
    <path clip-path="url(#pe91f93a716)" d="M 621.873614 104.523888 
" style="fill:none;stroke:#ffd700;stroke-linecap:square;stroke-width:1.5;"/>
    <g clip-path="url(#pe91f93a716)">
     <use style="fill:#ffd700;stroke:#ffd700;" x="621.873614" xlink:href="#m7b1b288664" y="104.523888"/>
    </g>
   </g>
   <g id="line2d_109">
    <path clip-path="url(#pe91f93a716)" d="M 477.533871 106.760995 
" style="fill:none;stroke:#ffd700;stroke-linecap:square;stroke-width:1.5;"/>
    <g clip-path="url(#pe91f93a716)">
     <use style="fill:#ffd700;stroke:#ffd700;" x="477.533871" xlink:href="#m7b1b288664" y="106.760995"/>
    </g>
   </g>
   <g id="line2d_110">
    <path clip-path="url(#pe91f93a716)" d="M 517.1281 76.93581 
" style="fill:none;stroke:#ffd700;stroke-linecap:square;stroke-width:1.5;"/>
    <g clip-path="url(#pe91f93a716)">
     <use style="fill:#ffd700;stroke:#ffd700;" x="517.1281" xlink:href="#m7b1b288664" y="76.93581"/>
    </g>
   </g>
   <g id="line2d_111">
    <path clip-path="url(#pe91f93a716)" d="M 554.377861 44.085572 
" style="fill:none;stroke:#ffd700;stroke-linecap:square;stroke-width:1.5;"/>
    <g clip-path="url(#pe91f93a716)">
     <use style="fill:#ffd700;stroke:#ffd700;" x="554.377861" xlink:href="#m7b1b288664" y="44.085572"/>
    </g>
   </g>
   <g id="line2d_112">
    <path clip-path="url(#pe91f93a716)" d="M 591.627621 11.235334 
" style="fill:none;stroke:#ffd700;stroke-linecap:square;stroke-width:1.5;"/>
    <g clip-path="url(#pe91f93a716)">
     <use style="fill:#ffd700;stroke:#ffd700;" x="591.627621" xlink:href="#m7b1b288664" y="11.235334"/>
    </g>
   </g>
   <g id="line2d_113">
    <path clip-path="url(#pe91f93a716)" d="M 590.183367 9.730787 
" style="fill:none;stroke:#ffd700;stroke-linecap:square;stroke-width:1.5;"/>
    <g clip-path="url(#pe91f93a716)">
     <use style="fill:#ffd700;stroke:#ffd700;" x="590.183367" xlink:href="#m7b1b288664" y="9.730787"/>
    </g>
   </g>
   <g id="line2d_114">
    <path clip-path="url(#pe91f93a716)" d="M 592.939789 12.856368 
" style="fill:none;stroke:#ffd700;stroke-linecap:square;stroke-width:1.5;"/>
    <g clip-path="url(#pe91f93a716)">
     <use style="fill:#ffd700;stroke:#ffd700;" x="592.939789" xlink:href="#m7b1b288664" y="12.856368"/>
    </g>
   </g>
   <g id="line2d_115">
    <path clip-path="url(#pe91f93a716)" d="M 552.933606 42.581025 
" style="fill:none;stroke:#ffd700;stroke-linecap:square;stroke-width:1.5;"/>
    <g clip-path="url(#pe91f93a716)">
     <use style="fill:#ffd700;stroke:#ffd700;" x="552.933606" xlink:href="#m7b1b288664" y="42.581025"/>
    </g>
   </g>
   <g id="line2d_116">
    <path clip-path="url(#pe91f93a716)" d="M 579.843767 0.950654 
" style="fill:none;stroke:#ffd700;stroke-linecap:square;stroke-width:1.5;"/>
    <g clip-path="url(#pe91f93a716)">
     <use style="fill:#ffd700;stroke:#ffd700;" x="579.843767" xlink:href="#m7b1b288664" y="0.950654"/>
    </g>
   </g>
   <g id="line2d_117">
    <path clip-path="url(#pe91f93a716)" d="M 577.950745 -0.027299 
" style="fill:none;stroke:#ffd700;stroke-linecap:square;stroke-width:1.5;"/>
    <g clip-path="url(#pe91f93a716)">
     <use style="fill:#ffd700;stroke:#ffd700;" x="577.950745" xlink:href="#m7b1b288664" y="-0.027299"/>
    </g>
   </g>
   <g id="line2d_118">
    <path clip-path="url(#pe91f93a716)" d="M 555.690028 45.706606 
" style="fill:none;stroke:#ffd700;stroke-linecap:square;stroke-width:1.5;"/>
    <g clip-path="url(#pe91f93a716)">
     <use style="fill:#ffd700;stroke:#ffd700;" x="555.690028" xlink:href="#m7b1b288664" y="45.706606"/>
    </g>
   </g>
   <g id="line2d_119">
    <path clip-path="url(#pe91f93a716)" d="M 600.358277 24.212603 
" style="fill:none;stroke:#ffd700;stroke-linecap:square;stroke-width:1.5;"/>
    <g clip-path="url(#pe91f93a716)">
     <use style="fill:#ffd700;stroke:#ffd700;" x="600.358277" xlink:href="#m7b1b288664" y="24.212603"/>
    </g>
   </g>
   <g id="line2d_120">
    <path clip-path="url(#pe91f93a716)" d="M 601.091874 26.213044 
" style="fill:none;stroke:#ffd700;stroke-linecap:square;stroke-width:1.5;"/>
    <g clip-path="url(#pe91f93a716)">
     <use style="fill:#ffd700;stroke:#ffd700;" x="601.091874" xlink:href="#m7b1b288664" y="26.213044"/>
    </g>
   </g>
   <g id="line2d_121">
    <path clip-path="url(#pe91f93a716)" d="M 515.687317 75.366074 
" style="fill:none;stroke:#ffd700;stroke-linecap:square;stroke-width:1.5;"/>
    <g clip-path="url(#pe91f93a716)">
     <use style="fill:#ffd700;stroke:#ffd700;" x="515.687317" xlink:href="#m7b1b288664" y="75.366074"/>
    </g>
   </g>
   <g id="line2d_122">
    <path clip-path="url(#pe91f93a716)" d="M 542.499439 33.672492 
" style="fill:none;stroke:#ffd700;stroke-linecap:square;stroke-width:1.5;"/>
    <g clip-path="url(#pe91f93a716)">
     <use style="fill:#ffd700;stroke:#ffd700;" x="542.499439" xlink:href="#m7b1b288664" y="33.672492"/>
    </g>
   </g>
   <g id="line2d_123">
    <path clip-path="url(#pe91f93a716)" d="M 540.60412 32.698997 
" style="fill:none;stroke:#ffd700;stroke-linecap:square;stroke-width:1.5;"/>
    <g clip-path="url(#pe91f93a716)">
     <use style="fill:#ffd700;stroke:#ffd700;" x="540.60412" xlink:href="#m7b1b288664" y="32.698997"/>
    </g>
   </g>
   <g id="line2d_124">
    <path clip-path="url(#pe91f93a716)" d="M 479.046145 110.644312 
" style="fill:none;stroke:#ffd700;stroke-linecap:square;stroke-width:1.5;"/>
    <g clip-path="url(#pe91f93a716)">
     <use style="fill:#ffd700;stroke:#ffd700;" x="479.046145" xlink:href="#m7b1b288664" y="110.644312"/>
    </g>
   </g>
   <g id="line2d_125">
    <path clip-path="url(#pe91f93a716)" d="M 528.383108 105.837163 
" style="fill:none;stroke:#ffd700;stroke-linecap:square;stroke-width:1.5;"/>
    <g clip-path="url(#pe91f93a716)">
     <use style="fill:#ffd700;stroke:#ffd700;" x="528.383108" xlink:href="#m7b1b288664" y="105.837163"/>
    </g>
   </g>
   <g id="line2d_126">
    <path clip-path="url(#pe91f93a716)" d="M 578.048819 104.843849 
" style="fill:none;stroke:#ffd700;stroke-linecap:square;stroke-width:1.5;"/>
    <g clip-path="url(#pe91f93a716)">
     <use style="fill:#ffd700;stroke:#ffd700;" x="578.048819" xlink:href="#m7b1b288664" y="104.843849"/>
    </g>
   </g>
   <g id="line2d_127">
    <path clip-path="url(#pe91f93a716)" d="M 577.919088 102.761917 
" style="fill:none;stroke:#ffd700;stroke-linecap:square;stroke-width:1.5;"/>
    <g clip-path="url(#pe91f93a716)">
     <use style="fill:#ffd700;stroke:#ffd700;" x="577.919088" xlink:href="#m7b1b288664" y="102.761917"/>
    </g>
   </g>
   <g id="line2d_128">
    <path clip-path="url(#pe91f93a716)" d="M 578.002436 106.929304 
" style="fill:none;stroke:#ffd700;stroke-linecap:square;stroke-width:1.5;"/>
    <g clip-path="url(#pe91f93a716)">
     <use style="fill:#ffd700;stroke:#ffd700;" x="578.002436" xlink:href="#m7b1b288664" y="106.929304"/>
    </g>
   </g>
   <g id="line2d_129">
    <path clip-path="url(#pe91f93a716)" d="M 625.979684 119.39639 
" style="fill:none;stroke:#ffd700;stroke-linecap:square;stroke-width:1.5;"/>
    <g clip-path="url(#pe91f93a716)">
     <use style="fill:#ffd700;stroke:#ffd700;" x="625.979684" xlink:href="#m7b1b288664" y="119.39639"/>
    </g>
   </g>
   <g id="line2d_130">
    <path clip-path="url(#pe91f93a716)" d="M 672.943621 135.554096 
" style="fill:none;stroke:#ffd700;stroke-linecap:square;stroke-width:1.5;"/>
    <g clip-path="url(#pe91f93a716)">
     <use style="fill:#ffd700;stroke:#ffd700;" x="672.943621" xlink:href="#m7b1b288664" y="135.554096"/>
    </g>
   </g>
   <g id="line2d_131">
    <path clip-path="url(#pe91f93a716)" d="M 673.538241 133.555107 
" style="fill:none;stroke:#ffd700;stroke-linecap:square;stroke-width:1.5;"/>
    <g clip-path="url(#pe91f93a716)">
     <use style="fill:#ffd700;stroke:#ffd700;" x="673.538241" xlink:href="#m7b1b288664" y="133.555107"/>
    </g>
   </g>
   <g id="line2d_132">
    <path clip-path="url(#pe91f93a716)" d="M 672.182468 137.495791 
" style="fill:none;stroke:#ffd700;stroke-linecap:square;stroke-width:1.5;"/>
    <g clip-path="url(#pe91f93a716)">
     <use style="fill:#ffd700;stroke:#ffd700;" x="672.182468" xlink:href="#m7b1b288664" y="137.495791"/>
    </g>
   </g>
   <g id="line2d_133">
    <path clip-path="url(#pe91f93a716)" d="M 625.246607 121.397021 
" style="fill:none;stroke:#ffd700;stroke-linecap:square;stroke-width:1.5;"/>
    <g clip-path="url(#pe91f93a716)">
     <use style="fill:#ffd700;stroke:#ffd700;" x="625.246607" xlink:href="#m7b1b288664" y="121.397021"/>
    </g>
   </g>
   <g id="line2d_134">
    <path clip-path="url(#pe91f93a716)" d="M 665.935338 149.71083 
" style="fill:none;stroke:#ffd700;stroke-linecap:square;stroke-width:1.5;"/>
    <g clip-path="url(#pe91f93a716)">
     <use style="fill:#ffd700;stroke:#ffd700;" x="665.935338" xlink:href="#m7b1b288664" y="149.71083"/>
    </g>
   </g>
   <g id="line2d_135">
    <path clip-path="url(#pe91f93a716)" d="M 650.33533 137.412311 
" style="fill:none;stroke:#008000;stroke-linecap:square;stroke-width:1.5;"/>
    <defs>
     <path d="M 0 4 
C 1.060812 4 2.078319 3.578535 2.828427 2.828427 
C 3.578535 2.078319 4 1.060812 4 0 
C 4 -1.060812 3.578535 -2.078319 2.828427 -2.828427 
C 2.078319 -3.578535 1.060812 -4 0 -4 
C -1.060812 -4 -2.078319 -3.578535 -2.828427 -2.828427 
C -3.578535 -2.078319 -4 -1.060812 -4 0 
C -4 1.060812 -3.578535 2.078319 -2.828427 2.828427 
C -2.078319 3.578535 -1.060812 4 0 4 
z
" id="m5af5829345" style="stroke:#008000;"/>
    </defs>
    <g clip-path="url(#pe91f93a716)">
     <use style="fill:#008000;stroke:#008000;" x="650.33533" xlink:href="#m5af5829345" y="137.412311"/>
    </g>
   </g>
   <g id="line2d_136">
    <path clip-path="url(#pe91f93a716)" d="M 285.449815 145.137791 
" style="fill:none;stroke:#008000;stroke-linecap:square;stroke-width:1.5;"/>
    <g clip-path="url(#pe91f93a716)">
     <use style="fill:#008000;stroke:#008000;" x="285.449815" xlink:href="#m5af5829345" y="145.137791"/>
    </g>
   </g>
   <g id="line2d_137">
    <path clip-path="url(#pe91f93a716)" d="M 335.115526 144.144476 
" style="fill:none;stroke:#008000;stroke-linecap:square;stroke-width:1.5;"/>
    <g clip-path="url(#pe91f93a716)">
     <use style="fill:#008000;stroke:#008000;" x="335.115526" xlink:href="#m5af5829345" y="144.144476"/>
    </g>
   </g>
   <g id="line2d_138">
    <path clip-path="url(#pe91f93a716)" d="M 384.651506 141.06923 
" style="fill:none;stroke:#008000;stroke-linecap:square;stroke-width:1.5;"/>
    <g clip-path="url(#pe91f93a716)">
     <use style="fill:#008000;stroke:#008000;" x="384.651506" xlink:href="#m5af5829345" y="141.06923"/>
    </g>
   </g>
   <g id="line2d_139">
    <path clip-path="url(#pe91f93a716)" d="M 432.091828 126.693537 
" style="fill:none;stroke:#008000;stroke-linecap:square;stroke-width:1.5;"/>
    <g clip-path="url(#pe91f93a716)">
     <use style="fill:#008000;stroke:#008000;" x="432.091828" xlink:href="#m5af5829345" y="126.693537"/>
    </g>
   </g>
   <g id="line2d_140">
    <path clip-path="url(#pe91f93a716)" d="M 479.046145 110.644312 
" style="fill:none;stroke:#008000;stroke-linecap:square;stroke-width:1.5;"/>
    <g clip-path="url(#pe91f93a716)">
     <use style="fill:#008000;stroke:#008000;" x="479.046145" xlink:href="#m5af5829345" y="110.644312"/>
    </g>
   </g>
   <g id="line2d_141">
    <path clip-path="url(#pe91f93a716)" d="M 528.383108 105.837163 
" style="fill:none;stroke:#008000;stroke-linecap:square;stroke-width:1.5;"/>
    <g clip-path="url(#pe91f93a716)">
     <use style="fill:#008000;stroke:#008000;" x="528.383108" xlink:href="#m5af5829345" y="105.837163"/>
    </g>
   </g>
   <g id="line2d_142">
    <path clip-path="url(#pe91f93a716)" d="M 578.002436 106.929304 
" style="fill:none;stroke:#008000;stroke-linecap:square;stroke-width:1.5;"/>
    <g clip-path="url(#pe91f93a716)">
     <use style="fill:#008000;stroke:#008000;" x="578.002436" xlink:href="#m5af5829345" y="106.929304"/>
    </g>
   </g>
   <g id="line2d_143">
    <path clip-path="url(#pe91f93a716)" d="M 625.246607 121.397021 
" style="fill:none;stroke:#008000;stroke-linecap:square;stroke-width:1.5;"/>
    <g clip-path="url(#pe91f93a716)">
     <use style="fill:#008000;stroke:#008000;" x="625.246607" xlink:href="#m5af5829345" y="121.397021"/>
    </g>
   </g>
   <g id="line2d_144">
    <path clip-path="url(#pe91f93a716)" d="M 650.33533 137.412311 
" style="fill:none;stroke:#008000;stroke-linecap:square;stroke-width:1.5;"/>
    <g clip-path="url(#pe91f93a716)">
     <use style="fill:#008000;stroke:#008000;" x="650.33533" xlink:href="#m5af5829345" y="137.412311"/>
    </g>
   </g>
  </g>
 </g>
 <defs>
  <clipPath id="pe91f93a716">
   <rect height="277.2" width="722.052" x="7.2" y="7.2"/>
  </clipPath>
 </defs>
</svg>
