<?xml version="1.0" encoding="utf-8" standalone="no"?>
<!DOCTYPE svg PUBLIC "-//W3C//DTD SVG 1.1//EN"
  "http://www.w3.org/Graphics/SVG/1.1/DTD/svg11.dtd">
<!-- Created with matplotlib (https://matplotlib.org/) -->
<svg height="291.6pt" version="1.1" viewBox="0 0 736.452 291.6" width="736.452pt" xmlns="http://www.w3.org/2000/svg" xmlns:xlink="http://www.w3.org/1999/xlink">
 <metadata>
  <rdf:RDF xmlns:cc="http://creativecommons.org/ns#" xmlns:dc="http://purl.org/dc/elements/1.1/" xmlns:rdf="http://www.w3.org/1999/02/22-rdf-syntax-ns#">
   <cc:Work>
    <dc:type rdf:resource="http://purl.org/dc/dcmitype/StillImage"/>
    <dc:date>2022-04-30T17:12:21.946018</dc:date>
    <dc:format>image/svg+xml</dc:format>
    <dc:creator>
     <cc:Agent>
      <dc:title>Matplotlib v3.3.4, https://matplotlib.org/</dc:title>
     </cc:Agent>
    </dc:creator>
   </cc:Work>
  </rdf:RDF>
 </metadata>
 <defs>
  <style type="text/css">*{stroke-linecap:butt;stroke-linejoin:round;}</style>
 </defs>
 <g id="figure_1">
  <g id="patch_1">
   <path d="M 0 291.6 
L 736.452 291.6 
L 736.452 0 
L 0 0 
z
" style="fill:#ffffff;"/>
  </g>
  <g id="axes_1">
   <g id="PolyCollection_1">
    <path clip-path="url(#pe3d58c4cfb)" d="M -487.127908 256.168246 
L -476.091083 256.168246 
L -465.054258 256.168246 
L -454.017434 256.168246 
L -442.980609 256.168246 
L -431.943785 256.168246 
L -420.90696 256.168246 
L -409.870135 256.168246 
L -398.833311 256.168246 
L -387.796486 256.168246 
L -376.759662 256.168246 
L -365.722837 256.168246 
L -354.686012 256.168246 
L -343.649188 256.168246 
L -332.612363 256.168246 
L -321.575538 256.168246 
L -310.538714 256.168246 
L -299.501889 256.168246 
L -288.465065 256.168246 
L -277.42824 256.168246 
L -266.391415 256.168246 
L -255.354591 256.168246 
L -244.317766 256.168246 
L -233.280942 256.168246 
L -222.244117 256.168246 
L -211.207292 256.168246 
L -200.170468 256.168246 
L -189.133643 256.168246 
L -178.096818 256.168246 
L -167.059994 256.168246 
L -156.023169 256.168246 
L -144.986345 256.168246 
L -133.94952 256.168246 
L -122.912695 256.168246 
L -111.875871 256.168246 
L -100.839046 256.168246 
L -89.802222 256.168246 
L -78.765397 256.168246 
L -67.728572 256.168246 
L -56.691748 256.168246 
L -45.654923 256.168246 
L -34.618098 256.168246 
L -23.581274 256.168246 
L -12.544449 256.168246 
L -1.507625 256.168246 
L 9.5292 256.168246 
L 20.566025 256.168246 
L 31.602849 256.168246 
L 42.639674 256.168246 
L 53.676498 256.168246 
L 64.713323 256.168246 
L 75.750148 256.168246 
L 86.786972 256.168246 
L 97.823797 256.168246 
L 108.860622 256.168246 
L 119.897446 256.168246 
L 130.934271 256.168246 
L 141.971095 256.168246 
L 153.00792 256.168246 
L 164.044745 256.168246 
L 175.081569 256.168246 
L 186.118394 256.168246 
L 197.155218 256.168246 
L 208.192043 256.168246 
L 219.228868 256.168246 
L 230.265692 256.168246 
L 241.302517 256.168246 
L 252.339342 256.168246 
L 263.376166 256.168246 
L 274.412991 256.168246 
L 285.449815 256.168246 
L 296.48664 256.168246 
L 307.523465 256.168246 
L 318.560289 256.168246 
L 329.597114 256.168246 
L 340.633938 256.168246 
L 351.670763 256.168246 
L 362.707588 256.168246 
L 373.744412 256.168246 
L 384.781237 256.168246 
L 395.818062 256.168246 
L 406.854886 256.168246 
L 417.891711 256.168246 
L 428.928535 256.168246 
L 439.96536 256.168246 
L 451.002185 256.168246 
L 462.039009 256.168246 
L 473.075834 256.168246 
L 484.112658 256.168246 
L 495.149483 256.168246 
L 506.186308 256.168246 
L 517.223132 256.168246 
L 528.259957 256.168246 
L 539.296782 256.168246 
L 550.333606 256.168246 
L 561.370431 256.168246 
L 572.407255 256.168246 
L 583.44408 256.168246 
L 594.480905 256.168246 
L 605.517729 256.168246 
L 616.554554 256.168246 
L 627.591378 256.168246 
L 638.628203 256.168246 
L 649.665028 256.168246 
L 660.701852 256.168246 
L 671.738677 256.168246 
L 682.775502 256.168246 
L 693.812326 256.168246 
L 704.849151 256.168246 
L 715.885975 256.168246 
L 726.9228 256.168246 
L 737.959625 256.168246 
L 748.996449 256.168246 
L 760.033274 256.168246 
L 771.070098 256.168246 
L 782.106923 256.168246 
L 793.143748 256.168246 
L 804.180572 256.168246 
L 815.217397 256.168246 
L 826.254222 256.168246 
L 837.291046 256.168246 
L 848.327871 256.168246 
L 859.364695 256.168246 
L 870.40152 256.168246 
L 881.438345 256.168246 
L 892.475169 256.168246 
L 903.511994 256.168246 
L 914.548818 256.168246 
L 925.585643 256.168246 
L 936.622468 256.168246 
L 947.659292 256.168246 
L 958.696117 256.168246 
L 969.732942 256.168246 
L 980.769766 256.168246 
L 991.806591 256.168246 
L 1002.843415 256.168246 
L 1013.88024 256.168246 
L 1024.917065 256.168246 
L 1035.953889 256.168246 
L 1046.990714 256.168246 
L 1058.027538 256.168246 
L 1069.064363 256.168246 
L 1080.101188 256.168246 
L 1091.138012 256.168246 
L 1102.174837 256.168246 
L 1113.211662 256.168246 
L 1124.248486 256.168246 
L 1135.285311 256.168246 
L 1146.322135 256.168246 
L 1157.35896 256.168246 
L 1168.395785 256.168246 
L 1179.432609 256.168246 
L 1190.469434 256.168246 
L 1201.506258 256.168246 
L 1212.543083 256.168246 
L 1223.579908 256.168246 
L 1234.616732 256.168246 
L 1245.653557 256.168246 
L 1256.690382 256.168246 
L 1267.727206 256.168246 
L 1278.764031 256.168246 
L 1289.800855 256.168246 
L 1300.83768 256.168246 
L 1311.874505 256.168246 
L 1322.911329 256.168246 
L 1333.948154 256.168246 
L 1344.984978 256.168246 
L 1356.021803 256.168246 
L 1367.058628 256.168246 
L 1378.095452 256.168246 
L 1389.132277 256.168246 
L 1400.169102 256.168246 
L 1411.205926 256.168246 
L 1422.242751 256.168246 
L 1433.279575 256.168246 
L 1444.3164 256.168246 
L 1455.353225 256.168246 
L 1466.390049 256.168246 
L 1477.426874 256.168246 
L 1488.463698 256.168246 
L 1499.500523 256.168246 
L 1510.537348 256.168246 
L 1521.574172 256.168246 
L 1532.610997 256.168246 
L 1543.647822 256.168246 
L 1554.684646 256.168246 
L 1565.721471 256.168246 
L 1576.758295 256.168246 
L 1587.79512 256.168246 
L 1598.831945 256.168246 
L 1609.868769 256.168246 
L 1620.905594 256.168246 
L 1631.942418 256.168246 
L 1642.979243 256.168246 
L 1654.016068 256.168246 
L 1665.052892 256.168246 
L 1676.089717 256.168246 
L 1687.126542 256.168246 
L 1698.163366 256.168246 
L 1709.200191 256.168246 
L 1720.237015 256.168246 
L 1731.27384 256.168246 
L 1742.310665 256.168246 
L 1753.347489 256.168246 
L 1764.384314 256.168246 
L 1775.421138 256.168246 
L 1786.457963 256.168246 
L 1797.494788 256.168246 
L 1808.531612 256.168246 
L 1819.568437 256.168246 
L 1819.568437 145.8 
L 1808.531612 145.8 
L 1797.494788 145.8 
L 1786.457963 145.8 
L 1775.421138 145.8 
L 1764.384314 145.8 
L 1753.347489 145.8 
L 1742.310665 145.8 
L 1731.27384 145.8 
L 1720.237015 145.8 
L 1709.200191 145.8 
L 1698.163366 145.8 
L 1687.126542 145.8 
L 1676.089717 145.8 
L 1665.052892 145.8 
L 1654.016068 145.8 
L 1642.979243 145.8 
L 1631.942418 145.8 
L 1620.905594 145.8 
L 1609.868769 145.8 
L 1598.831945 145.8 
L 1587.79512 145.8 
L 1576.758295 145.8 
L 1565.721471 145.8 
L 1554.684646 145.8 
L 1543.647822 145.8 
L 1532.610997 145.8 
L 1521.574172 145.8 
L 1510.537348 145.8 
L 1499.500523 145.8 
L 1488.463698 145.8 
L 1477.426874 145.8 
L 1466.390049 145.8 
L 1455.353225 145.8 
L 1444.3164 145.8 
L 1433.279575 145.8 
L 1422.242751 145.8 
L 1411.205926 145.8 
L 1400.169102 145.8 
L 1389.132277 145.8 
L 1378.095452 145.8 
L 1367.058628 145.8 
L 1356.021803 145.8 
L 1344.984978 145.8 
L 1333.948154 145.8 
L 1322.911329 145.8 
L 1311.874505 145.8 
L 1300.83768 145.8 
L 1289.800855 145.8 
L 1278.764031 145.8 
L 1267.727206 145.8 
L 1256.690382 145.8 
L 1245.653557 145.8 
L 1234.616732 145.8 
L 1223.579908 145.8 
L 1212.543083 145.8 
L 1201.506258 145.8 
L 1190.469434 145.8 
L 1179.432609 145.8 
L 1168.395785 145.8 
L 1157.35896 145.8 
L 1146.322135 145.8 
L 1135.285311 145.8 
L 1124.248486 145.8 
L 1113.211662 145.8 
L 1102.174837 145.8 
L 1091.138012 145.8 
L 1080.101188 145.8 
L 1069.064363 145.8 
L 1058.027538 145.8 
L 1046.990714 145.8 
L 1035.953889 145.8 
L 1024.917065 145.8 
L 1013.88024 145.8 
L 1002.843415 145.8 
L 991.806591 145.8 
L 980.769766 145.8 
L 969.732942 145.8 
L 958.696117 145.8 
L 947.659292 145.8 
L 936.622468 145.8 
L 925.585643 145.8 
L 914.548818 145.8 
L 903.511994 145.8 
L 892.475169 145.8 
L 881.438345 145.8 
L 870.40152 145.8 
L 859.364695 145.8 
L 848.327871 145.8 
L 837.291046 145.8 
L 826.254222 145.8 
L 815.217397 145.8 
L 804.180572 145.8 
L 793.143748 145.8 
L 782.106923 145.8 
L 771.070098 145.8 
L 760.033274 145.8 
L 748.996449 145.8 
L 737.959625 145.8 
L 726.9228 145.8 
L 715.885975 145.8 
L 704.849151 145.8 
L 693.812326 145.8 
L 682.775502 145.8 
L 671.738677 145.8 
L 660.701852 145.8 
L 649.665028 145.8 
L 638.628203 145.8 
L 627.591378 145.8 
L 616.554554 145.8 
L 605.517729 145.8 
L 594.480905 145.8 
L 583.44408 145.8 
L 572.407255 145.8 
L 561.370431 145.8 
L 550.333606 145.8 
L 539.296782 145.8 
L 528.259957 145.8 
L 517.223132 145.8 
L 506.186308 145.8 
L 495.149483 145.8 
L 484.112658 145.8 
L 473.075834 145.8 
L 462.039009 145.8 
L 451.002185 145.8 
L 439.96536 145.8 
L 428.928535 145.8 
L 417.891711 145.8 
L 406.854886 145.8 
L 395.818062 145.8 
L 384.781237 145.8 
L 373.744412 145.8 
L 362.707588 145.8 
L 351.670763 145.8 
L 340.633938 145.8 
L 329.597114 145.8 
L 318.560289 145.8 
L 307.523465 145.8 
L 296.48664 145.8 
L 285.449815 145.8 
L 274.412991 145.8 
L 263.376166 145.8 
L 252.339342 145.8 
L 241.302517 145.8 
L 230.265692 145.8 
L 219.228868 145.8 
L 208.192043 145.8 
L 197.155218 145.8 
L 186.118394 145.8 
L 175.081569 145.8 
L 164.044745 145.8 
L 153.00792 145.8 
L 141.971095 145.8 
L 130.934271 145.8 
L 119.897446 145.8 
L 108.860622 145.8 
L 97.823797 145.8 
L 86.786972 145.8 
L 75.750148 145.8 
L 64.713323 145.8 
L 53.676498 145.8 
L 42.639674 145.8 
L 31.602849 145.8 
L 20.566025 145.8 
L 9.5292 145.8 
L -1.507625 145.8 
L -12.544449 145.8 
L -23.581274 145.8 
L -34.618098 145.8 
L -45.654923 145.8 
L -56.691748 145.8 
L -67.728572 145.8 
L -78.765397 145.8 
L -89.802222 145.8 
L -100.839046 145.8 
L -111.875871 145.8 
L -122.912695 145.8 
L -133.94952 145.8 
L -144.986345 145.8 
L -156.023169 145.8 
L -167.059994 145.8 
L -178.096818 145.8 
L -189.133643 145.8 
L -200.170468 145.8 
L -211.207292 145.8 
L -222.244117 145.8 
L -233.280942 145.8 
L -244.317766 145.8 
L -255.354591 145.8 
L -266.391415 145.8 
L -277.42824 145.8 
L -288.465065 145.8 
L -299.501889 145.8 
L -310.538714 145.8 
L -321.575538 145.8 
L -332.612363 145.8 
L -343.649188 145.8 
L -354.686012 145.8 
L -365.722837 145.8 
L -376.759662 145.8 
L -387.796486 145.8 
L -398.833311 145.8 
L -409.870135 145.8 
L -420.90696 145.8 
L -431.943785 145.8 
L -442.980609 145.8 
L -454.017434 145.8 
L -465.054258 145.8 
L -476.091083 145.8 
L -487.127908 145.8 
z
" style="fill:#c7c7c7;"/>
    <path clip-path="url(#pe3d58c4cfb)" d="M -487.127908 145.8 
L -476.091083 145.8 
L -465.054258 145.8 
L -454.017434 145.8 
L -442.980609 145.8 
L -431.943785 145.8 
L -420.90696 145.8 
L -409.870135 145.8 
L -398.833311 145.8 
L -387.796486 145.8 
L -376.759662 145.8 
L -365.722837 145.8 
L -354.686012 145.8 
L -343.649188 145.8 
L -332.612363 145.8 
L -321.575538 145.8 
L -310.538714 145.8 
L -299.501889 145.8 
L -288.465065 145.8 
L -277.42824 145.8 
L -266.391415 145.8 
L -255.354591 145.8 
L -244.317766 145.8 
L -233.280942 145.8 
L -222.244117 145.8 
L -211.207292 145.8 
L -200.170468 145.8 
L -189.133643 145.8 
L -178.096818 145.8 
L -167.059994 145.8 
L -156.023169 145.8 
L -144.986345 145.8 
L -133.94952 145.8 
L -122.912695 145.8 
L -111.875871 145.8 
L -100.839046 145.8 
L -89.802222 145.8 
L -78.765397 145.8 
L -67.728572 145.8 
L -56.691748 145.8 
L -45.654923 145.8 
L -34.618098 145.8 
L -23.581274 145.8 
L -12.544449 145.8 
L -1.507625 145.8 
L 9.5292 145.8 
L 20.566025 145.8 
L 31.602849 145.8 
L 42.639674 145.8 
L 53.676498 145.8 
L 64.713323 145.8 
L 75.750148 145.8 
L 86.786972 145.8 
L 97.823797 145.8 
L 108.860622 145.8 
L 119.897446 145.8 
L 130.934271 145.8 
L 141.971095 145.8 
L 153.00792 145.8 
L 164.044745 145.8 
L 175.081569 145.8 
L 186.118394 145.8 
L 197.155218 145.8 
L 208.192043 145.8 
L 219.228868 145.8 
L 230.265692 145.8 
L 241.302517 145.8 
L 252.339342 145.8 
L 263.376166 145.8 
L 274.412991 145.8 
L 285.449815 145.8 
L 296.48664 145.8 
L 307.523465 145.8 
L 318.560289 145.8 
L 329.597114 145.8 
L 340.633938 145.8 
L 351.670763 145.8 
L 362.707588 145.8 
L 373.744412 145.8 
L 384.781237 145.8 
L 395.818062 145.8 
L 406.854886 145.8 
L 417.891711 145.8 
L 428.928535 145.8 
L 439.96536 145.8 
L 451.002185 145.8 
L 462.039009 145.8 
L 473.075834 145.8 
L 484.112658 145.8 
L 495.149483 145.8 
L 506.186308 145.8 
L 517.223132 145.8 
L 528.259957 145.8 
L 539.296782 145.8 
L 550.333606 145.8 
L 561.370431 145.8 
L 572.407255 145.8 
L 583.44408 145.8 
L 594.480905 145.8 
L 605.517729 145.8 
L 616.554554 145.8 
L 627.591378 145.8 
L 638.628203 145.8 
L 649.665028 145.8 
L 660.701852 145.8 
L 671.738677 145.8 
L 682.775502 145.8 
L 693.812326 145.8 
L 704.849151 145.8 
L 715.885975 145.8 
L 726.9228 145.8 
L 737.959625 145.8 
L 748.996449 145.8 
L 760.033274 145.8 
L 771.070098 145.8 
L 782.106923 145.8 
L 793.143748 145.8 
L 804.180572 145.8 
L 815.217397 145.8 
L 826.254222 145.8 
L 837.291046 145.8 
L 848.327871 145.8 
L 859.364695 145.8 
L 870.40152 145.8 
L 881.438345 145.8 
L 892.475169 145.8 
L 903.511994 145.8 
L 914.548818 145.8 
L 925.585643 145.8 
L 936.622468 145.8 
L 947.659292 145.8 
L 958.696117 145.8 
L 969.732942 145.8 
L 980.769766 145.8 
L 991.806591 145.8 
L 1002.843415 145.8 
L 1013.88024 145.8 
L 1024.917065 145.8 
L 1035.953889 145.8 
L 1046.990714 145.8 
L 1058.027538 145.8 
L 1069.064363 145.8 
L 1080.101188 145.8 
L 1091.138012 145.8 
L 1102.174837 145.8 
L 1113.211662 145.8 
L 1124.248486 145.8 
L 1135.285311 145.8 
L 1146.322135 145.8 
L 1157.35896 145.8 
L 1168.395785 145.8 
L 1179.432609 145.8 
L 1190.469434 145.8 
L 1201.506258 145.8 
L 1212.543083 145.8 
L 1223.579908 145.8 
L 1234.616732 145.8 
L 1245.653557 145.8 
L 1256.690382 145.8 
L 1267.727206 145.8 
L 1278.764031 145.8 
L 1289.800855 145.8 
L 1300.83768 145.8 
L 1311.874505 145.8 
L 1322.911329 145.8 
L 1333.948154 145.8 
L 1344.984978 145.8 
L 1356.021803 145.8 
L 1367.058628 145.8 
L 1378.095452 145.8 
L 1389.132277 145.8 
L 1400.169102 145.8 
L 1411.205926 145.8 
L 1422.242751 145.8 
L 1433.279575 145.8 
L 1444.3164 145.8 
L 1455.353225 145.8 
L 1466.390049 145.8 
L 1477.426874 145.8 
L 1488.463698 145.8 
L 1499.500523 145.8 
L 1510.537348 145.8 
L 1521.574172 145.8 
L 1532.610997 145.8 
L 1543.647822 145.8 
L 1554.684646 145.8 
L 1565.721471 145.8 
L 1576.758295 145.8 
L 1587.79512 145.8 
L 1598.831945 145.8 
L 1609.868769 145.8 
L 1620.905594 145.8 
L 1631.942418 145.8 
L 1642.979243 145.8 
L 1654.016068 145.8 
L 1665.052892 145.8 
L 1676.089717 145.8 
L 1687.126542 145.8 
L 1698.163366 145.8 
L 1709.200191 145.8 
L 1720.237015 145.8 
L 1731.27384 145.8 
L 1742.310665 145.8 
L 1753.347489 145.8 
L 1764.384314 145.8 
L 1775.421138 145.8 
L 1786.457963 145.8 
L 1797.494788 145.8 
L 1808.531612 145.8 
L 1819.568437 145.8 
L 1819.568437 35.431754 
L 1808.531612 35.431754 
L 1797.494788 35.431754 
L 1786.457963 35.431754 
L 1775.421138 35.431754 
L 1764.384314 35.431754 
L 1753.347489 35.431754 
L 1742.310665 35.431754 
L 1731.27384 35.431754 
L 1720.237015 35.431754 
L 1709.200191 35.431754 
L 1698.163366 35.431754 
L 1687.126542 35.431754 
L 1676.089717 35.431754 
L 1665.052892 35.431754 
L 1654.016068 35.431754 
L 1642.979243 35.431754 
L 1631.942418 35.431754 
L 1620.905594 35.431754 
L 1609.868769 35.431754 
L 1598.831945 35.431754 
L 1587.79512 35.431754 
L 1576.758295 35.431754 
L 1565.721471 35.431754 
L 1554.684646 35.431754 
L 1543.647822 35.431754 
L 1532.610997 35.431754 
L 1521.574172 35.431754 
L 1510.537348 35.431754 
L 1499.500523 35.431754 
L 1488.463698 35.431754 
L 1477.426874 35.431754 
L 1466.390049 35.431754 
L 1455.353225 35.431754 
L 1444.3164 35.431754 
L 1433.279575 35.431754 
L 1422.242751 35.431754 
L 1411.205926 35.431754 
L 1400.169102 35.431754 
L 1389.132277 35.431754 
L 1378.095452 35.431754 
L 1367.058628 35.431754 
L 1356.021803 35.431754 
L 1344.984978 35.431754 
L 1333.948154 35.431754 
L 1322.911329 35.431754 
L 1311.874505 35.431754 
L 1300.83768 35.431754 
L 1289.800855 35.431754 
L 1278.764031 35.431754 
L 1267.727206 35.431754 
L 1256.690382 35.431754 
L 1245.653557 35.431754 
L 1234.616732 35.431754 
L 1223.579908 35.431754 
L 1212.543083 35.431754 
L 1201.506258 35.431754 
L 1190.469434 35.431754 
L 1179.432609 35.431754 
L 1168.395785 35.431754 
L 1157.35896 35.431754 
L 1146.322135 35.431754 
L 1135.285311 35.431754 
L 1124.248486 35.431754 
L 1113.211662 35.431754 
L 1102.174837 35.431754 
L 1091.138012 35.431754 
L 1080.101188 35.431754 
L 1069.064363 35.431754 
L 1058.027538 35.431754 
L 1046.990714 35.431754 
L 1035.953889 35.431754 
L 1024.917065 35.431754 
L 1013.88024 35.431754 
L 1002.843415 35.431754 
L 991.806591 35.431754 
L 980.769766 35.431754 
L 969.732942 35.431754 
L 958.696117 35.431754 
L 947.659292 35.431754 
L 936.622468 35.431754 
L 925.585643 35.431754 
L 914.548818 35.431754 
L 903.511994 35.431754 
L 892.475169 35.431754 
L 881.438345 35.431754 
L 870.40152 35.431754 
L 859.364695 35.431754 
L 848.327871 35.431754 
L 837.291046 35.431754 
L 826.254222 35.431754 
L 815.217397 35.431754 
L 804.180572 35.431754 
L 793.143748 35.431754 
L 782.106923 35.431754 
L 771.070098 35.431754 
L 760.033274 35.431754 
L 748.996449 35.431754 
L 737.959625 35.431754 
L 726.9228 35.431754 
L 715.885975 35.431754 
L 704.849151 35.431754 
L 693.812326 35.431754 
L 682.775502 35.431754 
L 671.738677 35.431754 
L 660.701852 35.431754 
L 649.665028 35.431754 
L 638.628203 35.431754 
L 627.591378 35.431754 
L 616.554554 35.431754 
L 605.517729 35.431754 
L 594.480905 35.431754 
L 583.44408 35.431754 
L 572.407255 35.431754 
L 561.370431 35.431754 
L 550.333606 35.431754 
L 539.296782 35.431754 
L 528.259957 35.431754 
L 517.223132 35.431754 
L 506.186308 35.431754 
L 495.149483 35.431754 
L 484.112658 35.431754 
L 473.075834 35.431754 
L 462.039009 35.431754 
L 451.002185 35.431754 
L 439.96536 35.431754 
L 428.928535 35.431754 
L 417.891711 35.431754 
L 406.854886 35.431754 
L 395.818062 35.431754 
L 384.781237 35.431754 
L 373.744412 35.431754 
L 362.707588 35.431754 
L 351.670763 35.431754 
L 340.633938 35.431754 
L 329.597114 35.431754 
L 318.560289 35.431754 
L 307.523465 35.431754 
L 296.48664 35.431754 
L 285.449815 35.431754 
L 274.412991 35.431754 
L 263.376166 35.431754 
L 252.339342 35.431754 
L 241.302517 35.431754 
L 230.265692 35.431754 
L 219.228868 35.431754 
L 208.192043 35.431754 
L 197.155218 35.431754 
L 186.118394 35.431754 
L 175.081569 35.431754 
L 164.044745 35.431754 
L 153.00792 35.431754 
L 141.971095 35.431754 
L 130.934271 35.431754 
L 119.897446 35.431754 
L 108.860622 35.431754 
L 97.823797 35.431754 
L 86.786972 35.431754 
L 75.750148 35.431754 
L 64.713323 35.431754 
L 53.676498 35.431754 
L 42.639674 35.431754 
L 31.602849 35.431754 
L 20.566025 35.431754 
L 9.5292 35.431754 
L -1.507625 35.431754 
L -12.544449 35.431754 
L -23.581274 35.431754 
L -34.618098 35.431754 
L -45.654923 35.431754 
L -56.691748 35.431754 
L -67.728572 35.431754 
L -78.765397 35.431754 
L -89.802222 35.431754 
L -100.839046 35.431754 
L -111.875871 35.431754 
L -122.912695 35.431754 
L -133.94952 35.431754 
L -144.986345 35.431754 
L -156.023169 35.431754 
L -167.059994 35.431754 
L -178.096818 35.431754 
L -189.133643 35.431754 
L -200.170468 35.431754 
L -211.207292 35.431754 
L -222.244117 35.431754 
L -233.280942 35.431754 
L -244.317766 35.431754 
L -255.354591 35.431754 
L -266.391415 35.431754 
L -277.42824 35.431754 
L -288.465065 35.431754 
L -299.501889 35.431754 
L -310.538714 35.431754 
L -321.575538 35.431754 
L -332.612363 35.431754 
L -343.649188 35.431754 
L -354.686012 35.431754 
L -365.722837 35.431754 
L -376.759662 35.431754 
L -387.796486 35.431754 
L -398.833311 35.431754 
L -409.870135 35.431754 
L -420.90696 35.431754 
L -431.943785 35.431754 
L -442.980609 35.431754 
L -454.017434 35.431754 
L -465.054258 35.431754 
L -476.091083 35.431754 
L -487.127908 35.431754 
z
" style="fill:#c7c7c7;"/>
   </g>
   <g id="PathCollection_1"/>
   <g id="PathCollection_2">
    <path clip-path="url(#pe3d58c4cfb)" d="M -487.127908 209.261742 
L -470.572671 200.984123 
L -487.127908 192.706505 
z
" style="fill:#dddddd;stroke:#dddddd;stroke-width:0.5;"/>
    <path clip-path="url(#pe3d58c4cfb)" d="M -487.127908 98.893495 
L -470.572671 90.615877 
L -487.127908 82.338258 
z
" style="fill:#dddddd;stroke:#dddddd;stroke-width:0.5;"/>
   </g>
   <g id="PathCollection_3">
    <path clip-path="url(#pe3d58c4cfb)" d="M -1 256.168246 
L 737.452 256.168246 
L 737.452 256.168246 
" style="fill:none;stroke:#555555;stroke-width:0.5;"/>
    <path clip-path="url(#pe3d58c4cfb)" d="M -1 145.8 
L 737.452 145.8 
L 737.452 145.8 
" style="fill:none;stroke:#555555;stroke-width:0.5;"/>
   </g>
   <g id="PathCollection_4">
    <path clip-path="url(#pe3d58c4cfb)" d="M -1 145.8 
L 737.452 145.8 
L 737.452 145.8 
" style="fill:none;stroke:#555555;stroke-width:0.5;"/>
    <path clip-path="url(#pe3d58c4cfb)" d="M -1 35.431754 
L 737.452 35.431754 
L 737.452 35.431754 
" style="fill:none;stroke:#555555;stroke-width:0.5;"/>
   </g>
   <g id="PatchCollection_1">
    <path clip-path="url(#pe3d58c4cfb)" d="M 285.449815 156.174615 
C 288.376815 156.174615 291.184327 155.011706 293.254029 152.942004 
C 295.323731 150.872302 296.48664 148.064791 296.48664 145.137791 
C 296.48664 142.21079 295.323731 139.403279 293.254029 137.333577 
C 291.184327 135.263875 288.376815 134.100966 285.449815 134.100966 
C 282.522815 134.100966 279.715303 135.263875 277.645602 137.333577 
C 275.5759 139.403279 274.412991 142.21079 274.412991 145.137791 
C 274.412991 148.064791 275.5759 150.872302 277.645602 152.942004 
C 279.715303 155.011706 282.522815 156.174615 285.449815 156.174615 
z
" style="fill:#008000;stroke:#008000;"/>
    <path clip-path="url(#pe3d58c4cfb)" d="M 374.830216 143.349944 
L 335.370459 157.386083 
L 335.193882 148.558389 
L 285.538104 149.551637 
L 285.361527 140.723944 
L 335.017305 139.730696 
L 334.840727 130.903002 
z
" style="fill:#008000;stroke:#008000;"/>
    <path clip-path="url(#pe3d58c4cfb)" d="M 616.554554 154.62946 
L 616.554554 136.97054 
L 671.738677 136.97054 
L 671.738677 154.62946 
z
" style="fill:#f1b514;stroke:#302404;stroke-width:0.5;"/>
    <path clip-path="url(#pe3d58c4cfb)" d="M 410.43297 152.994677 
L 409.096355 138.183511 
L 428.882235 136.397958 
L 430.218851 151.209124 
z
" style="fill:#d95558;stroke:#831d20;stroke-width:0.5;"/>
    <path clip-path="url(#pe3d58c4cfb)" d="M 520.092707 152.131994 
L 520.092707 137.260641 
L 539.958991 137.260641 
L 539.958991 152.131994 
z
" style="fill:#d95558;stroke:#831d20;stroke-width:0.5;"/>
    <path clip-path="url(#pe3d58c4cfb)" d="M 575.27683 106.881013 
L 575.27683 92.00966 
L 595.143114 92.00966 
L 595.143114 106.881013 
z
" style="fill:#d95558;stroke:#831d20;stroke-width:0.5;"/>
    <path clip-path="url(#pe3d58c4cfb)" d="M 285.449815 150.656203 
C 286.913315 150.656203 288.317071 150.074748 289.351922 149.039897 
C 290.386773 148.005046 290.968228 146.601291 290.968228 145.137791 
C 290.968228 143.67429 290.386773 142.270535 289.351922 141.235684 
C 288.317071 140.200833 286.913315 139.619378 285.449815 139.619378 
C 283.986315 139.619378 282.582559 140.200833 281.547709 141.235684 
C 280.512858 142.270535 279.931403 143.67429 279.931403 145.137791 
C 279.931403 146.601291 280.512858 148.005046 281.547709 149.039897 
C 282.582559 150.074748 283.986315 150.656203 285.449815 150.656203 
z
" style="fill:#1d7eea;stroke:#00478f;stroke-width:0.5;"/>
   </g>
   <g id="line2d_1">
    <path clip-path="url(#pe3d58c4cfb)" d="M 285.449815 145.137791 
" style="fill:none;stroke:#ffd700;stroke-linecap:square;stroke-width:2;"/>
   </g>
   <g id="line2d_2">
    <path clip-path="url(#pe3d58c4cfb)" d="M 285.449815 145.137791 
L 295.382958 144.939128 
L 305.3161 144.740465 
L 315.249242 144.541802 
L 325.182384 144.343139 
L 335.115526 144.144476 
" style="fill:none;stroke:#ffd700;stroke-linecap:square;stroke-width:2;"/>
   </g>
   <g id="line2d_3">
    <path clip-path="url(#pe3d58c4cfb)" d="M 285.449815 145.137791 
L 295.382958 144.939128 
L 305.31441 144.671119 
L 315.237878 144.194945 
L 325.138281 143.371618 
L 334.985795 142.062544 
" style="fill:none;stroke:#ffd700;stroke-linecap:square;stroke-width:2;"/>
   </g>
   <g id="line2d_4">
    <path clip-path="url(#pe3d58c4cfb)" d="M 285.449815 145.137791 
L 295.382958 144.939128 
L 305.317184 144.809823 
L 315.251755 144.888836 
L 325.177162 145.315647 
L 335.069143 146.229931 
" style="fill:none;stroke:#ffd700;stroke-linecap:square;stroke-width:2;"/>
   </g>
   <g id="line2d_5">
    <path clip-path="url(#pe3d58c4cfb)" d="M 335.115526 144.144476 
L 345.048668 143.945813 
L 354.98181 143.747151 
L 364.914953 143.548488 
L 374.848095 143.349825 
L 384.781237 143.151162 
" style="fill:none;stroke:#ffd700;stroke-linecap:square;stroke-width:2;"/>
   </g>
   <g id="line2d_6">
    <path clip-path="url(#pe3d58c4cfb)" d="M 335.115526 144.144476 
L 345.048668 143.945813 
L 354.980121 143.677804 
L 364.903588 143.201631 
L 374.803992 142.378304 
L 384.651506 141.06923 
" style="fill:none;stroke:#ffd700;stroke-linecap:square;stroke-width:2;"/>
   </g>
   <g id="line2d_7">
    <path clip-path="url(#pe3d58c4cfb)" d="M 335.115526 144.144476 
L 345.048668 143.945813 
L 354.982895 143.816509 
L 364.917466 143.895521 
L 374.842872 144.322333 
L 384.734854 145.236617 
" style="fill:none;stroke:#ffd700;stroke-linecap:square;stroke-width:2;"/>
   </g>
   <g id="line2d_8">
    <path clip-path="url(#pe3d58c4cfb)" d="M 384.781237 143.151162 
L 394.714379 142.952499 
L 404.647521 142.753836 
L 414.580663 142.555174 
L 424.513806 142.356511 
L 434.446948 142.157848 
" style="fill:none;stroke:#ffd700;stroke-dasharray:7.4,3.2;stroke-dashoffset:0;stroke-width:2;"/>
   </g>
   <g id="line2d_9">
    <path clip-path="url(#pe3d58c4cfb)" d="M 384.781237 143.151162 
L 394.714379 142.952499 
L 404.645832 142.68449 
L 414.569299 142.208317 
L 424.469703 141.38499 
L 434.317217 140.075915 
" style="fill:none;stroke:#ffd700;stroke-dasharray:7.4,3.2;stroke-dashoffset:0;stroke-width:2;"/>
   </g>
   <g id="line2d_10">
    <path clip-path="url(#pe3d58c4cfb)" d="M 384.781237 143.151162 
L 394.714379 142.952499 
L 404.648606 142.823195 
L 414.583177 142.902207 
L 424.508583 143.329018 
L 434.400565 144.243303 
" style="fill:none;stroke:#ffd700;stroke-dasharray:7.4,3.2;stroke-dashoffset:0;stroke-width:2;"/>
   </g>
   <g id="line2d_11">
    <path clip-path="url(#pe3d58c4cfb)" d="M 335.069143 146.229931 
L 344.880623 147.769842 
L 354.575126 149.929555 
L 364.15213 152.563446 
L 373.631328 155.531154 
L 383.046392 158.697017 
" style="fill:none;stroke:#ffd700;stroke-linecap:square;stroke-width:2;"/>
   </g>
   <g id="line2d_12">
    <path clip-path="url(#pe3d58c4cfb)" d="M 335.069143 146.229931 
L 344.880623 147.769842 
L 354.558715 149.999413 
L 364.055006 152.907489 
L 373.321992 156.479524 
L 382.313314 160.697648 
" style="fill:none;stroke:#ffd700;stroke-linecap:square;stroke-width:2;"/>
   </g>
   <g id="line2d_13">
    <path clip-path="url(#pe3d58c4cfb)" d="M 384.734854 145.236617 
L 394.546333 146.776528 
L 404.240837 148.93624 
L 413.817841 151.570132 
L 423.297039 154.53784 
L 432.712102 157.703703 
" style="fill:none;stroke:#ffd700;stroke-dasharray:7.4,3.2;stroke-dashoffset:0;stroke-width:2;"/>
   </g>
   <g id="line2d_14">
    <path clip-path="url(#pe3d58c4cfb)" d="M 384.734854 145.236617 
L 394.546333 146.776528 
L 404.224426 149.006098 
L 413.720717 151.914175 
L 422.987702 155.48621 
L 431.979025 159.704334 
" style="fill:none;stroke:#ffd700;stroke-dasharray:7.4,3.2;stroke-dashoffset:0;stroke-width:2;"/>
   </g>
   <g id="line2d_15">
    <path clip-path="url(#pe3d58c4cfb)" d="M 334.985795 142.062544 
L 344.727847 140.13151 
L 354.32823 137.585848 
L 363.792246 134.571086 
L 373.145185 131.226685 
L 382.426117 127.686852 
" style="fill:none;stroke:#ffd700;stroke-linecap:square;stroke-width:2;"/>
   </g>
   <g id="line2d_16">
    <path clip-path="url(#pe3d58c4cfb)" d="M 334.985795 142.062544 
L 344.727847 140.13151 
L 354.309039 137.516703 
L 363.681442 134.231202 
L 372.798171 130.291444 
L 381.613622 125.717136 
" style="fill:none;stroke:#ffd700;stroke-linecap:square;stroke-width:2;"/>
   </g>
   <g id="line2d_17">
    <path clip-path="url(#pe3d58c4cfb)" d="M 384.651506 141.06923 
L 394.393557 139.138196 
L 403.993941 136.592534 
L 413.457957 133.577771 
L 422.810896 130.23337 
L 432.091828 126.693537 
" style="fill:none;stroke:#ffd700;stroke-linecap:square;stroke-width:2;"/>
   </g>
   <g id="line2d_18">
    <path clip-path="url(#pe3d58c4cfb)" d="M 384.651506 141.06923 
L 394.393557 139.138196 
L 403.974749 136.523388 
L 413.347152 133.237888 
L 422.463882 129.29813 
L 431.279332 124.723822 
" style="fill:none;stroke:#ffd700;stroke-linecap:square;stroke-width:2;"/>
   </g>
   <g id="line2d_19">
    <path clip-path="url(#pe3d58c4cfb)" d="M 383.046392 158.697017 
L 392.439179 161.928559 
L 401.831966 165.1601 
L 411.224754 168.391641 
L 420.617541 171.623182 
L 430.010328 174.854724 
" style="fill:none;stroke:#ffd700;stroke-linecap:square;stroke-width:2;"/>
   </g>
   <g id="line2d_20">
    <path clip-path="url(#pe3d58c4cfb)" d="M 383.046392 158.697017 
L 392.439179 161.928559 
L 401.854243 165.094422 
L 411.333441 168.06213 
L 420.910445 170.696021 
L 430.604948 172.855734 
" style="fill:none;stroke:#ffd700;stroke-linecap:square;stroke-width:2;"/>
   </g>
   <g id="line2d_21">
    <path clip-path="url(#pe3d58c4cfb)" d="M 383.046392 158.697017 
L 392.439179 161.928559 
L 401.809118 165.225581 
L 411.107698 168.718273 
L 420.277995 172.534296 
L 429.249175 176.796419 
" style="fill:none;stroke:#ffd700;stroke-linecap:square;stroke-width:2;"/>
   </g>
   <g id="line2d_22">
    <path clip-path="url(#pe3d58c4cfb)" d="M 382.313314 160.697648 
L 390.983995 165.540762 
L 399.330253 170.924788 
L 407.402037 176.712938 
L 415.266442 182.780361 
L 423.002045 189.011457 
" style="fill:none;stroke:#ffd700;stroke-linecap:square;stroke-width:2;"/>
   </g>
   <g id="line2d_23">
    <path clip-path="url(#pe3d58c4cfb)" d="M 382.313314 160.697648 
L 390.983995 165.540762 
L 399.29066 170.984637 
L 407.191755 177.00204 
L 414.647756 183.562871 
L 421.621365 190.634309 
" style="fill:none;stroke:#ffd700;stroke-linecap:square;stroke-width:2;"/>
   </g>
   <g id="line2d_24">
    <path clip-path="url(#pe3d58c4cfb)" d="M 382.426117 127.686852 
L 391.682164 124.082284 
L 400.938211 120.477716 
L 410.194258 116.873149 
L 419.450305 113.268581 
L 428.706351 109.664013 
" style="fill:none;stroke:#ffd700;stroke-linecap:square;stroke-width:2;"/>
   </g>
   <g id="line2d_25">
    <path clip-path="url(#pe3d58c4cfb)" d="M 382.426117 127.686852 
L 391.682164 124.082284 
L 400.912762 120.413201 
L 410.064233 116.551459 
L 419.074596 112.371774 
L 427.86816 107.75431 
" style="fill:none;stroke:#ffd700;stroke-linecap:square;stroke-width:2;"/>
   </g>
   <g id="line2d_26">
    <path clip-path="url(#pe3d58c4cfb)" d="M 382.426117 127.686852 
L 391.682164 124.082284 
L 400.963095 120.542451 
L 410.316034 117.19805 
L 419.78005 114.183287 
L 429.380434 111.637626 
" style="fill:none;stroke:#ffd700;stroke-linecap:square;stroke-width:2;"/>
   </g>
   <g id="line2d_27">
    <path clip-path="url(#pe3d58c4cfb)" d="M 432.091828 126.693537 
L 441.347875 123.08897 
L 450.603921 119.484402 
L 459.859968 115.879834 
L 469.116015 112.275267 
L 478.372062 108.670699 
" style="fill:none;stroke:#ffd700;stroke-linecap:square;stroke-width:2;"/>
   </g>
   <g id="line2d_28">
    <path clip-path="url(#pe3d58c4cfb)" d="M 432.091828 126.693537 
L 441.347875 123.08897 
L 450.578473 119.419887 
L 459.729944 115.558145 
L 468.740306 111.37846 
L 477.533871 106.760995 
" style="fill:none;stroke:#ffd700;stroke-linecap:square;stroke-width:2;"/>
   </g>
   <g id="line2d_29">
    <path clip-path="url(#pe3d58c4cfb)" d="M 432.091828 126.693537 
L 441.347875 123.08897 
L 450.628806 119.549137 
L 459.981745 116.204736 
L 469.445761 113.189973 
L 479.046145 110.644312 
" style="fill:none;stroke:#ffd700;stroke-linecap:square;stroke-width:2;"/>
   </g>
   <g id="line2d_30">
    <path clip-path="url(#pe3d58c4cfb)" d="M 381.613622 125.717136 
L 390.083694 120.531162 
L 398.207972 114.817681 
L 406.041836 108.711375 
L 413.657318 102.334313 
L 421.137556 95.79886 
" style="fill:none;stroke:#ffd700;stroke-linecap:square;stroke-width:2;"/>
   </g>
   <g id="line2d_31">
    <path clip-path="url(#pe3d58c4cfb)" d="M 381.613622 125.717136 
L 390.083694 120.531162 
L 398.166018 114.759464 
L 405.820161 108.430914 
L 413.007835 101.57717 
L 419.693083 94.232519 
" style="fill:none;stroke:#ffd700;stroke-linecap:square;stroke-width:2;"/>
   </g>
   <g id="line2d_32">
    <path clip-path="url(#pe3d58c4cfb)" d="M 431.279332 124.723822 
L 439.749405 119.537848 
L 447.873683 113.824367 
L 455.707547 107.718061 
L 463.323029 101.340999 
L 470.803267 94.805546 
" style="fill:none;stroke:#ffd700;stroke-linecap:square;stroke-width:2;"/>
   </g>
   <g id="line2d_33">
    <path clip-path="url(#pe3d58c4cfb)" d="M 431.279332 124.723822 
L 439.749405 119.537848 
L 447.831728 113.766149 
L 455.485872 107.437599 
L 462.673546 100.583856 
L 469.358794 93.239204 
" style="fill:none;stroke:#ffd700;stroke-linecap:square;stroke-width:2;"/>
   </g>
   <g id="line2d_34">
    <path clip-path="url(#pe3d58c4cfb)" d="M 430.604948 172.855734 
L 440.416428 174.395645 
L 450.306434 175.30972 
L 460.229857 175.736419 
L 470.162442 175.815389 
L 480.094682 175.686084 
" style="fill:none;stroke:#ffd700;stroke-linecap:square;stroke-width:2;"/>
   </g>
   <g id="line2d_35">
    <path clip-path="url(#pe3d58c4cfb)" d="M 430.604948 172.855734 
L 440.416428 174.395645 
L 450.312213 175.238193 
L 460.242801 175.379164 
L 470.158515 174.817853 
L 480.009752 173.557067 
" style="fill:none;stroke:#ffd700;stroke-linecap:square;stroke-width:2;"/>
   </g>
   <g id="line2d_36">
    <path clip-path="url(#pe3d58c4cfb)" d="M 430.010328 174.854724 
L 439.403116 178.086265 
L 448.795903 181.317806 
L 458.18869 184.549347 
L 467.581478 187.780889 
L 476.974265 191.01243 
" style="fill:none;stroke:#ffd700;stroke-linecap:square;stroke-width:2;"/>
   </g>
   <g id="line2d_37">
    <path clip-path="url(#pe3d58c4cfb)" d="M 430.010328 174.854724 
L 439.403116 178.086265 
L 448.818179 181.252128 
L 458.297377 184.219836 
L 467.874381 186.853728 
L 477.568885 189.01344 
" style="fill:none;stroke:#ffd700;stroke-linecap:square;stroke-width:2;"/>
   </g>
   <g id="line2d_38">
    <path clip-path="url(#pe3d58c4cfb)" d="M 430.010328 174.854724 
L 439.403116 178.086265 
L 448.773055 181.383287 
L 458.071635 184.875979 
L 467.241932 188.692003 
L 476.213112 192.954125 
" style="fill:none;stroke:#ffd700;stroke-linecap:square;stroke-width:2;"/>
   </g>
   <g id="line2d_39">
    <path clip-path="url(#pe3d58c4cfb)" d="M 480.009752 173.557067 
L 489.747232 171.603113 
L 499.341599 169.034867 
L 508.798494 165.997842 
L 518.143537 162.631441 
L 527.416113 159.069778 
" style="fill:none;stroke:#ffd700;stroke-linecap:square;stroke-width:2;"/>
   </g>
   <g id="line2d_40">
    <path clip-path="url(#pe3d58c4cfb)" d="M 480.009752 173.557067 
L 489.747232 171.603113 
L 499.322245 168.965767 
L 508.68689 165.65822 
L 517.794324 161.697019 
L 526.598985 157.10198 
" style="fill:none;stroke:#ffd700;stroke-linecap:square;stroke-width:2;"/>
   </g>
   <g id="line2d_41">
    <path clip-path="url(#pe3d58c4cfb)" d="M 480.094682 175.686084 
L 490.027824 175.487421 
L 499.960966 175.288759 
L 509.894108 175.090096 
L 519.82725 174.891433 
L 529.760393 174.69277 
" style="fill:none;stroke:#ffd700;stroke-linecap:square;stroke-width:2;"/>
   </g>
   <g id="line2d_42">
    <path clip-path="url(#pe3d58c4cfb)" d="M 480.094682 175.686084 
L 490.027824 175.487421 
L 499.959276 175.219412 
L 509.882744 174.743239 
L 519.783147 173.919912 
L 529.630662 172.610838 
" style="fill:none;stroke:#ffd700;stroke-linecap:square;stroke-width:2;"/>
   </g>
   <g id="line2d_43">
    <path clip-path="url(#pe3d58c4cfb)" d="M 480.094682 175.686084 
L 490.027824 175.487421 
L 499.96205 175.358117 
L 509.896622 175.437129 
L 519.822028 175.863941 
L 529.71401 176.778225 
" style="fill:none;stroke:#ffd700;stroke-linecap:square;stroke-width:2;"/>
   </g>
   <g id="line2d_44">
    <path clip-path="url(#pe3d58c4cfb)" d="M 527.416113 159.069778 
L 536.663652 155.443438 
L 545.911191 151.817099 
L 555.15873 148.19076 
L 564.406269 144.564421 
L 573.653808 140.938082 
" style="fill:none;stroke:#ffd700;stroke-linecap:square;stroke-width:2;"/>
   </g>
   <g id="line2d_45">
    <path clip-path="url(#pe3d58c4cfb)" d="M 527.416113 159.069778 
L 536.663652 155.443438 
L 545.885591 151.752644 
L 555.027949 147.869377 
L 564.028451 143.6685 
L 572.811125 139.030356 
" style="fill:none;stroke:#ffd700;stroke-linecap:square;stroke-width:2;"/>
   </g>
   <g id="line2d_46">
    <path clip-path="url(#pe3d58c4cfb)" d="M 527.416113 159.069778 
L 536.663652 155.443438 
L 545.936228 151.881775 
L 555.281271 148.515374 
L 564.738167 145.478349 
L 574.332533 142.910103 
" style="fill:none;stroke:#ffd700;stroke-linecap:square;stroke-width:2;"/>
   </g>
   <g id="line2d_47">
    <path clip-path="url(#pe3d58c4cfb)" d="M 529.630662 172.610838 
L 539.372713 170.679804 
L 548.973097 168.134142 
L 558.437113 165.119379 
L 567.790052 161.774978 
L 577.070983 158.235145 
" style="fill:none;stroke:#ffd700;stroke-linecap:square;stroke-width:2;"/>
   </g>
   <g id="line2d_48">
    <path clip-path="url(#pe3d58c4cfb)" d="M 529.630662 172.610838 
L 539.372713 170.679804 
L 548.953905 168.064996 
L 558.326308 164.779496 
L 567.443038 160.839738 
L 576.258488 156.26543 
" style="fill:none;stroke:#ffd700;stroke-linecap:square;stroke-width:2;"/>
   </g>
   <g id="line2d_49">
    <path clip-path="url(#pe3d58c4cfb)" d="M 429.249175 176.796419 
L 437.931229 181.619115 
L 446.290133 186.983485 
L 454.375517 192.752625 
L 462.254178 198.801525 
L 470.004422 205.0144 
" style="fill:none;stroke:#ffd700;stroke-linecap:square;stroke-width:2;"/>
   </g>
   <g id="line2d_50">
    <path clip-path="url(#pe3d58c4cfb)" d="M 429.249175 176.796419 
L 437.931229 181.619115 
L 446.250682 187.043427 
L 454.165915 193.042221 
L 461.637335 199.585488 
L 468.627565 206.640496 
" style="fill:none;stroke:#ffd700;stroke-linecap:square;stroke-width:2;"/>
   </g>
   <g id="line2d_51">
    <path clip-path="url(#pe3d58c4cfb)" d="M 577.070983 158.235145 
L 586.32703 154.630578 
L 595.583077 151.02601 
L 604.839124 147.421442 
L 614.095171 143.816875 
L 623.351218 140.212307 
" style="fill:none;stroke:#ffd700;stroke-linecap:square;stroke-width:2;"/>
   </g>
   <g id="line2d_52">
    <path clip-path="url(#pe3d58c4cfb)" d="M 577.070983 158.235145 
L 586.32703 154.630578 
L 595.583077 151.02601 
L 604.839124 147.421442 
L 614.095171 143.816875 
L 623.351218 140.212307 
" style="fill:none;stroke:#008000;stroke-linecap:square;stroke-width:3;"/>
   </g>
   <g id="line2d_53">
    <path clip-path="url(#pe3d58c4cfb)" d="M 285.449815 145.137791 
" style="fill:none;stroke:#008000;stroke-linecap:square;stroke-width:3;"/>
   </g>
   <g id="line2d_54">
    <path clip-path="url(#pe3d58c4cfb)" d="M 285.449815 145.137791 
L 295.382958 144.939128 
L 305.317184 144.809823 
L 315.251755 144.888836 
L 325.177162 145.315647 
L 335.069143 146.229931 
" style="fill:none;stroke:#008000;stroke-linecap:square;stroke-width:3;"/>
   </g>
   <g id="line2d_55">
    <path clip-path="url(#pe3d58c4cfb)" d="M 335.069143 146.229931 
L 344.880623 147.769842 
L 354.575126 149.929555 
L 364.15213 152.563446 
L 373.631328 155.531154 
L 383.046392 158.697017 
" style="fill:none;stroke:#008000;stroke-linecap:square;stroke-width:3;"/>
   </g>
   <g id="line2d_56">
    <path clip-path="url(#pe3d58c4cfb)" d="M 383.046392 158.697017 
L 392.439179 161.928559 
L 401.854243 165.094422 
L 411.333441 168.06213 
L 420.910445 170.696021 
L 430.604948 172.855734 
" style="fill:none;stroke:#008000;stroke-linecap:square;stroke-width:3;"/>
   </g>
   <g id="line2d_57">
    <path clip-path="url(#pe3d58c4cfb)" d="M 430.604948 172.855734 
L 440.416428 174.395645 
L 450.306434 175.30972 
L 460.229857 175.736419 
L 470.162442 175.815389 
L 480.094682 175.686084 
" style="fill:none;stroke:#008000;stroke-linecap:square;stroke-width:3;"/>
   </g>
   <g id="line2d_58">
    <path clip-path="url(#pe3d58c4cfb)" d="M 480.094682 175.686084 
L 490.027824 175.487421 
L 499.959276 175.219412 
L 509.882744 174.743239 
L 519.783147 173.919912 
L 529.630662 172.610838 
" style="fill:none;stroke:#008000;stroke-linecap:square;stroke-width:3;"/>
   </g>
   <g id="line2d_59">
    <path clip-path="url(#pe3d58c4cfb)" d="M 529.630662 172.610838 
L 539.372713 170.679804 
L 548.973097 168.134142 
L 558.437113 165.119379 
L 567.790052 161.774978 
L 577.070983 158.235145 
" style="fill:none;stroke:#008000;stroke-linecap:square;stroke-width:3;"/>
   </g>
   <g id="line2d_60">
    <path clip-path="url(#pe3d58c4cfb)" d="M 577.070983 158.235145 
L 586.32703 154.630578 
L 595.583077 151.02601 
L 604.839124 147.421442 
L 614.095171 143.816875 
L 623.351218 140.212307 
" style="fill:none;stroke:#008000;stroke-linecap:square;stroke-width:3;"/>
   </g>
   <g id="line2d_61">
    <path clip-path="url(#pe3d58c4cfb)" d="M 285.449815 145.137791 
" style="fill:none;stroke:#ffd700;stroke-linecap:square;stroke-width:1.5;"/>
    <defs>
     <path d="M 0 4 
C 1.060812 4 2.078319 3.578535 2.828427 2.828427 
C 3.578535 2.078319 4 1.060812 4 0 
C 4 -1.060812 3.578535 -2.078319 2.828427 -2.828427 
C 2.078319 -3.578535 1.060812 -4 0 -4 
C -1.060812 -4 -2.078319 -3.578535 -2.828427 -2.828427 
C -3.578535 -2.078319 -4 -1.060812 -4 0 
C -4 1.060812 -3.578535 2.078319 -2.828427 2.828427 
C -2.078319 3.578535 -1.060812 4 0 4 
z
" id="m19cae7fdab" style="stroke:#ffd700;"/>
    </defs>
    <g clip-path="url(#pe3d58c4cfb)">
     <use style="fill:#ffd700;stroke:#ffd700;" x="285.449815" xlink:href="#m19cae7fdab" y="145.137791"/>
    </g>
   </g>
   <g id="line2d_62">
    <path clip-path="url(#pe3d58c4cfb)" d="M 335.115526 144.144476 
" style="fill:none;stroke:#ffd700;stroke-linecap:square;stroke-width:1.5;"/>
    <g clip-path="url(#pe3d58c4cfb)">
     <use style="fill:#ffd700;stroke:#ffd700;" x="335.115526" xlink:href="#m19cae7fdab" y="144.144476"/>
    </g>
   </g>
   <g id="line2d_63">
    <path clip-path="url(#pe3d58c4cfb)" d="M 334.985795 142.062544 
" style="fill:none;stroke:#ffd700;stroke-linecap:square;stroke-width:1.5;"/>
    <g clip-path="url(#pe3d58c4cfb)">
     <use style="fill:#ffd700;stroke:#ffd700;" x="334.985795" xlink:href="#m19cae7fdab" y="142.062544"/>
    </g>
   </g>
   <g id="line2d_64">
    <path clip-path="url(#pe3d58c4cfb)" d="M 335.069143 146.229931 
" style="fill:none;stroke:#ffd700;stroke-linecap:square;stroke-width:1.5;"/>
    <g clip-path="url(#pe3d58c4cfb)">
     <use style="fill:#ffd700;stroke:#ffd700;" x="335.069143" xlink:href="#m19cae7fdab" y="146.229931"/>
    </g>
   </g>
   <g id="line2d_65">
    <path clip-path="url(#pe3d58c4cfb)" d="M 384.781237 143.151162 
" style="fill:none;stroke:#ffd700;stroke-linecap:square;stroke-width:1.5;"/>
    <g clip-path="url(#pe3d58c4cfb)">
     <use style="fill:#ffd700;stroke:#ffd700;" x="384.781237" xlink:href="#m19cae7fdab" y="143.151162"/>
    </g>
   </g>
   <g id="line2d_66">
    <path clip-path="url(#pe3d58c4cfb)" d="M 384.651506 141.06923 
" style="fill:none;stroke:#ffd700;stroke-linecap:square;stroke-width:1.5;"/>
    <g clip-path="url(#pe3d58c4cfb)">
     <use style="fill:#ffd700;stroke:#ffd700;" x="384.651506" xlink:href="#m19cae7fdab" y="141.06923"/>
    </g>
   </g>
   <g id="line2d_67">
    <path clip-path="url(#pe3d58c4cfb)" d="M 384.734854 145.236617 
" style="fill:none;stroke:#ffd700;stroke-linecap:square;stroke-width:1.5;"/>
    <g clip-path="url(#pe3d58c4cfb)">
     <use style="fill:#ffd700;stroke:#ffd700;" x="384.734854" xlink:href="#m19cae7fdab" y="145.236617"/>
    </g>
   </g>
   <g id="line2d_68">
    <path clip-path="url(#pe3d58c4cfb)" d="M 434.446948 142.157848 
" style="fill:none;stroke:#ffd700;stroke-linecap:square;stroke-width:1.5;"/>
    <g clip-path="url(#pe3d58c4cfb)">
     <use style="fill:#ffd700;stroke:#ffd700;" x="434.446948" xlink:href="#m19cae7fdab" y="142.157848"/>
    </g>
   </g>
   <g id="line2d_69">
    <path clip-path="url(#pe3d58c4cfb)" d="M 434.317217 140.075915 
" style="fill:none;stroke:#ffd700;stroke-linecap:square;stroke-width:1.5;"/>
    <g clip-path="url(#pe3d58c4cfb)">
     <use style="fill:#ffd700;stroke:#ffd700;" x="434.317217" xlink:href="#m19cae7fdab" y="140.075915"/>
    </g>
   </g>
   <g id="line2d_70">
    <path clip-path="url(#pe3d58c4cfb)" d="M 434.400565 144.243303 
" style="fill:none;stroke:#ffd700;stroke-linecap:square;stroke-width:1.5;"/>
    <g clip-path="url(#pe3d58c4cfb)">
     <use style="fill:#ffd700;stroke:#ffd700;" x="434.400565" xlink:href="#m19cae7fdab" y="144.243303"/>
    </g>
   </g>
   <g id="line2d_71">
    <path clip-path="url(#pe3d58c4cfb)" d="M 383.046392 158.697017 
" style="fill:none;stroke:#ffd700;stroke-linecap:square;stroke-width:1.5;"/>
    <g clip-path="url(#pe3d58c4cfb)">
     <use style="fill:#ffd700;stroke:#ffd700;" x="383.046392" xlink:href="#m19cae7fdab" y="158.697017"/>
    </g>
   </g>
   <g id="line2d_72">
    <path clip-path="url(#pe3d58c4cfb)" d="M 382.313314 160.697648 
" style="fill:none;stroke:#ffd700;stroke-linecap:square;stroke-width:1.5;"/>
    <g clip-path="url(#pe3d58c4cfb)">
     <use style="fill:#ffd700;stroke:#ffd700;" x="382.313314" xlink:href="#m19cae7fdab" y="160.697648"/>
    </g>
   </g>
   <g id="line2d_73">
    <path clip-path="url(#pe3d58c4cfb)" d="M 432.712102 157.703703 
" style="fill:none;stroke:#ffd700;stroke-linecap:square;stroke-width:1.5;"/>
    <g clip-path="url(#pe3d58c4cfb)">
     <use style="fill:#ffd700;stroke:#ffd700;" x="432.712102" xlink:href="#m19cae7fdab" y="157.703703"/>
    </g>
   </g>
   <g id="line2d_74">
    <path clip-path="url(#pe3d58c4cfb)" d="M 431.979025 159.704334 
" style="fill:none;stroke:#ffd700;stroke-linecap:square;stroke-width:1.5;"/>
    <g clip-path="url(#pe3d58c4cfb)">
     <use style="fill:#ffd700;stroke:#ffd700;" x="431.979025" xlink:href="#m19cae7fdab" y="159.704334"/>
    </g>
   </g>
   <g id="line2d_75">
    <path clip-path="url(#pe3d58c4cfb)" d="M 382.426117 127.686852 
" style="fill:none;stroke:#ffd700;stroke-linecap:square;stroke-width:1.5;"/>
    <g clip-path="url(#pe3d58c4cfb)">
     <use style="fill:#ffd700;stroke:#ffd700;" x="382.426117" xlink:href="#m19cae7fdab" y="127.686852"/>
    </g>
   </g>
   <g id="line2d_76">
    <path clip-path="url(#pe3d58c4cfb)" d="M 381.613622 125.717136 
" style="fill:none;stroke:#ffd700;stroke-linecap:square;stroke-width:1.5;"/>
    <g clip-path="url(#pe3d58c4cfb)">
     <use style="fill:#ffd700;stroke:#ffd700;" x="381.613622" xlink:href="#m19cae7fdab" y="125.717136"/>
    </g>
   </g>
   <g id="line2d_77">
    <path clip-path="url(#pe3d58c4cfb)" d="M 432.091828 126.693537 
" style="fill:none;stroke:#ffd700;stroke-linecap:square;stroke-width:1.5;"/>
    <g clip-path="url(#pe3d58c4cfb)">
     <use style="fill:#ffd700;stroke:#ffd700;" x="432.091828" xlink:href="#m19cae7fdab" y="126.693537"/>
    </g>
   </g>
   <g id="line2d_78">
    <path clip-path="url(#pe3d58c4cfb)" d="M 431.279332 124.723822 
" style="fill:none;stroke:#ffd700;stroke-linecap:square;stroke-width:1.5;"/>
    <g clip-path="url(#pe3d58c4cfb)">
     <use style="fill:#ffd700;stroke:#ffd700;" x="431.279332" xlink:href="#m19cae7fdab" y="124.723822"/>
    </g>
   </g>
   <g id="line2d_79">
    <path clip-path="url(#pe3d58c4cfb)" d="M 430.010328 174.854724 
" style="fill:none;stroke:#ffd700;stroke-linecap:square;stroke-width:1.5;"/>
    <g clip-path="url(#pe3d58c4cfb)">
     <use style="fill:#ffd700;stroke:#ffd700;" x="430.010328" xlink:href="#m19cae7fdab" y="174.854724"/>
    </g>
   </g>
   <g id="line2d_80">
    <path clip-path="url(#pe3d58c4cfb)" d="M 430.604948 172.855734 
" style="fill:none;stroke:#ffd700;stroke-linecap:square;stroke-width:1.5;"/>
    <g clip-path="url(#pe3d58c4cfb)">
     <use style="fill:#ffd700;stroke:#ffd700;" x="430.604948" xlink:href="#m19cae7fdab" y="172.855734"/>
    </g>
   </g>
   <g id="line2d_81">
    <path clip-path="url(#pe3d58c4cfb)" d="M 429.249175 176.796419 
" style="fill:none;stroke:#ffd700;stroke-linecap:square;stroke-width:1.5;"/>
    <g clip-path="url(#pe3d58c4cfb)">
     <use style="fill:#ffd700;stroke:#ffd700;" x="429.249175" xlink:href="#m19cae7fdab" y="176.796419"/>
    </g>
   </g>
   <g id="line2d_82">
    <path clip-path="url(#pe3d58c4cfb)" d="M 423.002045 189.011457 
" style="fill:none;stroke:#ffd700;stroke-linecap:square;stroke-width:1.5;"/>
    <g clip-path="url(#pe3d58c4cfb)">
     <use style="fill:#ffd700;stroke:#ffd700;" x="423.002045" xlink:href="#m19cae7fdab" y="189.011457"/>
    </g>
   </g>
   <g id="line2d_83">
    <path clip-path="url(#pe3d58c4cfb)" d="M 421.621365 190.634309 
" style="fill:none;stroke:#ffd700;stroke-linecap:square;stroke-width:1.5;"/>
    <g clip-path="url(#pe3d58c4cfb)">
     <use style="fill:#ffd700;stroke:#ffd700;" x="421.621365" xlink:href="#m19cae7fdab" y="190.634309"/>
    </g>
   </g>
   <g id="line2d_84">
    <path clip-path="url(#pe3d58c4cfb)" d="M 428.706351 109.664013 
" style="fill:none;stroke:#ffd700;stroke-linecap:square;stroke-width:1.5;"/>
    <g clip-path="url(#pe3d58c4cfb)">
     <use style="fill:#ffd700;stroke:#ffd700;" x="428.706351" xlink:href="#m19cae7fdab" y="109.664013"/>
    </g>
   </g>
   <g id="line2d_85">
    <path clip-path="url(#pe3d58c4cfb)" d="M 427.86816 107.75431 
" style="fill:none;stroke:#ffd700;stroke-linecap:square;stroke-width:1.5;"/>
    <g clip-path="url(#pe3d58c4cfb)">
     <use style="fill:#ffd700;stroke:#ffd700;" x="427.86816" xlink:href="#m19cae7fdab" y="107.75431"/>
    </g>
   </g>
   <g id="line2d_86">
    <path clip-path="url(#pe3d58c4cfb)" d="M 429.380434 111.637626 
" style="fill:none;stroke:#ffd700;stroke-linecap:square;stroke-width:1.5;"/>
    <g clip-path="url(#pe3d58c4cfb)">
     <use style="fill:#ffd700;stroke:#ffd700;" x="429.380434" xlink:href="#m19cae7fdab" y="111.637626"/>
    </g>
   </g>
   <g id="line2d_87">
    <path clip-path="url(#pe3d58c4cfb)" d="M 478.372062 108.670699 
" style="fill:none;stroke:#ffd700;stroke-linecap:square;stroke-width:1.5;"/>
    <g clip-path="url(#pe3d58c4cfb)">
     <use style="fill:#ffd700;stroke:#ffd700;" x="478.372062" xlink:href="#m19cae7fdab" y="108.670699"/>
    </g>
   </g>
   <g id="line2d_88">
    <path clip-path="url(#pe3d58c4cfb)" d="M 477.533871 106.760995 
" style="fill:none;stroke:#ffd700;stroke-linecap:square;stroke-width:1.5;"/>
    <g clip-path="url(#pe3d58c4cfb)">
     <use style="fill:#ffd700;stroke:#ffd700;" x="477.533871" xlink:href="#m19cae7fdab" y="106.760995"/>
    </g>
   </g>
   <g id="line2d_89">
    <path clip-path="url(#pe3d58c4cfb)" d="M 479.046145 110.644312 
" style="fill:none;stroke:#ffd700;stroke-linecap:square;stroke-width:1.5;"/>
    <g clip-path="url(#pe3d58c4cfb)">
     <use style="fill:#ffd700;stroke:#ffd700;" x="479.046145" xlink:href="#m19cae7fdab" y="110.644312"/>
    </g>
   </g>
   <g id="line2d_90">
    <path clip-path="url(#pe3d58c4cfb)" d="M 421.137556 95.79886 
" style="fill:none;stroke:#ffd700;stroke-linecap:square;stroke-width:1.5;"/>
    <g clip-path="url(#pe3d58c4cfb)">
     <use style="fill:#ffd700;stroke:#ffd700;" x="421.137556" xlink:href="#m19cae7fdab" y="95.79886"/>
    </g>
   </g>
   <g id="line2d_91">
    <path clip-path="url(#pe3d58c4cfb)" d="M 419.693083 94.232519 
" style="fill:none;stroke:#ffd700;stroke-linecap:square;stroke-width:1.5;"/>
    <g clip-path="url(#pe3d58c4cfb)">
     <use style="fill:#ffd700;stroke:#ffd700;" x="419.693083" xlink:href="#m19cae7fdab" y="94.232519"/>
    </g>
   </g>
   <g id="line2d_92">
    <path clip-path="url(#pe3d58c4cfb)" d="M 470.803267 94.805546 
" style="fill:none;stroke:#ffd700;stroke-linecap:square;stroke-width:1.5;"/>
    <g clip-path="url(#pe3d58c4cfb)">
     <use style="fill:#ffd700;stroke:#ffd700;" x="470.803267" xlink:href="#m19cae7fdab" y="94.805546"/>
    </g>
   </g>
   <g id="line2d_93">
    <path clip-path="url(#pe3d58c4cfb)" d="M 469.358794 93.239204 
" style="fill:none;stroke:#ffd700;stroke-linecap:square;stroke-width:1.5;"/>
    <g clip-path="url(#pe3d58c4cfb)">
     <use style="fill:#ffd700;stroke:#ffd700;" x="469.358794" xlink:href="#m19cae7fdab" y="93.239204"/>
    </g>
   </g>
   <g id="line2d_94">
    <path clip-path="url(#pe3d58c4cfb)" d="M 480.094682 175.686084 
" style="fill:none;stroke:#ffd700;stroke-linecap:square;stroke-width:1.5;"/>
    <g clip-path="url(#pe3d58c4cfb)">
     <use style="fill:#ffd700;stroke:#ffd700;" x="480.094682" xlink:href="#m19cae7fdab" y="175.686084"/>
    </g>
   </g>
   <g id="line2d_95">
    <path clip-path="url(#pe3d58c4cfb)" d="M 480.009752 173.557067 
" style="fill:none;stroke:#ffd700;stroke-linecap:square;stroke-width:1.5;"/>
    <g clip-path="url(#pe3d58c4cfb)">
     <use style="fill:#ffd700;stroke:#ffd700;" x="480.009752" xlink:href="#m19cae7fdab" y="173.557067"/>
    </g>
   </g>
   <g id="line2d_96">
    <path clip-path="url(#pe3d58c4cfb)" d="M 476.974265 191.01243 
" style="fill:none;stroke:#ffd700;stroke-linecap:square;stroke-width:1.5;"/>
    <g clip-path="url(#pe3d58c4cfb)">
     <use style="fill:#ffd700;stroke:#ffd700;" x="476.974265" xlink:href="#m19cae7fdab" y="191.01243"/>
    </g>
   </g>
   <g id="line2d_97">
    <path clip-path="url(#pe3d58c4cfb)" d="M 477.568885 189.01344 
" style="fill:none;stroke:#ffd700;stroke-linecap:square;stroke-width:1.5;"/>
    <g clip-path="url(#pe3d58c4cfb)">
     <use style="fill:#ffd700;stroke:#ffd700;" x="477.568885" xlink:href="#m19cae7fdab" y="189.01344"/>
    </g>
   </g>
   <g id="line2d_98">
    <path clip-path="url(#pe3d58c4cfb)" d="M 476.213112 192.954125 
" style="fill:none;stroke:#ffd700;stroke-linecap:square;stroke-width:1.5;"/>
    <g clip-path="url(#pe3d58c4cfb)">
     <use style="fill:#ffd700;stroke:#ffd700;" x="476.213112" xlink:href="#m19cae7fdab" y="192.954125"/>
    </g>
   </g>
   <g id="line2d_99">
    <path clip-path="url(#pe3d58c4cfb)" d="M 527.416113 159.069778 
" style="fill:none;stroke:#ffd700;stroke-linecap:square;stroke-width:1.5;"/>
    <g clip-path="url(#pe3d58c4cfb)">
     <use style="fill:#ffd700;stroke:#ffd700;" x="527.416113" xlink:href="#m19cae7fdab" y="159.069778"/>
    </g>
   </g>
   <g id="line2d_100">
    <path clip-path="url(#pe3d58c4cfb)" d="M 526.598985 157.10198 
" style="fill:none;stroke:#ffd700;stroke-linecap:square;stroke-width:1.5;"/>
    <g clip-path="url(#pe3d58c4cfb)">
     <use style="fill:#ffd700;stroke:#ffd700;" x="526.598985" xlink:href="#m19cae7fdab" y="157.10198"/>
    </g>
   </g>
   <g id="line2d_101">
    <path clip-path="url(#pe3d58c4cfb)" d="M 529.760393 174.69277 
" style="fill:none;stroke:#ffd700;stroke-linecap:square;stroke-width:1.5;"/>
    <g clip-path="url(#pe3d58c4cfb)">
     <use style="fill:#ffd700;stroke:#ffd700;" x="529.760393" xlink:href="#m19cae7fdab" y="174.69277"/>
    </g>
   </g>
   <g id="line2d_102">
    <path clip-path="url(#pe3d58c4cfb)" d="M 529.630662 172.610838 
" style="fill:none;stroke:#ffd700;stroke-linecap:square;stroke-width:1.5;"/>
    <g clip-path="url(#pe3d58c4cfb)">
     <use style="fill:#ffd700;stroke:#ffd700;" x="529.630662" xlink:href="#m19cae7fdab" y="172.610838"/>
    </g>
   </g>
   <g id="line2d_103">
    <path clip-path="url(#pe3d58c4cfb)" d="M 529.71401 176.778225 
" style="fill:none;stroke:#ffd700;stroke-linecap:square;stroke-width:1.5;"/>
    <g clip-path="url(#pe3d58c4cfb)">
     <use style="fill:#ffd700;stroke:#ffd700;" x="529.71401" xlink:href="#m19cae7fdab" y="176.778225"/>
    </g>
   </g>
   <g id="line2d_104">
    <path clip-path="url(#pe3d58c4cfb)" d="M 573.653808 140.938082 
" style="fill:none;stroke:#ffd700;stroke-linecap:square;stroke-width:1.5;"/>
    <g clip-path="url(#pe3d58c4cfb)">
     <use style="fill:#ffd700;stroke:#ffd700;" x="573.653808" xlink:href="#m19cae7fdab" y="140.938082"/>
    </g>
   </g>
   <g id="line2d_105">
    <path clip-path="url(#pe3d58c4cfb)" d="M 572.811125 139.030356 
" style="fill:none;stroke:#ffd700;stroke-linecap:square;stroke-width:1.5;"/>
    <g clip-path="url(#pe3d58c4cfb)">
     <use style="fill:#ffd700;stroke:#ffd700;" x="572.811125" xlink:href="#m19cae7fdab" y="139.030356"/>
    </g>
   </g>
   <g id="line2d_106">
    <path clip-path="url(#pe3d58c4cfb)" d="M 574.332533 142.910103 
" style="fill:none;stroke:#ffd700;stroke-linecap:square;stroke-width:1.5;"/>
    <g clip-path="url(#pe3d58c4cfb)">
     <use style="fill:#ffd700;stroke:#ffd700;" x="574.332533" xlink:href="#m19cae7fdab" y="142.910103"/>
    </g>
   </g>
   <g id="line2d_107">
    <path clip-path="url(#pe3d58c4cfb)" d="M 577.070983 158.235145 
" style="fill:none;stroke:#ffd700;stroke-linecap:square;stroke-width:1.5;"/>
    <g clip-path="url(#pe3d58c4cfb)">
     <use style="fill:#ffd700;stroke:#ffd700;" x="577.070983" xlink:href="#m19cae7fdab" y="158.235145"/>
    </g>
   </g>
   <g id="line2d_108">
    <path clip-path="url(#pe3d58c4cfb)" d="M 576.258488 156.26543 
" style="fill:none;stroke:#ffd700;stroke-linecap:square;stroke-width:1.5;"/>
    <g clip-path="url(#pe3d58c4cfb)">
     <use style="fill:#ffd700;stroke:#ffd700;" x="576.258488" xlink:href="#m19cae7fdab" y="156.26543"/>
    </g>
   </g>
   <g id="line2d_109">
    <path clip-path="url(#pe3d58c4cfb)" d="M 470.004422 205.0144 
" style="fill:none;stroke:#ffd700;stroke-linecap:square;stroke-width:1.5;"/>
    <g clip-path="url(#pe3d58c4cfb)">
     <use style="fill:#ffd700;stroke:#ffd700;" x="470.004422" xlink:href="#m19cae7fdab" y="205.0144"/>
    </g>
   </g>
   <g id="line2d_110">
    <path clip-path="url(#pe3d58c4cfb)" d="M 468.627565 206.640496 
" style="fill:none;stroke:#ffd700;stroke-linecap:square;stroke-width:1.5;"/>
    <g clip-path="url(#pe3d58c4cfb)">
     <use style="fill:#ffd700;stroke:#ffd700;" x="468.627565" xlink:href="#m19cae7fdab" y="206.640496"/>
    </g>
   </g>
   <g id="line2d_111">
    <path clip-path="url(#pe3d58c4cfb)" d="M 623.351218 140.212307 
" style="fill:none;stroke:#ffd700;stroke-linecap:square;stroke-width:1.5;"/>
    <g clip-path="url(#pe3d58c4cfb)">
     <use style="fill:#ffd700;stroke:#ffd700;" x="623.351218" xlink:href="#m19cae7fdab" y="140.212307"/>
    </g>
   </g>
   <g id="line2d_112">
    <path clip-path="url(#pe3d58c4cfb)" d="M 623.351218 140.212307 
" style="fill:none;stroke:#008000;stroke-linecap:square;stroke-width:1.5;"/>
    <defs>
     <path d="M 0 4 
C 1.060812 4 2.078319 3.578535 2.828427 2.828427 
C 3.578535 2.078319 4 1.060812 4 0 
C 4 -1.060812 3.578535 -2.078319 2.828427 -2.828427 
C 2.078319 -3.578535 1.060812 -4 0 -4 
C -1.060812 -4 -2.078319 -3.578535 -2.828427 -2.828427 
C -3.578535 -2.078319 -4 -1.060812 -4 0 
C -4 1.060812 -3.578535 2.078319 -2.828427 2.828427 
C -2.078319 3.578535 -1.060812 4 0 4 
z
" id="ma77c3ccecf" style="stroke:#008000;"/>
    </defs>
    <g clip-path="url(#pe3d58c4cfb)">
     <use style="fill:#008000;stroke:#008000;" x="623.351218" xlink:href="#ma77c3ccecf" y="140.212307"/>
    </g>
   </g>
   <g id="line2d_113">
    <path clip-path="url(#pe3d58c4cfb)" d="M 285.449815 145.137791 
" style="fill:none;stroke:#008000;stroke-linecap:square;stroke-width:1.5;"/>
    <g clip-path="url(#pe3d58c4cfb)">
     <use style="fill:#008000;stroke:#008000;" x="285.449815" xlink:href="#ma77c3ccecf" y="145.137791"/>
    </g>
   </g>
   <g id="line2d_114">
    <path clip-path="url(#pe3d58c4cfb)" d="M 335.069143 146.229931 
" style="fill:none;stroke:#008000;stroke-linecap:square;stroke-width:1.5;"/>
    <g clip-path="url(#pe3d58c4cfb)">
     <use style="fill:#008000;stroke:#008000;" x="335.069143" xlink:href="#ma77c3ccecf" y="146.229931"/>
    </g>
   </g>
   <g id="line2d_115">
    <path clip-path="url(#pe3d58c4cfb)" d="M 383.046392 158.697017 
" style="fill:none;stroke:#008000;stroke-linecap:square;stroke-width:1.5;"/>
    <g clip-path="url(#pe3d58c4cfb)">
     <use style="fill:#008000;stroke:#008000;" x="383.046392" xlink:href="#ma77c3ccecf" y="158.697017"/>
    </g>
   </g>
   <g id="line2d_116">
    <path clip-path="url(#pe3d58c4cfb)" d="M 430.604948 172.855734 
" style="fill:none;stroke:#008000;stroke-linecap:square;stroke-width:1.5;"/>
    <g clip-path="url(#pe3d58c4cfb)">
     <use style="fill:#008000;stroke:#008000;" x="430.604948" xlink:href="#ma77c3ccecf" y="172.855734"/>
    </g>
   </g>
   <g id="line2d_117">
    <path clip-path="url(#pe3d58c4cfb)" d="M 480.094682 175.686084 
" style="fill:none;stroke:#008000;stroke-linecap:square;stroke-width:1.5;"/>
    <g clip-path="url(#pe3d58c4cfb)">
     <use style="fill:#008000;stroke:#008000;" x="480.094682" xlink:href="#ma77c3ccecf" y="175.686084"/>
    </g>
   </g>
   <g id="line2d_118">
    <path clip-path="url(#pe3d58c4cfb)" d="M 529.630662 172.610838 
" style="fill:none;stroke:#008000;stroke-linecap:square;stroke-width:1.5;"/>
    <g clip-path="url(#pe3d58c4cfb)">
     <use style="fill:#008000;stroke:#008000;" x="529.630662" xlink:href="#ma77c3ccecf" y="172.610838"/>
    </g>
   </g>
   <g id="line2d_119">
    <path clip-path="url(#pe3d58c4cfb)" d="M 577.070983 158.235145 
" style="fill:none;stroke:#008000;stroke-linecap:square;stroke-width:1.5;"/>
    <g clip-path="url(#pe3d58c4cfb)">
     <use style="fill:#008000;stroke:#008000;" x="577.070983" xlink:href="#ma77c3ccecf" y="158.235145"/>
    </g>
   </g>
   <g id="line2d_120">
    <path clip-path="url(#pe3d58c4cfb)" d="M 623.351218 140.212307 
" style="fill:none;stroke:#008000;stroke-linecap:square;stroke-width:1.5;"/>
    <g clip-path="url(#pe3d58c4cfb)">
     <use style="fill:#008000;stroke:#008000;" x="623.351218" xlink:href="#ma77c3ccecf" y="140.212307"/>
    </g>
   </g>
  </g>
 </g>
 <defs>
  <clipPath id="pe3d58c4cfb">
   <rect height="277.2" width="722.052" x="7.2" y="7.2"/>
  </clipPath>
 </defs>
</svg>
