<?xml version="1.0" encoding="utf-8" standalone="no"?>
<!DOCTYPE svg PUBLIC "-//W3C//DTD SVG 1.1//EN"
  "http://www.w3.org/Graphics/SVG/1.1/DTD/svg11.dtd">
<!-- Created with matplotlib (https://matplotlib.org/) -->
<svg height="291.6pt" version="1.1" viewBox="0 0 736.452 291.6" width="736.452pt" xmlns="http://www.w3.org/2000/svg" xmlns:xlink="http://www.w3.org/1999/xlink">
 <metadata>
  <rdf:RDF xmlns:cc="http://creativecommons.org/ns#" xmlns:dc="http://purl.org/dc/elements/1.1/" xmlns:rdf="http://www.w3.org/1999/02/22-rdf-syntax-ns#">
   <cc:Work>
    <dc:type rdf:resource="http://purl.org/dc/dcmitype/StillImage"/>
    <dc:date>2022-04-30T17:23:23.320028</dc:date>
    <dc:format>image/svg+xml</dc:format>
    <dc:creator>
     <cc:Agent>
      <dc:title>Matplotlib v3.3.4, https://matplotlib.org/</dc:title>
     </cc:Agent>
    </dc:creator>
   </cc:Work>
  </rdf:RDF>
 </metadata>
 <defs>
  <style type="text/css">*{stroke-linecap:butt;stroke-linejoin:round;}</style>
 </defs>
 <g id="figure_1">
  <g id="patch_1">
   <path d="M 0 291.6 
L 736.452 291.6 
L 736.452 0 
L 0 0 
z
" style="fill:#ffffff;"/>
  </g>
  <g id="axes_1">
   <g id="PolyCollection_1">
    <path clip-path="url(#p849267433a)" d="M -487.127908 256.168246 
L -476.091083 256.168246 
L -465.054258 256.168246 
L -454.017434 256.168246 
L -442.980609 256.168246 
L -431.943785 256.168246 
L -420.90696 256.168246 
L -409.870135 256.168246 
L -398.833311 256.168246 
L -387.796486 256.168246 
L -376.759662 256.168246 
L -365.722837 256.168246 
L -354.686012 256.168246 
L -343.649188 256.168246 
L -332.612363 256.168246 
L -321.575538 256.168246 
L -310.538714 256.168246 
L -299.501889 256.168246 
L -288.465065 256.168246 
L -277.42824 256.168246 
L -266.391415 256.168246 
L -255.354591 256.168246 
L -244.317766 256.168246 
L -233.280942 256.168246 
L -222.244117 256.168246 
L -211.207292 256.168246 
L -200.170468 256.168246 
L -189.133643 256.168246 
L -178.096818 256.168246 
L -167.059994 256.168246 
L -156.023169 256.168246 
L -144.986345 256.168246 
L -133.94952 256.168246 
L -122.912695 256.168246 
L -111.875871 256.168246 
L -100.839046 256.168246 
L -89.802222 256.168246 
L -78.765397 256.168246 
L -67.728572 256.168246 
L -56.691748 256.168246 
L -45.654923 256.168246 
L -34.618098 256.168246 
L -23.581274 256.168246 
L -12.544449 256.168246 
L -1.507625 256.168246 
L 9.5292 256.168246 
L 20.566025 256.168246 
L 31.602849 256.168246 
L 42.639674 256.168246 
L 53.676498 256.168246 
L 64.713323 256.168246 
L 75.750148 256.168246 
L 86.786972 256.168246 
L 97.823797 256.168246 
L 108.860622 256.168246 
L 119.897446 256.168246 
L 130.934271 256.168246 
L 141.971095 256.168246 
L 153.00792 256.168246 
L 164.044745 256.168246 
L 175.081569 256.168246 
L 186.118394 256.168246 
L 197.155218 256.168246 
L 208.192043 256.168246 
L 219.228868 256.168246 
L 230.265692 256.168246 
L 241.302517 256.168246 
L 252.339342 256.168246 
L 263.376166 256.168246 
L 274.412991 256.168246 
L 285.449815 256.168246 
L 296.48664 256.168246 
L 307.523465 256.168246 
L 318.560289 256.168246 
L 329.597114 256.168246 
L 340.633938 256.168246 
L 351.670763 256.168246 
L 362.707588 256.168246 
L 373.744412 256.168246 
L 384.781237 256.168246 
L 395.818062 256.168246 
L 406.854886 256.168246 
L 417.891711 256.168246 
L 428.928535 256.168246 
L 439.96536 256.168246 
L 451.002185 256.168246 
L 462.039009 256.168246 
L 473.075834 256.168246 
L 484.112658 256.168246 
L 495.149483 256.168246 
L 506.186308 256.168246 
L 517.223132 256.168246 
L 528.259957 256.168246 
L 539.296782 256.168246 
L 550.333606 256.168246 
L 561.370431 256.168246 
L 572.407255 256.168246 
L 583.44408 256.168246 
L 594.480905 256.168246 
L 605.517729 256.168246 
L 616.554554 256.168246 
L 627.591378 256.168246 
L 638.628203 256.168246 
L 649.665028 256.168246 
L 660.701852 256.168246 
L 671.738677 256.168246 
L 682.775502 256.168246 
L 693.812326 256.168246 
L 704.849151 256.168246 
L 715.885975 256.168246 
L 726.9228 256.168246 
L 737.959625 256.168246 
L 748.996449 256.168246 
L 760.033274 256.168246 
L 771.070098 256.168246 
L 782.106923 256.168246 
L 793.143748 256.168246 
L 804.180572 256.168246 
L 815.217397 256.168246 
L 826.254222 256.168246 
L 837.291046 256.168246 
L 848.327871 256.168246 
L 859.364695 256.168246 
L 870.40152 256.168246 
L 881.438345 256.168246 
L 892.475169 256.168246 
L 903.511994 256.168246 
L 914.548818 256.168246 
L 925.585643 256.168246 
L 936.622468 256.168246 
L 947.659292 256.168246 
L 958.696117 256.168246 
L 969.732942 256.168246 
L 980.769766 256.168246 
L 991.806591 256.168246 
L 1002.843415 256.168246 
L 1013.88024 256.168246 
L 1024.917065 256.168246 
L 1035.953889 256.168246 
L 1046.990714 256.168246 
L 1058.027538 256.168246 
L 1069.064363 256.168246 
L 1080.101188 256.168246 
L 1091.138012 256.168246 
L 1102.174837 256.168246 
L 1113.211662 256.168246 
L 1124.248486 256.168246 
L 1135.285311 256.168246 
L 1146.322135 256.168246 
L 1157.35896 256.168246 
L 1168.395785 256.168246 
L 1179.432609 256.168246 
L 1190.469434 256.168246 
L 1201.506258 256.168246 
L 1212.543083 256.168246 
L 1223.579908 256.168246 
L 1234.616732 256.168246 
L 1245.653557 256.168246 
L 1256.690382 256.168246 
L 1267.727206 256.168246 
L 1278.764031 256.168246 
L 1289.800855 256.168246 
L 1300.83768 256.168246 
L 1311.874505 256.168246 
L 1322.911329 256.168246 
L 1333.948154 256.168246 
L 1344.984978 256.168246 
L 1356.021803 256.168246 
L 1367.058628 256.168246 
L 1378.095452 256.168246 
L 1389.132277 256.168246 
L 1400.169102 256.168246 
L 1411.205926 256.168246 
L 1422.242751 256.168246 
L 1433.279575 256.168246 
L 1444.3164 256.168246 
L 1455.353225 256.168246 
L 1466.390049 256.168246 
L 1477.426874 256.168246 
L 1488.463698 256.168246 
L 1499.500523 256.168246 
L 1510.537348 256.168246 
L 1521.574172 256.168246 
L 1532.610997 256.168246 
L 1543.647822 256.168246 
L 1554.684646 256.168246 
L 1565.721471 256.168246 
L 1576.758295 256.168246 
L 1587.79512 256.168246 
L 1598.831945 256.168246 
L 1609.868769 256.168246 
L 1620.905594 256.168246 
L 1631.942418 256.168246 
L 1642.979243 256.168246 
L 1654.016068 256.168246 
L 1665.052892 256.168246 
L 1676.089717 256.168246 
L 1687.126542 256.168246 
L 1698.163366 256.168246 
L 1709.200191 256.168246 
L 1720.237015 256.168246 
L 1731.27384 256.168246 
L 1742.310665 256.168246 
L 1753.347489 256.168246 
L 1764.384314 256.168246 
L 1775.421138 256.168246 
L 1786.457963 256.168246 
L 1797.494788 256.168246 
L 1808.531612 256.168246 
L 1819.568437 256.168246 
L 1819.568437 145.8 
L 1808.531612 145.8 
L 1797.494788 145.8 
L 1786.457963 145.8 
L 1775.421138 145.8 
L 1764.384314 145.8 
L 1753.347489 145.8 
L 1742.310665 145.8 
L 1731.27384 145.8 
L 1720.237015 145.8 
L 1709.200191 145.8 
L 1698.163366 145.8 
L 1687.126542 145.8 
L 1676.089717 145.8 
L 1665.052892 145.8 
L 1654.016068 145.8 
L 1642.979243 145.8 
L 1631.942418 145.8 
L 1620.905594 145.8 
L 1609.868769 145.8 
L 1598.831945 145.8 
L 1587.79512 145.8 
L 1576.758295 145.8 
L 1565.721471 145.8 
L 1554.684646 145.8 
L 1543.647822 145.8 
L 1532.610997 145.8 
L 1521.574172 145.8 
L 1510.537348 145.8 
L 1499.500523 145.8 
L 1488.463698 145.8 
L 1477.426874 145.8 
L 1466.390049 145.8 
L 1455.353225 145.8 
L 1444.3164 145.8 
L 1433.279575 145.8 
L 1422.242751 145.8 
L 1411.205926 145.8 
L 1400.169102 145.8 
L 1389.132277 145.8 
L 1378.095452 145.8 
L 1367.058628 145.8 
L 1356.021803 145.8 
L 1344.984978 145.8 
L 1333.948154 145.8 
L 1322.911329 145.8 
L 1311.874505 145.8 
L 1300.83768 145.8 
L 1289.800855 145.8 
L 1278.764031 145.8 
L 1267.727206 145.8 
L 1256.690382 145.8 
L 1245.653557 145.8 
L 1234.616732 145.8 
L 1223.579908 145.8 
L 1212.543083 145.8 
L 1201.506258 145.8 
L 1190.469434 145.8 
L 1179.432609 145.8 
L 1168.395785 145.8 
L 1157.35896 145.8 
L 1146.322135 145.8 
L 1135.285311 145.8 
L 1124.248486 145.8 
L 1113.211662 145.8 
L 1102.174837 145.8 
L 1091.138012 145.8 
L 1080.101188 145.8 
L 1069.064363 145.8 
L 1058.027538 145.8 
L 1046.990714 145.8 
L 1035.953889 145.8 
L 1024.917065 145.8 
L 1013.88024 145.8 
L 1002.843415 145.8 
L 991.806591 145.8 
L 980.769766 145.8 
L 969.732942 145.8 
L 958.696117 145.8 
L 947.659292 145.8 
L 936.622468 145.8 
L 925.585643 145.8 
L 914.548818 145.8 
L 903.511994 145.8 
L 892.475169 145.8 
L 881.438345 145.8 
L 870.40152 145.8 
L 859.364695 145.8 
L 848.327871 145.8 
L 837.291046 145.8 
L 826.254222 145.8 
L 815.217397 145.8 
L 804.180572 145.8 
L 793.143748 145.8 
L 782.106923 145.8 
L 771.070098 145.8 
L 760.033274 145.8 
L 748.996449 145.8 
L 737.959625 145.8 
L 726.9228 145.8 
L 715.885975 145.8 
L 704.849151 145.8 
L 693.812326 145.8 
L 682.775502 145.8 
L 671.738677 145.8 
L 660.701852 145.8 
L 649.665028 145.8 
L 638.628203 145.8 
L 627.591378 145.8 
L 616.554554 145.8 
L 605.517729 145.8 
L 594.480905 145.8 
L 583.44408 145.8 
L 572.407255 145.8 
L 561.370431 145.8 
L 550.333606 145.8 
L 539.296782 145.8 
L 528.259957 145.8 
L 517.223132 145.8 
L 506.186308 145.8 
L 495.149483 145.8 
L 484.112658 145.8 
L 473.075834 145.8 
L 462.039009 145.8 
L 451.002185 145.8 
L 439.96536 145.8 
L 428.928535 145.8 
L 417.891711 145.8 
L 406.854886 145.8 
L 395.818062 145.8 
L 384.781237 145.8 
L 373.744412 145.8 
L 362.707588 145.8 
L 351.670763 145.8 
L 340.633938 145.8 
L 329.597114 145.8 
L 318.560289 145.8 
L 307.523465 145.8 
L 296.48664 145.8 
L 285.449815 145.8 
L 274.412991 145.8 
L 263.376166 145.8 
L 252.339342 145.8 
L 241.302517 145.8 
L 230.265692 145.8 
L 219.228868 145.8 
L 208.192043 145.8 
L 197.155218 145.8 
L 186.118394 145.8 
L 175.081569 145.8 
L 164.044745 145.8 
L 153.00792 145.8 
L 141.971095 145.8 
L 130.934271 145.8 
L 119.897446 145.8 
L 108.860622 145.8 
L 97.823797 145.8 
L 86.786972 145.8 
L 75.750148 145.8 
L 64.713323 145.8 
L 53.676498 145.8 
L 42.639674 145.8 
L 31.602849 145.8 
L 20.566025 145.8 
L 9.5292 145.8 
L -1.507625 145.8 
L -12.544449 145.8 
L -23.581274 145.8 
L -34.618098 145.8 
L -45.654923 145.8 
L -56.691748 145.8 
L -67.728572 145.8 
L -78.765397 145.8 
L -89.802222 145.8 
L -100.839046 145.8 
L -111.875871 145.8 
L -122.912695 145.8 
L -133.94952 145.8 
L -144.986345 145.8 
L -156.023169 145.8 
L -167.059994 145.8 
L -178.096818 145.8 
L -189.133643 145.8 
L -200.170468 145.8 
L -211.207292 145.8 
L -222.244117 145.8 
L -233.280942 145.8 
L -244.317766 145.8 
L -255.354591 145.8 
L -266.391415 145.8 
L -277.42824 145.8 
L -288.465065 145.8 
L -299.501889 145.8 
L -310.538714 145.8 
L -321.575538 145.8 
L -332.612363 145.8 
L -343.649188 145.8 
L -354.686012 145.8 
L -365.722837 145.8 
L -376.759662 145.8 
L -387.796486 145.8 
L -398.833311 145.8 
L -409.870135 145.8 
L -420.90696 145.8 
L -431.943785 145.8 
L -442.980609 145.8 
L -454.017434 145.8 
L -465.054258 145.8 
L -476.091083 145.8 
L -487.127908 145.8 
z
" style="fill:#c7c7c7;"/>
    <path clip-path="url(#p849267433a)" d="M -487.127908 145.8 
L -476.091083 145.8 
L -465.054258 145.8 
L -454.017434 145.8 
L -442.980609 145.8 
L -431.943785 145.8 
L -420.90696 145.8 
L -409.870135 145.8 
L -398.833311 145.8 
L -387.796486 145.8 
L -376.759662 145.8 
L -365.722837 145.8 
L -354.686012 145.8 
L -343.649188 145.8 
L -332.612363 145.8 
L -321.575538 145.8 
L -310.538714 145.8 
L -299.501889 145.8 
L -288.465065 145.8 
L -277.42824 145.8 
L -266.391415 145.8 
L -255.354591 145.8 
L -244.317766 145.8 
L -233.280942 145.8 
L -222.244117 145.8 
L -211.207292 145.8 
L -200.170468 145.8 
L -189.133643 145.8 
L -178.096818 145.8 
L -167.059994 145.8 
L -156.023169 145.8 
L -144.986345 145.8 
L -133.94952 145.8 
L -122.912695 145.8 
L -111.875871 145.8 
L -100.839046 145.8 
L -89.802222 145.8 
L -78.765397 145.8 
L -67.728572 145.8 
L -56.691748 145.8 
L -45.654923 145.8 
L -34.618098 145.8 
L -23.581274 145.8 
L -12.544449 145.8 
L -1.507625 145.8 
L 9.5292 145.8 
L 20.566025 145.8 
L 31.602849 145.8 
L 42.639674 145.8 
L 53.676498 145.8 
L 64.713323 145.8 
L 75.750148 145.8 
L 86.786972 145.8 
L 97.823797 145.8 
L 108.860622 145.8 
L 119.897446 145.8 
L 130.934271 145.8 
L 141.971095 145.8 
L 153.00792 145.8 
L 164.044745 145.8 
L 175.081569 145.8 
L 186.118394 145.8 
L 197.155218 145.8 
L 208.192043 145.8 
L 219.228868 145.8 
L 230.265692 145.8 
L 241.302517 145.8 
L 252.339342 145.8 
L 263.376166 145.8 
L 274.412991 145.8 
L 285.449815 145.8 
L 296.48664 145.8 
L 307.523465 145.8 
L 318.560289 145.8 
L 329.597114 145.8 
L 340.633938 145.8 
L 351.670763 145.8 
L 362.707588 145.8 
L 373.744412 145.8 
L 384.781237 145.8 
L 395.818062 145.8 
L 406.854886 145.8 
L 417.891711 145.8 
L 428.928535 145.8 
L 439.96536 145.8 
L 451.002185 145.8 
L 462.039009 145.8 
L 473.075834 145.8 
L 484.112658 145.8 
L 495.149483 145.8 
L 506.186308 145.8 
L 517.223132 145.8 
L 528.259957 145.8 
L 539.296782 145.8 
L 550.333606 145.8 
L 561.370431 145.8 
L 572.407255 145.8 
L 583.44408 145.8 
L 594.480905 145.8 
L 605.517729 145.8 
L 616.554554 145.8 
L 627.591378 145.8 
L 638.628203 145.8 
L 649.665028 145.8 
L 660.701852 145.8 
L 671.738677 145.8 
L 682.775502 145.8 
L 693.812326 145.8 
L 704.849151 145.8 
L 715.885975 145.8 
L 726.9228 145.8 
L 737.959625 145.8 
L 748.996449 145.8 
L 760.033274 145.8 
L 771.070098 145.8 
L 782.106923 145.8 
L 793.143748 145.8 
L 804.180572 145.8 
L 815.217397 145.8 
L 826.254222 145.8 
L 837.291046 145.8 
L 848.327871 145.8 
L 859.364695 145.8 
L 870.40152 145.8 
L 881.438345 145.8 
L 892.475169 145.8 
L 903.511994 145.8 
L 914.548818 145.8 
L 925.585643 145.8 
L 936.622468 145.8 
L 947.659292 145.8 
L 958.696117 145.8 
L 969.732942 145.8 
L 980.769766 145.8 
L 991.806591 145.8 
L 1002.843415 145.8 
L 1013.88024 145.8 
L 1024.917065 145.8 
L 1035.953889 145.8 
L 1046.990714 145.8 
L 1058.027538 145.8 
L 1069.064363 145.8 
L 1080.101188 145.8 
L 1091.138012 145.8 
L 1102.174837 145.8 
L 1113.211662 145.8 
L 1124.248486 145.8 
L 1135.285311 145.8 
L 1146.322135 145.8 
L 1157.35896 145.8 
L 1168.395785 145.8 
L 1179.432609 145.8 
L 1190.469434 145.8 
L 1201.506258 145.8 
L 1212.543083 145.8 
L 1223.579908 145.8 
L 1234.616732 145.8 
L 1245.653557 145.8 
L 1256.690382 145.8 
L 1267.727206 145.8 
L 1278.764031 145.8 
L 1289.800855 145.8 
L 1300.83768 145.8 
L 1311.874505 145.8 
L 1322.911329 145.8 
L 1333.948154 145.8 
L 1344.984978 145.8 
L 1356.021803 145.8 
L 1367.058628 145.8 
L 1378.095452 145.8 
L 1389.132277 145.8 
L 1400.169102 145.8 
L 1411.205926 145.8 
L 1422.242751 145.8 
L 1433.279575 145.8 
L 1444.3164 145.8 
L 1455.353225 145.8 
L 1466.390049 145.8 
L 1477.426874 145.8 
L 1488.463698 145.8 
L 1499.500523 145.8 
L 1510.537348 145.8 
L 1521.574172 145.8 
L 1532.610997 145.8 
L 1543.647822 145.8 
L 1554.684646 145.8 
L 1565.721471 145.8 
L 1576.758295 145.8 
L 1587.79512 145.8 
L 1598.831945 145.8 
L 1609.868769 145.8 
L 1620.905594 145.8 
L 1631.942418 145.8 
L 1642.979243 145.8 
L 1654.016068 145.8 
L 1665.052892 145.8 
L 1676.089717 145.8 
L 1687.126542 145.8 
L 1698.163366 145.8 
L 1709.200191 145.8 
L 1720.237015 145.8 
L 1731.27384 145.8 
L 1742.310665 145.8 
L 1753.347489 145.8 
L 1764.384314 145.8 
L 1775.421138 145.8 
L 1786.457963 145.8 
L 1797.494788 145.8 
L 1808.531612 145.8 
L 1819.568437 145.8 
L 1819.568437 35.431754 
L 1808.531612 35.431754 
L 1797.494788 35.431754 
L 1786.457963 35.431754 
L 1775.421138 35.431754 
L 1764.384314 35.431754 
L 1753.347489 35.431754 
L 1742.310665 35.431754 
L 1731.27384 35.431754 
L 1720.237015 35.431754 
L 1709.200191 35.431754 
L 1698.163366 35.431754 
L 1687.126542 35.431754 
L 1676.089717 35.431754 
L 1665.052892 35.431754 
L 1654.016068 35.431754 
L 1642.979243 35.431754 
L 1631.942418 35.431754 
L 1620.905594 35.431754 
L 1609.868769 35.431754 
L 1598.831945 35.431754 
L 1587.79512 35.431754 
L 1576.758295 35.431754 
L 1565.721471 35.431754 
L 1554.684646 35.431754 
L 1543.647822 35.431754 
L 1532.610997 35.431754 
L 1521.574172 35.431754 
L 1510.537348 35.431754 
L 1499.500523 35.431754 
L 1488.463698 35.431754 
L 1477.426874 35.431754 
L 1466.390049 35.431754 
L 1455.353225 35.431754 
L 1444.3164 35.431754 
L 1433.279575 35.431754 
L 1422.242751 35.431754 
L 1411.205926 35.431754 
L 1400.169102 35.431754 
L 1389.132277 35.431754 
L 1378.095452 35.431754 
L 1367.058628 35.431754 
L 1356.021803 35.431754 
L 1344.984978 35.431754 
L 1333.948154 35.431754 
L 1322.911329 35.431754 
L 1311.874505 35.431754 
L 1300.83768 35.431754 
L 1289.800855 35.431754 
L 1278.764031 35.431754 
L 1267.727206 35.431754 
L 1256.690382 35.431754 
L 1245.653557 35.431754 
L 1234.616732 35.431754 
L 1223.579908 35.431754 
L 1212.543083 35.431754 
L 1201.506258 35.431754 
L 1190.469434 35.431754 
L 1179.432609 35.431754 
L 1168.395785 35.431754 
L 1157.35896 35.431754 
L 1146.322135 35.431754 
L 1135.285311 35.431754 
L 1124.248486 35.431754 
L 1113.211662 35.431754 
L 1102.174837 35.431754 
L 1091.138012 35.431754 
L 1080.101188 35.431754 
L 1069.064363 35.431754 
L 1058.027538 35.431754 
L 1046.990714 35.431754 
L 1035.953889 35.431754 
L 1024.917065 35.431754 
L 1013.88024 35.431754 
L 1002.843415 35.431754 
L 991.806591 35.431754 
L 980.769766 35.431754 
L 969.732942 35.431754 
L 958.696117 35.431754 
L 947.659292 35.431754 
L 936.622468 35.431754 
L 925.585643 35.431754 
L 914.548818 35.431754 
L 903.511994 35.431754 
L 892.475169 35.431754 
L 881.438345 35.431754 
L 870.40152 35.431754 
L 859.364695 35.431754 
L 848.327871 35.431754 
L 837.291046 35.431754 
L 826.254222 35.431754 
L 815.217397 35.431754 
L 804.180572 35.431754 
L 793.143748 35.431754 
L 782.106923 35.431754 
L 771.070098 35.431754 
L 760.033274 35.431754 
L 748.996449 35.431754 
L 737.959625 35.431754 
L 726.9228 35.431754 
L 715.885975 35.431754 
L 704.849151 35.431754 
L 693.812326 35.431754 
L 682.775502 35.431754 
L 671.738677 35.431754 
L 660.701852 35.431754 
L 649.665028 35.431754 
L 638.628203 35.431754 
L 627.591378 35.431754 
L 616.554554 35.431754 
L 605.517729 35.431754 
L 594.480905 35.431754 
L 583.44408 35.431754 
L 572.407255 35.431754 
L 561.370431 35.431754 
L 550.333606 35.431754 
L 539.296782 35.431754 
L 528.259957 35.431754 
L 517.223132 35.431754 
L 506.186308 35.431754 
L 495.149483 35.431754 
L 484.112658 35.431754 
L 473.075834 35.431754 
L 462.039009 35.431754 
L 451.002185 35.431754 
L 439.96536 35.431754 
L 428.928535 35.431754 
L 417.891711 35.431754 
L 406.854886 35.431754 
L 395.818062 35.431754 
L 384.781237 35.431754 
L 373.744412 35.431754 
L 362.707588 35.431754 
L 351.670763 35.431754 
L 340.633938 35.431754 
L 329.597114 35.431754 
L 318.560289 35.431754 
L 307.523465 35.431754 
L 296.48664 35.431754 
L 285.449815 35.431754 
L 274.412991 35.431754 
L 263.376166 35.431754 
L 252.339342 35.431754 
L 241.302517 35.431754 
L 230.265692 35.431754 
L 219.228868 35.431754 
L 208.192043 35.431754 
L 197.155218 35.431754 
L 186.118394 35.431754 
L 175.081569 35.431754 
L 164.044745 35.431754 
L 153.00792 35.431754 
L 141.971095 35.431754 
L 130.934271 35.431754 
L 119.897446 35.431754 
L 108.860622 35.431754 
L 97.823797 35.431754 
L 86.786972 35.431754 
L 75.750148 35.431754 
L 64.713323 35.431754 
L 53.676498 35.431754 
L 42.639674 35.431754 
L 31.602849 35.431754 
L 20.566025 35.431754 
L 9.5292 35.431754 
L -1.507625 35.431754 
L -12.544449 35.431754 
L -23.581274 35.431754 
L -34.618098 35.431754 
L -45.654923 35.431754 
L -56.691748 35.431754 
L -67.728572 35.431754 
L -78.765397 35.431754 
L -89.802222 35.431754 
L -100.839046 35.431754 
L -111.875871 35.431754 
L -122.912695 35.431754 
L -133.94952 35.431754 
L -144.986345 35.431754 
L -156.023169 35.431754 
L -167.059994 35.431754 
L -178.096818 35.431754 
L -189.133643 35.431754 
L -200.170468 35.431754 
L -211.207292 35.431754 
L -222.244117 35.431754 
L -233.280942 35.431754 
L -244.317766 35.431754 
L -255.354591 35.431754 
L -266.391415 35.431754 
L -277.42824 35.431754 
L -288.465065 35.431754 
L -299.501889 35.431754 
L -310.538714 35.431754 
L -321.575538 35.431754 
L -332.612363 35.431754 
L -343.649188 35.431754 
L -354.686012 35.431754 
L -365.722837 35.431754 
L -376.759662 35.431754 
L -387.796486 35.431754 
L -398.833311 35.431754 
L -409.870135 35.431754 
L -420.90696 35.431754 
L -431.943785 35.431754 
L -442.980609 35.431754 
L -454.017434 35.431754 
L -465.054258 35.431754 
L -476.091083 35.431754 
L -487.127908 35.431754 
z
" style="fill:#c7c7c7;"/>
   </g>
   <g id="PathCollection_1"/>
   <g id="PathCollection_2">
    <path clip-path="url(#p849267433a)" d="M -487.127908 209.261742 
L -470.572671 200.984123 
L -487.127908 192.706505 
z
" style="fill:#dddddd;stroke:#dddddd;stroke-width:0.5;"/>
    <path clip-path="url(#p849267433a)" d="M -487.127908 98.893495 
L -470.572671 90.615877 
L -487.127908 82.338258 
z
" style="fill:#dddddd;stroke:#dddddd;stroke-width:0.5;"/>
   </g>
   <g id="PathCollection_3">
    <path clip-path="url(#p849267433a)" d="M -1 256.168246 
L 737.452 256.168246 
L 737.452 256.168246 
" style="fill:none;stroke:#555555;stroke-width:0.5;"/>
    <path clip-path="url(#p849267433a)" d="M -1 145.8 
L 737.452 145.8 
L 737.452 145.8 
" style="fill:none;stroke:#555555;stroke-width:0.5;"/>
   </g>
   <g id="PathCollection_4">
    <path clip-path="url(#p849267433a)" d="M -1 145.8 
L 737.452 145.8 
L 737.452 145.8 
" style="fill:none;stroke:#555555;stroke-width:0.5;"/>
    <path clip-path="url(#p849267433a)" d="M -1 35.431754 
L 737.452 35.431754 
L 737.452 35.431754 
" style="fill:none;stroke:#555555;stroke-width:0.5;"/>
   </g>
   <g id="PatchCollection_1">
    <path clip-path="url(#p849267433a)" d="M 64.713323 156.101 
C 67.640323 156.101 70.447835 154.93809 72.517537 152.868388 
C 74.587238 150.798687 75.750148 147.991175 75.750148 145.064175 
C 75.750148 142.137175 74.587238 139.329663 72.517537 137.259961 
C 70.447835 135.19026 67.640323 134.02735 64.713323 134.02735 
C 61.786323 134.02735 58.978811 135.19026 56.90911 137.259961 
C 54.839408 139.329663 53.676498 142.137175 53.676498 145.064175 
C 53.676498 147.991175 54.839408 150.798687 56.90911 152.868388 
C 58.978811 154.93809 61.786323 156.101 64.713323 156.101 
z
" style="fill:#008000;stroke:#008000;"/>
    <path clip-path="url(#p849267433a)" d="M 154.093723 143.276329 
L 114.633967 157.312468 
L 114.45739 148.484774 
L 64.801612 149.478022 
L 64.625034 140.650328 
L 114.280812 139.65708 
L 114.104235 130.829386 
z
" style="fill:#008000;stroke:#008000;"/>
    <path clip-path="url(#p849267433a)" d="M 616.554554 165.666284 
L 616.554554 125.933716 
L 671.738677 125.933716 
L 671.738677 165.666284 
z
" style="fill:#f1b514;stroke:#302404;stroke-width:0.5;"/>
    <path clip-path="url(#p849267433a)" d="M 216.58003 134.763175 
L 216.58003 79.579052 
L 247.483139 79.579052 
L 247.483139 134.763175 
z
" style="fill:#d95558;stroke:#831d20;stroke-width:0.5;"/>
    <path clip-path="url(#p849267433a)" d="M 216.58003 256.168246 
L 216.58003 167.873649 
L 247.483139 167.873649 
L 247.483139 256.168246 
z
" style="fill:#d95558;stroke:#831d20;stroke-width:0.5;"/>
    <path clip-path="url(#p849267433a)" d="M 437.316522 90.615877 
L 437.316522 35.431754 
L 468.219631 35.431754 
L 468.219631 90.615877 
z
" style="fill:#d95558;stroke:#831d20;stroke-width:0.5;"/>
    <path clip-path="url(#p849267433a)" d="M 437.316522 173.392062 
L 437.316522 118.207938 
L 468.219631 118.207938 
L 468.219631 173.392062 
z
" style="fill:#d95558;stroke:#831d20;stroke-width:0.5;"/>
    <path clip-path="url(#p849267433a)" d="M 437.316522 256.168246 
L 437.316522 200.984123 
L 468.219631 200.984123 
L 468.219631 256.168246 
z
" style="fill:#d95558;stroke:#831d20;stroke-width:0.5;"/>
    <path clip-path="url(#p849267433a)" d="M 575.27683 106.881013 
L 575.27683 92.00966 
L 595.143114 92.00966 
L 595.143114 106.881013 
z
" style="fill:#d95558;stroke:#831d20;stroke-width:0.5;"/>
    <path clip-path="url(#p849267433a)" d="M 64.713323 150.582587 
C 66.176823 150.582587 67.580579 150.001132 68.61543 148.966282 
C 69.650281 147.931431 70.231735 146.527675 70.231735 145.064175 
C 70.231735 143.600675 69.650281 142.196919 68.61543 141.162068 
C 67.580579 140.127217 66.176823 139.545763 64.713323 139.545763 
C 63.249823 139.545763 61.846067 140.127217 60.811216 141.162068 
C 59.776366 142.196919 59.194911 143.600675 59.194911 145.064175 
C 59.194911 146.527675 59.776366 147.931431 60.811216 148.966282 
C 61.846067 150.001132 63.249823 150.582587 64.713323 150.582587 
z
" style="fill:#1d7eea;stroke:#00478f;stroke-width:0.5;"/>
   </g>
   <g id="line2d_1">
    <path clip-path="url(#p849267433a)" d="M 64.713323 145.064175 
" style="fill:none;stroke:#ffd700;stroke-linecap:square;stroke-width:2;"/>
   </g>
   <g id="line2d_2">
    <path clip-path="url(#p849267433a)" d="M 64.713323 145.064175 
L 74.646465 144.865512 
L 84.579607 144.666849 
L 94.51275 144.468186 
L 104.445892 144.269524 
L 114.379034 144.070861 
" style="fill:none;stroke:#ffd700;stroke-linecap:square;stroke-width:2;"/>
   </g>
   <g id="line2d_3">
    <path clip-path="url(#p849267433a)" d="M 64.713323 145.064175 
L 74.646465 144.865512 
L 84.577918 144.597503 
L 94.501385 144.12133 
L 104.401789 143.298002 
L 114.249303 141.988928 
" style="fill:none;stroke:#ffd700;stroke-linecap:square;stroke-width:2;"/>
   </g>
   <g id="line2d_4">
    <path clip-path="url(#p849267433a)" d="M 64.713323 145.064175 
L 74.646465 144.865512 
L 84.580692 144.736208 
L 94.515263 144.81522 
L 104.440669 145.242031 
L 114.332651 146.156315 
" style="fill:none;stroke:#ffd700;stroke-linecap:square;stroke-width:2;"/>
   </g>
   <g id="line2d_5">
    <path clip-path="url(#p849267433a)" d="M 114.379034 144.070861 
L 124.312176 143.872198 
L 134.245318 143.673535 
L 144.17846 143.474872 
L 154.111602 143.276209 
L 164.044745 143.077546 
" style="fill:none;stroke:#ffd700;stroke-linecap:square;stroke-width:2;"/>
   </g>
   <g id="line2d_6">
    <path clip-path="url(#p849267433a)" d="M 114.379034 144.070861 
L 124.312176 143.872198 
L 134.243628 143.604189 
L 144.167096 143.128016 
L 154.0675 142.304688 
L 163.915014 140.995614 
" style="fill:none;stroke:#ffd700;stroke-linecap:square;stroke-width:2;"/>
   </g>
   <g id="line2d_7">
    <path clip-path="url(#p849267433a)" d="M 114.379034 144.070861 
L 124.312176 143.872198 
L 134.246403 143.742893 
L 144.180974 143.821906 
L 154.10638 144.248717 
L 163.998362 145.163001 
" style="fill:none;stroke:#ffd700;stroke-linecap:square;stroke-width:2;"/>
   </g>
   <g id="line2d_8">
    <path clip-path="url(#p849267433a)" d="M 164.044745 143.077546 
L 173.977887 142.878884 
L 183.911029 142.680221 
L 193.844171 142.481558 
L 203.777313 142.282895 
L 213.710455 142.084232 
" style="fill:none;stroke:#ffd700;stroke-linecap:square;stroke-width:2;"/>
   </g>
   <g id="line2d_9">
    <path clip-path="url(#p849267433a)" d="M 164.044745 143.077546 
L 173.977887 142.878884 
L 183.909339 142.610874 
L 193.832807 142.134701 
L 203.73321 141.311374 
L 213.580725 140.0023 
" style="fill:none;stroke:#ffd700;stroke-linecap:square;stroke-width:2;"/>
   </g>
   <g id="line2d_10">
    <path clip-path="url(#p849267433a)" d="M 164.044745 143.077546 
L 173.977887 142.878884 
L 183.912113 142.749579 
L 193.846685 142.828592 
L 203.772091 143.255403 
L 213.664072 144.169687 
" style="fill:none;stroke:#ffd700;stroke-linecap:square;stroke-width:2;"/>
   </g>
   <g id="line2d_11">
    <path clip-path="url(#p849267433a)" d="M 213.710455 142.084232 
L 223.643598 141.885569 
L 233.57674 141.686907 
L 243.509882 141.488244 
L 253.443024 141.289581 
L 263.376166 141.090918 
" style="fill:none;stroke:#ffd700;stroke-linecap:square;stroke-width:2;"/>
   </g>
   <g id="line2d_12">
    <path clip-path="url(#p849267433a)" d="M 213.710455 142.084232 
L 223.643598 141.885569 
L 233.57505 141.61756 
L 243.498518 141.141387 
L 253.398921 140.31806 
L 263.246435 139.008986 
" style="fill:none;stroke:#ffd700;stroke-linecap:square;stroke-width:2;"/>
   </g>
   <g id="line2d_13">
    <path clip-path="url(#p849267433a)" d="M 213.710455 142.084232 
L 223.643598 141.885569 
L 233.577824 141.756265 
L 243.512395 141.835277 
L 253.437802 142.262088 
L 263.329783 143.176373 
" style="fill:none;stroke:#ffd700;stroke-linecap:square;stroke-width:2;"/>
   </g>
   <g id="line2d_14">
    <path clip-path="url(#p849267433a)" d="M 263.376166 141.090918 
L 273.309308 140.892255 
L 283.24245 140.693592 
L 293.175593 140.49493 
L 303.108735 140.296267 
L 313.041877 140.097604 
" style="fill:none;stroke:#ffd700;stroke-linecap:square;stroke-width:2;"/>
   </g>
   <g id="line2d_15">
    <path clip-path="url(#p849267433a)" d="M 263.376166 141.090918 
L 273.309308 140.892255 
L 283.240761 140.624246 
L 293.164228 140.148073 
L 303.064632 139.324746 
L 312.912146 138.015671 
" style="fill:none;stroke:#ffd700;stroke-linecap:square;stroke-width:2;"/>
   </g>
   <g id="line2d_16">
    <path clip-path="url(#p849267433a)" d="M 263.376166 141.090918 
L 273.309308 140.892255 
L 283.243535 140.762951 
L 293.178106 140.841963 
L 303.103512 141.268774 
L 312.995494 142.183059 
" style="fill:none;stroke:#ffd700;stroke-linecap:square;stroke-width:2;"/>
   </g>
   <g id="line2d_17">
    <path clip-path="url(#p849267433a)" d="M 313.041877 140.097604 
L 322.975019 139.898941 
L 332.908161 139.700278 
L 342.841303 139.501615 
L 352.774446 139.302952 
L 362.707588 139.10429 
" style="fill:none;stroke:#ffd700;stroke-linecap:square;stroke-width:2;"/>
   </g>
   <g id="line2d_18">
    <path clip-path="url(#p849267433a)" d="M 313.041877 140.097604 
L 322.975019 139.898941 
L 332.906472 139.630932 
L 342.829939 139.154759 
L 352.730343 138.331431 
L 362.577857 137.022357 
" style="fill:none;stroke:#ffd700;stroke-linecap:square;stroke-width:2;"/>
   </g>
   <g id="line2d_19">
    <path clip-path="url(#p849267433a)" d="M 313.041877 140.097604 
L 322.975019 139.898941 
L 332.909246 139.769637 
L 342.843817 139.848649 
L 352.769223 140.27546 
L 362.661205 141.189744 
" style="fill:none;stroke:#ffd700;stroke-linecap:square;stroke-width:2;"/>
   </g>
   <g id="line2d_20">
    <path clip-path="url(#p849267433a)" d="M 362.707588 139.10429 
L 372.64073 138.905627 
L 382.573872 138.706964 
L 392.507014 138.508301 
L 402.440156 138.309638 
L 412.373298 138.110975 
" style="fill:none;stroke:#ffd700;stroke-linecap:square;stroke-width:2;"/>
   </g>
   <g id="line2d_21">
    <path clip-path="url(#p849267433a)" d="M 362.707588 139.10429 
L 372.64073 138.905627 
L 382.572182 138.637618 
L 392.49565 138.161444 
L 402.396053 137.338117 
L 412.243568 136.029043 
" style="fill:none;stroke:#ffd700;stroke-linecap:square;stroke-width:2;"/>
   </g>
   <g id="line2d_22">
    <path clip-path="url(#p849267433a)" d="M 362.707588 139.10429 
L 372.64073 138.905627 
L 382.574956 138.776322 
L 392.509528 138.855335 
L 402.434934 139.282146 
L 412.326915 140.19643 
" style="fill:none;stroke:#ffd700;stroke-linecap:square;stroke-width:2;"/>
   </g>
   <g id="line2d_23">
    <path clip-path="url(#p849267433a)" d="M 412.326915 140.19643 
L 422.138395 141.736341 
L 431.832898 143.896054 
L 441.409903 146.529945 
L 450.889101 149.497653 
L 460.304164 152.663516 
" style="fill:none;stroke:#ffd700;stroke-dasharray:7.4,3.2;stroke-dashoffset:0;stroke-width:2;"/>
   </g>
   <g id="line2d_24">
    <path clip-path="url(#p849267433a)" d="M 412.326915 140.19643 
L 422.138395 141.736341 
L 431.816487 143.965912 
L 441.312778 146.873988 
L 450.579764 150.446023 
L 459.571086 154.664147 
" style="fill:none;stroke:#ffd700;stroke-dasharray:7.4,3.2;stroke-dashoffset:0;stroke-width:2;"/>
   </g>
   <g id="line2d_25">
    <path clip-path="url(#p849267433a)" d="M 412.373298 138.110975 
L 422.306441 137.912313 
L 432.239583 137.71365 
L 442.172725 137.514987 
L 452.105867 137.316324 
L 462.039009 137.117661 
" style="fill:none;stroke:#ffd700;stroke-dasharray:7.4,3.2;stroke-dashoffset:0;stroke-width:2;"/>
   </g>
   <g id="line2d_26">
    <path clip-path="url(#p849267433a)" d="M 412.373298 138.110975 
L 422.306441 137.912313 
L 432.237893 137.644303 
L 442.161361 137.16813 
L 452.061764 136.344803 
L 461.909278 135.035729 
" style="fill:none;stroke:#ffd700;stroke-dasharray:7.4,3.2;stroke-dashoffset:0;stroke-width:2;"/>
   </g>
   <g id="line2d_27">
    <path clip-path="url(#p849267433a)" d="M 412.373298 138.110975 
L 422.306441 137.912313 
L 432.240667 137.783008 
L 442.175239 137.86202 
L 452.100645 138.288832 
L 461.992626 139.203116 
" style="fill:none;stroke:#ffd700;stroke-dasharray:7.4,3.2;stroke-dashoffset:0;stroke-width:2;"/>
   </g>
   <g id="line2d_28">
    <path clip-path="url(#p849267433a)" d="M 412.243568 136.029043 
L 421.985619 134.098009 
L 431.586002 131.552347 
L 441.050018 128.537585 
L 450.402957 125.193184 
L 459.683889 121.653351 
" style="fill:none;stroke:#ffd700;stroke-dasharray:7.4,3.2;stroke-dashoffset:0;stroke-width:2;"/>
   </g>
   <g id="line2d_29">
    <path clip-path="url(#p849267433a)" d="M 412.243568 136.029043 
L 421.985619 134.098009 
L 431.566811 131.483202 
L 440.939214 128.197701 
L 450.055944 124.257943 
L 458.871394 119.683635 
" style="fill:none;stroke:#ffd700;stroke-dasharray:7.4,3.2;stroke-dashoffset:0;stroke-width:2;"/>
   </g>
   <g id="line2d_30">
    <path clip-path="url(#p849267433a)" d="M 362.661205 141.189744 
L 372.472684 142.729656 
L 382.167188 144.889368 
L 391.744192 147.523259 
L 401.22339 150.490967 
L 410.638453 153.656831 
" style="fill:none;stroke:#ffd700;stroke-linecap:square;stroke-width:2;"/>
   </g>
   <g id="line2d_31">
    <path clip-path="url(#p849267433a)" d="M 362.661205 141.189744 
L 372.472684 142.729656 
L 382.150776 144.959226 
L 391.647068 147.867302 
L 400.914053 151.439337 
L 409.905376 155.657462 
" style="fill:none;stroke:#ffd700;stroke-linecap:square;stroke-width:2;"/>
   </g>
   <g id="line2d_32">
    <path clip-path="url(#p849267433a)" d="M 410.638453 153.656831 
L 420.031241 156.888372 
L 429.424028 160.119913 
L 438.816815 163.351454 
L 448.209603 166.582996 
L 457.60239 169.814537 
" style="fill:none;stroke:#ffd700;stroke-dasharray:7.4,3.2;stroke-dashoffset:0;stroke-width:2;"/>
   </g>
   <g id="line2d_33">
    <path clip-path="url(#p849267433a)" d="M 410.638453 153.656831 
L 420.031241 156.888372 
L 429.446304 160.054235 
L 438.925502 163.021943 
L 448.502506 165.655835 
L 458.19701 167.815547 
" style="fill:none;stroke:#ffd700;stroke-dasharray:7.4,3.2;stroke-dashoffset:0;stroke-width:2;"/>
   </g>
   <g id="line2d_34">
    <path clip-path="url(#p849267433a)" d="M 410.638453 153.656831 
L 420.031241 156.888372 
L 429.401179 160.185394 
L 438.699759 163.678086 
L 447.870057 167.49411 
L 456.841237 171.756232 
" style="fill:none;stroke:#ffd700;stroke-dasharray:7.4,3.2;stroke-dashoffset:0;stroke-width:2;"/>
   </g>
   <g id="line2d_35">
    <path clip-path="url(#p849267433a)" d="M 409.905376 155.657462 
L 418.576057 160.500575 
L 426.922314 165.884601 
L 434.994099 171.672752 
L 442.858504 177.740175 
L 450.594107 183.97127 
" style="fill:none;stroke:#ffd700;stroke-linecap:square;stroke-width:2;"/>
   </g>
   <g id="line2d_36">
    <path clip-path="url(#p849267433a)" d="M 409.905376 155.657462 
L 418.576057 160.500575 
L 426.882721 165.94445 
L 434.783817 171.961854 
L 442.239818 178.522685 
L 449.213427 185.594123 
" style="fill:none;stroke:#ffd700;stroke-linecap:square;stroke-width:2;"/>
   </g>
   <g id="line2d_37">
    <path clip-path="url(#p849267433a)" d="M 450.594107 183.97127 
L 458.286063 190.256262 
L 465.978019 196.541254 
L 473.669976 202.826246 
L 481.361932 209.111238 
L 489.053888 215.39623 
" style="fill:none;stroke:#ffd700;stroke-linecap:square;stroke-width:2;"/>
   </g>
   <g id="line2d_38">
    <path clip-path="url(#p849267433a)" d="M 450.594107 183.97127 
L 458.286063 190.256262 
L 466.021666 196.487358 
L 473.886071 202.554781 
L 481.957856 208.342932 
L 490.304113 213.726958 
" style="fill:none;stroke:#ffd700;stroke-linecap:square;stroke-width:2;"/>
   </g>
   <g id="line2d_39">
    <path clip-path="url(#p849267433a)" d="M 450.594107 183.97127 
L 458.286063 190.256262 
L 465.933904 196.594767 
L 473.447026 203.092111 
L 480.727811 209.848335 
L 487.667285 216.95407 
" style="fill:none;stroke:#ffd700;stroke-linecap:square;stroke-width:2;"/>
   </g>
   <g id="line2d_40">
    <path clip-path="url(#p849267433a)" d="M 362.577857 137.022357 
L 372.319908 135.091323 
L 381.920292 132.545662 
L 391.384308 129.530899 
L 400.737247 126.186498 
L 410.018178 122.646665 
" style="fill:none;stroke:#ffd700;stroke-linecap:square;stroke-width:2;"/>
   </g>
   <g id="line2d_41">
    <path clip-path="url(#p849267433a)" d="M 362.577857 137.022357 
L 372.319908 135.091323 
L 381.9011 132.476516 
L 391.273503 129.191015 
L 400.390233 125.251257 
L 409.205683 120.67695 
" style="fill:none;stroke:#ffd700;stroke-linecap:square;stroke-width:2;"/>
   </g>
   <g id="line2d_42">
    <path clip-path="url(#p849267433a)" d="M 410.018178 122.646665 
L 419.274225 119.042097 
L 428.530272 115.43753 
L 437.786319 111.832962 
L 447.042366 108.228394 
L 456.298413 104.623827 
" style="fill:none;stroke:#ffd700;stroke-linecap:square;stroke-width:2;"/>
   </g>
   <g id="line2d_43">
    <path clip-path="url(#p849267433a)" d="M 410.018178 122.646665 
L 419.274225 119.042097 
L 428.504823 115.373015 
L 437.656295 111.511272 
L 446.666657 107.331587 
L 455.460222 102.714123 
" style="fill:none;stroke:#ffd700;stroke-linecap:square;stroke-width:2;"/>
   </g>
   <g id="line2d_44">
    <path clip-path="url(#p849267433a)" d="M 410.018178 122.646665 
L 419.274225 119.042097 
L 428.555157 115.502264 
L 437.908096 112.157863 
L 447.372112 109.143101 
L 456.972495 106.597439 
" style="fill:none;stroke:#ffd700;stroke-linecap:square;stroke-width:2;"/>
   </g>
   <g id="line2d_45">
    <path clip-path="url(#p849267433a)" d="M 456.972495 106.597439 
L 466.714547 104.666405 
L 476.560089 103.357566 
L 486.45851 102.534377 
L 496.379993 102.058273 
L 506.309459 101.790291 
" style="fill:none;stroke:#ffd700;stroke-linecap:square;stroke-width:2;"/>
   </g>
   <g id="line2d_46">
    <path clip-path="url(#p849267433a)" d="M 456.972495 106.597439 
L 466.714547 104.666405 
L 476.568723 103.428805 
L 486.485731 102.890829 
L 496.41596 103.055168 
L 506.309735 103.921001 
" style="fill:none;stroke:#ffd700;stroke-linecap:square;stroke-width:2;"/>
   </g>
   <g id="line2d_47">
    <path clip-path="url(#p849267433a)" d="M 506.309735 103.921001 
L 516.117564 105.483997 
L 525.806958 107.666516 
L 535.377738 110.322937 
L 544.849926 113.312944 
L 554.257513 116.500954 
" style="fill:none;stroke:#ffd700;stroke-linecap:square;stroke-width:2;"/>
   </g>
   <g id="line2d_48">
    <path clip-path="url(#p849267433a)" d="M 506.309735 103.921001 
L 516.117564 105.483997 
L 525.790382 107.736336 
L 535.279804 110.666751 
L 544.538358 114.260583 
L 553.51973 118.499854 
" style="fill:none;stroke:#ffd700;stroke-linecap:square;stroke-width:2;"/>
   </g>
   <g id="line2d_49">
    <path clip-path="url(#p849267433a)" d="M 554.257513 116.500954 
L 563.64267 119.754589 
L 573.027827 123.008225 
L 582.412984 126.26186 
L 591.79814 129.515496 
L 601.183297 132.769132 
" style="fill:none;stroke:#ffd700;stroke-linecap:square;stroke-width:2;"/>
   </g>
   <g id="line2d_50">
    <path clip-path="url(#p849267433a)" d="M 554.257513 116.500954 
L 563.64267 119.754589 
L 573.050257 122.942599 
L 582.522445 125.932606 
L 592.093225 128.589027 
L 601.782619 130.771546 
" style="fill:none;stroke:#ffd700;stroke-linecap:square;stroke-width:2;"/>
   </g>
   <g id="line2d_51">
    <path clip-path="url(#p849267433a)" d="M 554.257513 116.500954 
L 563.64267 119.754589 
L 573.004824 123.073652 
L 582.295159 126.588216 
L 591.456452 130.425809 
L 600.417577 134.70903 
" style="fill:none;stroke:#ffd700;stroke-linecap:square;stroke-width:2;"/>
   </g>
   <g id="line2d_52">
    <path clip-path="url(#p849267433a)" d="M 601.183297 132.769132 
L 610.568454 136.022767 
L 619.953611 139.276403 
L 629.338768 142.530038 
L 638.723925 145.783674 
L 648.109081 149.037309 
" style="fill:none;stroke:#ffd700;stroke-linecap:square;stroke-width:2;"/>
   </g>
   <g id="line2d_53">
    <path clip-path="url(#p849267433a)" d="M 601.183297 132.769132 
L 610.568454 136.022767 
L 619.953611 139.276403 
L 629.338768 142.530038 
L 638.723925 145.783674 
L 648.109081 149.037309 
" style="fill:none;stroke:#008000;stroke-linecap:square;stroke-width:3;"/>
   </g>
   <g id="line2d_54">
    <path clip-path="url(#p849267433a)" d="M 64.713323 145.064175 
" style="fill:none;stroke:#008000;stroke-linecap:square;stroke-width:3;"/>
   </g>
   <g id="line2d_55">
    <path clip-path="url(#p849267433a)" d="M 64.713323 145.064175 
L 74.646465 144.865512 
L 84.579607 144.666849 
L 94.51275 144.468186 
L 104.445892 144.269524 
L 114.379034 144.070861 
" style="fill:none;stroke:#008000;stroke-linecap:square;stroke-width:3;"/>
   </g>
   <g id="line2d_56">
    <path clip-path="url(#p849267433a)" d="M 114.379034 144.070861 
L 124.312176 143.872198 
L 134.245318 143.673535 
L 144.17846 143.474872 
L 154.111602 143.276209 
L 164.044745 143.077546 
" style="fill:none;stroke:#008000;stroke-linecap:square;stroke-width:3;"/>
   </g>
   <g id="line2d_57">
    <path clip-path="url(#p849267433a)" d="M 164.044745 143.077546 
L 173.977887 142.878884 
L 183.911029 142.680221 
L 193.844171 142.481558 
L 203.777313 142.282895 
L 213.710455 142.084232 
" style="fill:none;stroke:#008000;stroke-linecap:square;stroke-width:3;"/>
   </g>
   <g id="line2d_58">
    <path clip-path="url(#p849267433a)" d="M 213.710455 142.084232 
L 223.643598 141.885569 
L 233.57674 141.686907 
L 243.509882 141.488244 
L 253.443024 141.289581 
L 263.376166 141.090918 
" style="fill:none;stroke:#008000;stroke-linecap:square;stroke-width:3;"/>
   </g>
   <g id="line2d_59">
    <path clip-path="url(#p849267433a)" d="M 263.376166 141.090918 
L 273.309308 140.892255 
L 283.24245 140.693592 
L 293.175593 140.49493 
L 303.108735 140.296267 
L 313.041877 140.097604 
" style="fill:none;stroke:#008000;stroke-linecap:square;stroke-width:3;"/>
   </g>
   <g id="line2d_60">
    <path clip-path="url(#p849267433a)" d="M 313.041877 140.097604 
L 322.975019 139.898941 
L 332.906472 139.630932 
L 342.829939 139.154759 
L 352.730343 138.331431 
L 362.577857 137.022357 
" style="fill:none;stroke:#008000;stroke-linecap:square;stroke-width:3;"/>
   </g>
   <g id="line2d_61">
    <path clip-path="url(#p849267433a)" d="M 362.577857 137.022357 
L 372.319908 135.091323 
L 381.920292 132.545662 
L 391.384308 129.530899 
L 400.737247 126.186498 
L 410.018178 122.646665 
" style="fill:none;stroke:#008000;stroke-linecap:square;stroke-width:3;"/>
   </g>
   <g id="line2d_62">
    <path clip-path="url(#p849267433a)" d="M 410.018178 122.646665 
L 419.274225 119.042097 
L 428.555157 115.502264 
L 437.908096 112.157863 
L 447.372112 109.143101 
L 456.972495 106.597439 
" style="fill:none;stroke:#008000;stroke-linecap:square;stroke-width:3;"/>
   </g>
   <g id="line2d_63">
    <path clip-path="url(#p849267433a)" d="M 456.972495 106.597439 
L 466.714547 104.666405 
L 476.568723 103.428805 
L 486.485731 102.890829 
L 496.41596 103.055168 
L 506.309735 103.921001 
" style="fill:none;stroke:#008000;stroke-linecap:square;stroke-width:3;"/>
   </g>
   <g id="line2d_64">
    <path clip-path="url(#p849267433a)" d="M 506.309735 103.921001 
L 516.117564 105.483997 
L 525.806958 107.666516 
L 535.377738 110.322937 
L 544.849926 113.312944 
L 554.257513 116.500954 
" style="fill:none;stroke:#008000;stroke-linecap:square;stroke-width:3;"/>
   </g>
   <g id="line2d_65">
    <path clip-path="url(#p849267433a)" d="M 554.257513 116.500954 
L 563.64267 119.754589 
L 573.027827 123.008225 
L 582.412984 126.26186 
L 591.79814 129.515496 
L 601.183297 132.769132 
" style="fill:none;stroke:#008000;stroke-linecap:square;stroke-width:3;"/>
   </g>
   <g id="line2d_66">
    <path clip-path="url(#p849267433a)" d="M 601.183297 132.769132 
L 610.568454 136.022767 
L 619.953611 139.276403 
L 629.338768 142.530038 
L 638.723925 145.783674 
L 648.109081 149.037309 
" style="fill:none;stroke:#008000;stroke-linecap:square;stroke-width:3;"/>
   </g>
   <g id="line2d_67">
    <path clip-path="url(#p849267433a)" d="M 64.713323 145.064175 
" style="fill:none;stroke:#ffd700;stroke-linecap:square;stroke-width:1.5;"/>
    <defs>
     <path d="M 0 4 
C 1.060812 4 2.078319 3.578535 2.828427 2.828427 
C 3.578535 2.078319 4 1.060812 4 0 
C 4 -1.060812 3.578535 -2.078319 2.828427 -2.828427 
C 2.078319 -3.578535 1.060812 -4 0 -4 
C -1.060812 -4 -2.078319 -3.578535 -2.828427 -2.828427 
C -3.578535 -2.078319 -4 -1.060812 -4 0 
C -4 1.060812 -3.578535 2.078319 -2.828427 2.828427 
C -2.078319 3.578535 -1.060812 4 0 4 
z
" id="m1753a9dba2" style="stroke:#ffd700;"/>
    </defs>
    <g clip-path="url(#p849267433a)">
     <use style="fill:#ffd700;stroke:#ffd700;" x="64.713323" xlink:href="#m1753a9dba2" y="145.064175"/>
    </g>
   </g>
   <g id="line2d_68">
    <path clip-path="url(#p849267433a)" d="M 114.379034 144.070861 
" style="fill:none;stroke:#ffd700;stroke-linecap:square;stroke-width:1.5;"/>
    <g clip-path="url(#p849267433a)">
     <use style="fill:#ffd700;stroke:#ffd700;" x="114.379034" xlink:href="#m1753a9dba2" y="144.070861"/>
    </g>
   </g>
   <g id="line2d_69">
    <path clip-path="url(#p849267433a)" d="M 114.249303 141.988928 
" style="fill:none;stroke:#ffd700;stroke-linecap:square;stroke-width:1.5;"/>
    <g clip-path="url(#p849267433a)">
     <use style="fill:#ffd700;stroke:#ffd700;" x="114.249303" xlink:href="#m1753a9dba2" y="141.988928"/>
    </g>
   </g>
   <g id="line2d_70">
    <path clip-path="url(#p849267433a)" d="M 114.332651 146.156315 
" style="fill:none;stroke:#ffd700;stroke-linecap:square;stroke-width:1.5;"/>
    <g clip-path="url(#p849267433a)">
     <use style="fill:#ffd700;stroke:#ffd700;" x="114.332651" xlink:href="#m1753a9dba2" y="146.156315"/>
    </g>
   </g>
   <g id="line2d_71">
    <path clip-path="url(#p849267433a)" d="M 164.044745 143.077546 
" style="fill:none;stroke:#ffd700;stroke-linecap:square;stroke-width:1.5;"/>
    <g clip-path="url(#p849267433a)">
     <use style="fill:#ffd700;stroke:#ffd700;" x="164.044745" xlink:href="#m1753a9dba2" y="143.077546"/>
    </g>
   </g>
   <g id="line2d_72">
    <path clip-path="url(#p849267433a)" d="M 163.915014 140.995614 
" style="fill:none;stroke:#ffd700;stroke-linecap:square;stroke-width:1.5;"/>
    <g clip-path="url(#p849267433a)">
     <use style="fill:#ffd700;stroke:#ffd700;" x="163.915014" xlink:href="#m1753a9dba2" y="140.995614"/>
    </g>
   </g>
   <g id="line2d_73">
    <path clip-path="url(#p849267433a)" d="M 163.998362 145.163001 
" style="fill:none;stroke:#ffd700;stroke-linecap:square;stroke-width:1.5;"/>
    <g clip-path="url(#p849267433a)">
     <use style="fill:#ffd700;stroke:#ffd700;" x="163.998362" xlink:href="#m1753a9dba2" y="145.163001"/>
    </g>
   </g>
   <g id="line2d_74">
    <path clip-path="url(#p849267433a)" d="M 213.710455 142.084232 
" style="fill:none;stroke:#ffd700;stroke-linecap:square;stroke-width:1.5;"/>
    <g clip-path="url(#p849267433a)">
     <use style="fill:#ffd700;stroke:#ffd700;" x="213.710455" xlink:href="#m1753a9dba2" y="142.084232"/>
    </g>
   </g>
   <g id="line2d_75">
    <path clip-path="url(#p849267433a)" d="M 213.580725 140.0023 
" style="fill:none;stroke:#ffd700;stroke-linecap:square;stroke-width:1.5;"/>
    <g clip-path="url(#p849267433a)">
     <use style="fill:#ffd700;stroke:#ffd700;" x="213.580725" xlink:href="#m1753a9dba2" y="140.0023"/>
    </g>
   </g>
   <g id="line2d_76">
    <path clip-path="url(#p849267433a)" d="M 213.664072 144.169687 
" style="fill:none;stroke:#ffd700;stroke-linecap:square;stroke-width:1.5;"/>
    <g clip-path="url(#p849267433a)">
     <use style="fill:#ffd700;stroke:#ffd700;" x="213.664072" xlink:href="#m1753a9dba2" y="144.169687"/>
    </g>
   </g>
   <g id="line2d_77">
    <path clip-path="url(#p849267433a)" d="M 263.376166 141.090918 
" style="fill:none;stroke:#ffd700;stroke-linecap:square;stroke-width:1.5;"/>
    <g clip-path="url(#p849267433a)">
     <use style="fill:#ffd700;stroke:#ffd700;" x="263.376166" xlink:href="#m1753a9dba2" y="141.090918"/>
    </g>
   </g>
   <g id="line2d_78">
    <path clip-path="url(#p849267433a)" d="M 263.246435 139.008986 
" style="fill:none;stroke:#ffd700;stroke-linecap:square;stroke-width:1.5;"/>
    <g clip-path="url(#p849267433a)">
     <use style="fill:#ffd700;stroke:#ffd700;" x="263.246435" xlink:href="#m1753a9dba2" y="139.008986"/>
    </g>
   </g>
   <g id="line2d_79">
    <path clip-path="url(#p849267433a)" d="M 263.329783 143.176373 
" style="fill:none;stroke:#ffd700;stroke-linecap:square;stroke-width:1.5;"/>
    <g clip-path="url(#p849267433a)">
     <use style="fill:#ffd700;stroke:#ffd700;" x="263.329783" xlink:href="#m1753a9dba2" y="143.176373"/>
    </g>
   </g>
   <g id="line2d_80">
    <path clip-path="url(#p849267433a)" d="M 313.041877 140.097604 
" style="fill:none;stroke:#ffd700;stroke-linecap:square;stroke-width:1.5;"/>
    <g clip-path="url(#p849267433a)">
     <use style="fill:#ffd700;stroke:#ffd700;" x="313.041877" xlink:href="#m1753a9dba2" y="140.097604"/>
    </g>
   </g>
   <g id="line2d_81">
    <path clip-path="url(#p849267433a)" d="M 312.912146 138.015671 
" style="fill:none;stroke:#ffd700;stroke-linecap:square;stroke-width:1.5;"/>
    <g clip-path="url(#p849267433a)">
     <use style="fill:#ffd700;stroke:#ffd700;" x="312.912146" xlink:href="#m1753a9dba2" y="138.015671"/>
    </g>
   </g>
   <g id="line2d_82">
    <path clip-path="url(#p849267433a)" d="M 312.995494 142.183059 
" style="fill:none;stroke:#ffd700;stroke-linecap:square;stroke-width:1.5;"/>
    <g clip-path="url(#p849267433a)">
     <use style="fill:#ffd700;stroke:#ffd700;" x="312.995494" xlink:href="#m1753a9dba2" y="142.183059"/>
    </g>
   </g>
   <g id="line2d_83">
    <path clip-path="url(#p849267433a)" d="M 362.707588 139.10429 
" style="fill:none;stroke:#ffd700;stroke-linecap:square;stroke-width:1.5;"/>
    <g clip-path="url(#p849267433a)">
     <use style="fill:#ffd700;stroke:#ffd700;" x="362.707588" xlink:href="#m1753a9dba2" y="139.10429"/>
    </g>
   </g>
   <g id="line2d_84">
    <path clip-path="url(#p849267433a)" d="M 362.577857 137.022357 
" style="fill:none;stroke:#ffd700;stroke-linecap:square;stroke-width:1.5;"/>
    <g clip-path="url(#p849267433a)">
     <use style="fill:#ffd700;stroke:#ffd700;" x="362.577857" xlink:href="#m1753a9dba2" y="137.022357"/>
    </g>
   </g>
   <g id="line2d_85">
    <path clip-path="url(#p849267433a)" d="M 362.661205 141.189744 
" style="fill:none;stroke:#ffd700;stroke-linecap:square;stroke-width:1.5;"/>
    <g clip-path="url(#p849267433a)">
     <use style="fill:#ffd700;stroke:#ffd700;" x="362.661205" xlink:href="#m1753a9dba2" y="141.189744"/>
    </g>
   </g>
   <g id="line2d_86">
    <path clip-path="url(#p849267433a)" d="M 412.373298 138.110975 
" style="fill:none;stroke:#ffd700;stroke-linecap:square;stroke-width:1.5;"/>
    <g clip-path="url(#p849267433a)">
     <use style="fill:#ffd700;stroke:#ffd700;" x="412.373298" xlink:href="#m1753a9dba2" y="138.110975"/>
    </g>
   </g>
   <g id="line2d_87">
    <path clip-path="url(#p849267433a)" d="M 412.243568 136.029043 
" style="fill:none;stroke:#ffd700;stroke-linecap:square;stroke-width:1.5;"/>
    <g clip-path="url(#p849267433a)">
     <use style="fill:#ffd700;stroke:#ffd700;" x="412.243568" xlink:href="#m1753a9dba2" y="136.029043"/>
    </g>
   </g>
   <g id="line2d_88">
    <path clip-path="url(#p849267433a)" d="M 412.326915 140.19643 
" style="fill:none;stroke:#ffd700;stroke-linecap:square;stroke-width:1.5;"/>
    <g clip-path="url(#p849267433a)">
     <use style="fill:#ffd700;stroke:#ffd700;" x="412.326915" xlink:href="#m1753a9dba2" y="140.19643"/>
    </g>
   </g>
   <g id="line2d_89">
    <path clip-path="url(#p849267433a)" d="M 460.304164 152.663516 
" style="fill:none;stroke:#ffd700;stroke-linecap:square;stroke-width:1.5;"/>
    <g clip-path="url(#p849267433a)">
     <use style="fill:#ffd700;stroke:#ffd700;" x="460.304164" xlink:href="#m1753a9dba2" y="152.663516"/>
    </g>
   </g>
   <g id="line2d_90">
    <path clip-path="url(#p849267433a)" d="M 459.571086 154.664147 
" style="fill:none;stroke:#ffd700;stroke-linecap:square;stroke-width:1.5;"/>
    <g clip-path="url(#p849267433a)">
     <use style="fill:#ffd700;stroke:#ffd700;" x="459.571086" xlink:href="#m1753a9dba2" y="154.664147"/>
    </g>
   </g>
   <g id="line2d_91">
    <path clip-path="url(#p849267433a)" d="M 462.039009 137.117661 
" style="fill:none;stroke:#ffd700;stroke-linecap:square;stroke-width:1.5;"/>
    <g clip-path="url(#p849267433a)">
     <use style="fill:#ffd700;stroke:#ffd700;" x="462.039009" xlink:href="#m1753a9dba2" y="137.117661"/>
    </g>
   </g>
   <g id="line2d_92">
    <path clip-path="url(#p849267433a)" d="M 461.909278 135.035729 
" style="fill:none;stroke:#ffd700;stroke-linecap:square;stroke-width:1.5;"/>
    <g clip-path="url(#p849267433a)">
     <use style="fill:#ffd700;stroke:#ffd700;" x="461.909278" xlink:href="#m1753a9dba2" y="135.035729"/>
    </g>
   </g>
   <g id="line2d_93">
    <path clip-path="url(#p849267433a)" d="M 461.992626 139.203116 
" style="fill:none;stroke:#ffd700;stroke-linecap:square;stroke-width:1.5;"/>
    <g clip-path="url(#p849267433a)">
     <use style="fill:#ffd700;stroke:#ffd700;" x="461.992626" xlink:href="#m1753a9dba2" y="139.203116"/>
    </g>
   </g>
   <g id="line2d_94">
    <path clip-path="url(#p849267433a)" d="M 459.683889 121.653351 
" style="fill:none;stroke:#ffd700;stroke-linecap:square;stroke-width:1.5;"/>
    <g clip-path="url(#p849267433a)">
     <use style="fill:#ffd700;stroke:#ffd700;" x="459.683889" xlink:href="#m1753a9dba2" y="121.653351"/>
    </g>
   </g>
   <g id="line2d_95">
    <path clip-path="url(#p849267433a)" d="M 458.871394 119.683635 
" style="fill:none;stroke:#ffd700;stroke-linecap:square;stroke-width:1.5;"/>
    <g clip-path="url(#p849267433a)">
     <use style="fill:#ffd700;stroke:#ffd700;" x="458.871394" xlink:href="#m1753a9dba2" y="119.683635"/>
    </g>
   </g>
   <g id="line2d_96">
    <path clip-path="url(#p849267433a)" d="M 410.638453 153.656831 
" style="fill:none;stroke:#ffd700;stroke-linecap:square;stroke-width:1.5;"/>
    <g clip-path="url(#p849267433a)">
     <use style="fill:#ffd700;stroke:#ffd700;" x="410.638453" xlink:href="#m1753a9dba2" y="153.656831"/>
    </g>
   </g>
   <g id="line2d_97">
    <path clip-path="url(#p849267433a)" d="M 409.905376 155.657462 
" style="fill:none;stroke:#ffd700;stroke-linecap:square;stroke-width:1.5;"/>
    <g clip-path="url(#p849267433a)">
     <use style="fill:#ffd700;stroke:#ffd700;" x="409.905376" xlink:href="#m1753a9dba2" y="155.657462"/>
    </g>
   </g>
   <g id="line2d_98">
    <path clip-path="url(#p849267433a)" d="M 457.60239 169.814537 
" style="fill:none;stroke:#ffd700;stroke-linecap:square;stroke-width:1.5;"/>
    <g clip-path="url(#p849267433a)">
     <use style="fill:#ffd700;stroke:#ffd700;" x="457.60239" xlink:href="#m1753a9dba2" y="169.814537"/>
    </g>
   </g>
   <g id="line2d_99">
    <path clip-path="url(#p849267433a)" d="M 458.19701 167.815547 
" style="fill:none;stroke:#ffd700;stroke-linecap:square;stroke-width:1.5;"/>
    <g clip-path="url(#p849267433a)">
     <use style="fill:#ffd700;stroke:#ffd700;" x="458.19701" xlink:href="#m1753a9dba2" y="167.815547"/>
    </g>
   </g>
   <g id="line2d_100">
    <path clip-path="url(#p849267433a)" d="M 456.841237 171.756232 
" style="fill:none;stroke:#ffd700;stroke-linecap:square;stroke-width:1.5;"/>
    <g clip-path="url(#p849267433a)">
     <use style="fill:#ffd700;stroke:#ffd700;" x="456.841237" xlink:href="#m1753a9dba2" y="171.756232"/>
    </g>
   </g>
   <g id="line2d_101">
    <path clip-path="url(#p849267433a)" d="M 450.594107 183.97127 
" style="fill:none;stroke:#ffd700;stroke-linecap:square;stroke-width:1.5;"/>
    <g clip-path="url(#p849267433a)">
     <use style="fill:#ffd700;stroke:#ffd700;" x="450.594107" xlink:href="#m1753a9dba2" y="183.97127"/>
    </g>
   </g>
   <g id="line2d_102">
    <path clip-path="url(#p849267433a)" d="M 449.213427 185.594123 
" style="fill:none;stroke:#ffd700;stroke-linecap:square;stroke-width:1.5;"/>
    <g clip-path="url(#p849267433a)">
     <use style="fill:#ffd700;stroke:#ffd700;" x="449.213427" xlink:href="#m1753a9dba2" y="185.594123"/>
    </g>
   </g>
   <g id="line2d_103">
    <path clip-path="url(#p849267433a)" d="M 489.053888 215.39623 
" style="fill:none;stroke:#ffd700;stroke-linecap:square;stroke-width:1.5;"/>
    <g clip-path="url(#p849267433a)">
     <use style="fill:#ffd700;stroke:#ffd700;" x="489.053888" xlink:href="#m1753a9dba2" y="215.39623"/>
    </g>
   </g>
   <g id="line2d_104">
    <path clip-path="url(#p849267433a)" d="M 490.304113 213.726958 
" style="fill:none;stroke:#ffd700;stroke-linecap:square;stroke-width:1.5;"/>
    <g clip-path="url(#p849267433a)">
     <use style="fill:#ffd700;stroke:#ffd700;" x="490.304113" xlink:href="#m1753a9dba2" y="213.726958"/>
    </g>
   </g>
   <g id="line2d_105">
    <path clip-path="url(#p849267433a)" d="M 487.667285 216.95407 
" style="fill:none;stroke:#ffd700;stroke-linecap:square;stroke-width:1.5;"/>
    <g clip-path="url(#p849267433a)">
     <use style="fill:#ffd700;stroke:#ffd700;" x="487.667285" xlink:href="#m1753a9dba2" y="216.95407"/>
    </g>
   </g>
   <g id="line2d_106">
    <path clip-path="url(#p849267433a)" d="M 410.018178 122.646665 
" style="fill:none;stroke:#ffd700;stroke-linecap:square;stroke-width:1.5;"/>
    <g clip-path="url(#p849267433a)">
     <use style="fill:#ffd700;stroke:#ffd700;" x="410.018178" xlink:href="#m1753a9dba2" y="122.646665"/>
    </g>
   </g>
   <g id="line2d_107">
    <path clip-path="url(#p849267433a)" d="M 409.205683 120.67695 
" style="fill:none;stroke:#ffd700;stroke-linecap:square;stroke-width:1.5;"/>
    <g clip-path="url(#p849267433a)">
     <use style="fill:#ffd700;stroke:#ffd700;" x="409.205683" xlink:href="#m1753a9dba2" y="120.67695"/>
    </g>
   </g>
   <g id="line2d_108">
    <path clip-path="url(#p849267433a)" d="M 456.298413 104.623827 
" style="fill:none;stroke:#ffd700;stroke-linecap:square;stroke-width:1.5;"/>
    <g clip-path="url(#p849267433a)">
     <use style="fill:#ffd700;stroke:#ffd700;" x="456.298413" xlink:href="#m1753a9dba2" y="104.623827"/>
    </g>
   </g>
   <g id="line2d_109">
    <path clip-path="url(#p849267433a)" d="M 455.460222 102.714123 
" style="fill:none;stroke:#ffd700;stroke-linecap:square;stroke-width:1.5;"/>
    <g clip-path="url(#p849267433a)">
     <use style="fill:#ffd700;stroke:#ffd700;" x="455.460222" xlink:href="#m1753a9dba2" y="102.714123"/>
    </g>
   </g>
   <g id="line2d_110">
    <path clip-path="url(#p849267433a)" d="M 456.972495 106.597439 
" style="fill:none;stroke:#ffd700;stroke-linecap:square;stroke-width:1.5;"/>
    <g clip-path="url(#p849267433a)">
     <use style="fill:#ffd700;stroke:#ffd700;" x="456.972495" xlink:href="#m1753a9dba2" y="106.597439"/>
    </g>
   </g>
   <g id="line2d_111">
    <path clip-path="url(#p849267433a)" d="M 506.309459 101.790291 
" style="fill:none;stroke:#ffd700;stroke-linecap:square;stroke-width:1.5;"/>
    <g clip-path="url(#p849267433a)">
     <use style="fill:#ffd700;stroke:#ffd700;" x="506.309459" xlink:href="#m1753a9dba2" y="101.790291"/>
    </g>
   </g>
   <g id="line2d_112">
    <path clip-path="url(#p849267433a)" d="M 506.309735 103.921001 
" style="fill:none;stroke:#ffd700;stroke-linecap:square;stroke-width:1.5;"/>
    <g clip-path="url(#p849267433a)">
     <use style="fill:#ffd700;stroke:#ffd700;" x="506.309735" xlink:href="#m1753a9dba2" y="103.921001"/>
    </g>
   </g>
   <g id="line2d_113">
    <path clip-path="url(#p849267433a)" d="M 554.257513 116.500954 
" style="fill:none;stroke:#ffd700;stroke-linecap:square;stroke-width:1.5;"/>
    <g clip-path="url(#p849267433a)">
     <use style="fill:#ffd700;stroke:#ffd700;" x="554.257513" xlink:href="#m1753a9dba2" y="116.500954"/>
    </g>
   </g>
   <g id="line2d_114">
    <path clip-path="url(#p849267433a)" d="M 553.51973 118.499854 
" style="fill:none;stroke:#ffd700;stroke-linecap:square;stroke-width:1.5;"/>
    <g clip-path="url(#p849267433a)">
     <use style="fill:#ffd700;stroke:#ffd700;" x="553.51973" xlink:href="#m1753a9dba2" y="118.499854"/>
    </g>
   </g>
   <g id="line2d_115">
    <path clip-path="url(#p849267433a)" d="M 601.183297 132.769132 
" style="fill:none;stroke:#ffd700;stroke-linecap:square;stroke-width:1.5;"/>
    <g clip-path="url(#p849267433a)">
     <use style="fill:#ffd700;stroke:#ffd700;" x="601.183297" xlink:href="#m1753a9dba2" y="132.769132"/>
    </g>
   </g>
   <g id="line2d_116">
    <path clip-path="url(#p849267433a)" d="M 601.782619 130.771546 
" style="fill:none;stroke:#ffd700;stroke-linecap:square;stroke-width:1.5;"/>
    <g clip-path="url(#p849267433a)">
     <use style="fill:#ffd700;stroke:#ffd700;" x="601.782619" xlink:href="#m1753a9dba2" y="130.771546"/>
    </g>
   </g>
   <g id="line2d_117">
    <path clip-path="url(#p849267433a)" d="M 600.417577 134.70903 
" style="fill:none;stroke:#ffd700;stroke-linecap:square;stroke-width:1.5;"/>
    <g clip-path="url(#p849267433a)">
     <use style="fill:#ffd700;stroke:#ffd700;" x="600.417577" xlink:href="#m1753a9dba2" y="134.70903"/>
    </g>
   </g>
   <g id="line2d_118">
    <path clip-path="url(#p849267433a)" d="M 648.109081 149.037309 
" style="fill:none;stroke:#ffd700;stroke-linecap:square;stroke-width:1.5;"/>
    <g clip-path="url(#p849267433a)">
     <use style="fill:#ffd700;stroke:#ffd700;" x="648.109081" xlink:href="#m1753a9dba2" y="149.037309"/>
    </g>
   </g>
   <g id="line2d_119">
    <path clip-path="url(#p849267433a)" d="M 648.109081 149.037309 
" style="fill:none;stroke:#008000;stroke-linecap:square;stroke-width:1.5;"/>
    <defs>
     <path d="M 0 4 
C 1.060812 4 2.078319 3.578535 2.828427 2.828427 
C 3.578535 2.078319 4 1.060812 4 0 
C 4 -1.060812 3.578535 -2.078319 2.828427 -2.828427 
C 2.078319 -3.578535 1.060812 -4 0 -4 
C -1.060812 -4 -2.078319 -3.578535 -2.828427 -2.828427 
C -3.578535 -2.078319 -4 -1.060812 -4 0 
C -4 1.060812 -3.578535 2.078319 -2.828427 2.828427 
C -2.078319 3.578535 -1.060812 4 0 4 
z
" id="m43c1f46c2b" style="stroke:#008000;"/>
    </defs>
    <g clip-path="url(#p849267433a)">
     <use style="fill:#008000;stroke:#008000;" x="648.109081" xlink:href="#m43c1f46c2b" y="149.037309"/>
    </g>
   </g>
   <g id="line2d_120">
    <path clip-path="url(#p849267433a)" d="M 64.713323 145.064175 
" style="fill:none;stroke:#008000;stroke-linecap:square;stroke-width:1.5;"/>
    <g clip-path="url(#p849267433a)">
     <use style="fill:#008000;stroke:#008000;" x="64.713323" xlink:href="#m43c1f46c2b" y="145.064175"/>
    </g>
   </g>
   <g id="line2d_121">
    <path clip-path="url(#p849267433a)" d="M 114.379034 144.070861 
" style="fill:none;stroke:#008000;stroke-linecap:square;stroke-width:1.5;"/>
    <g clip-path="url(#p849267433a)">
     <use style="fill:#008000;stroke:#008000;" x="114.379034" xlink:href="#m43c1f46c2b" y="144.070861"/>
    </g>
   </g>
   <g id="line2d_122">
    <path clip-path="url(#p849267433a)" d="M 164.044745 143.077546 
" style="fill:none;stroke:#008000;stroke-linecap:square;stroke-width:1.5;"/>
    <g clip-path="url(#p849267433a)">
     <use style="fill:#008000;stroke:#008000;" x="164.044745" xlink:href="#m43c1f46c2b" y="143.077546"/>
    </g>
   </g>
   <g id="line2d_123">
    <path clip-path="url(#p849267433a)" d="M 213.710455 142.084232 
" style="fill:none;stroke:#008000;stroke-linecap:square;stroke-width:1.5;"/>
    <g clip-path="url(#p849267433a)">
     <use style="fill:#008000;stroke:#008000;" x="213.710455" xlink:href="#m43c1f46c2b" y="142.084232"/>
    </g>
   </g>
   <g id="line2d_124">
    <path clip-path="url(#p849267433a)" d="M 263.376166 141.090918 
" style="fill:none;stroke:#008000;stroke-linecap:square;stroke-width:1.5;"/>
    <g clip-path="url(#p849267433a)">
     <use style="fill:#008000;stroke:#008000;" x="263.376166" xlink:href="#m43c1f46c2b" y="141.090918"/>
    </g>
   </g>
   <g id="line2d_125">
    <path clip-path="url(#p849267433a)" d="M 313.041877 140.097604 
" style="fill:none;stroke:#008000;stroke-linecap:square;stroke-width:1.5;"/>
    <g clip-path="url(#p849267433a)">
     <use style="fill:#008000;stroke:#008000;" x="313.041877" xlink:href="#m43c1f46c2b" y="140.097604"/>
    </g>
   </g>
   <g id="line2d_126">
    <path clip-path="url(#p849267433a)" d="M 362.577857 137.022357 
" style="fill:none;stroke:#008000;stroke-linecap:square;stroke-width:1.5;"/>
    <g clip-path="url(#p849267433a)">
     <use style="fill:#008000;stroke:#008000;" x="362.577857" xlink:href="#m43c1f46c2b" y="137.022357"/>
    </g>
   </g>
   <g id="line2d_127">
    <path clip-path="url(#p849267433a)" d="M 410.018178 122.646665 
" style="fill:none;stroke:#008000;stroke-linecap:square;stroke-width:1.5;"/>
    <g clip-path="url(#p849267433a)">
     <use style="fill:#008000;stroke:#008000;" x="410.018178" xlink:href="#m43c1f46c2b" y="122.646665"/>
    </g>
   </g>
   <g id="line2d_128">
    <path clip-path="url(#p849267433a)" d="M 456.972495 106.597439 
" style="fill:none;stroke:#008000;stroke-linecap:square;stroke-width:1.5;"/>
    <g clip-path="url(#p849267433a)">
     <use style="fill:#008000;stroke:#008000;" x="456.972495" xlink:href="#m43c1f46c2b" y="106.597439"/>
    </g>
   </g>
   <g id="line2d_129">
    <path clip-path="url(#p849267433a)" d="M 506.309735 103.921001 
" style="fill:none;stroke:#008000;stroke-linecap:square;stroke-width:1.5;"/>
    <g clip-path="url(#p849267433a)">
     <use style="fill:#008000;stroke:#008000;" x="506.309735" xlink:href="#m43c1f46c2b" y="103.921001"/>
    </g>
   </g>
   <g id="line2d_130">
    <path clip-path="url(#p849267433a)" d="M 554.257513 116.500954 
" style="fill:none;stroke:#008000;stroke-linecap:square;stroke-width:1.5;"/>
    <g clip-path="url(#p849267433a)">
     <use style="fill:#008000;stroke:#008000;" x="554.257513" xlink:href="#m43c1f46c2b" y="116.500954"/>
    </g>
   </g>
   <g id="line2d_131">
    <path clip-path="url(#p849267433a)" d="M 601.183297 132.769132 
" style="fill:none;stroke:#008000;stroke-linecap:square;stroke-width:1.5;"/>
    <g clip-path="url(#p849267433a)">
     <use style="fill:#008000;stroke:#008000;" x="601.183297" xlink:href="#m43c1f46c2b" y="132.769132"/>
    </g>
   </g>
   <g id="line2d_132">
    <path clip-path="url(#p849267433a)" d="M 648.109081 149.037309 
" style="fill:none;stroke:#008000;stroke-linecap:square;stroke-width:1.5;"/>
    <g clip-path="url(#p849267433a)">
     <use style="fill:#008000;stroke:#008000;" x="648.109081" xlink:href="#m43c1f46c2b" y="149.037309"/>
    </g>
   </g>
  </g>
 </g>
 <defs>
  <clipPath id="p849267433a">
   <rect height="277.2" width="722.052" x="7.2" y="7.2"/>
  </clipPath>
 </defs>
</svg>
