<?xml version="1.0" encoding="utf-8" standalone="no"?>
<!DOCTYPE svg PUBLIC "-//W3C//DTD SVG 1.1//EN"
  "http://www.w3.org/Graphics/SVG/1.1/DTD/svg11.dtd">
<!-- Created with matplotlib (https://matplotlib.org/) -->
<svg height="291.6pt" version="1.1" viewBox="0 0 736.452 291.6" width="736.452pt" xmlns="http://www.w3.org/2000/svg" xmlns:xlink="http://www.w3.org/1999/xlink">
 <metadata>
  <rdf:RDF xmlns:cc="http://creativecommons.org/ns#" xmlns:dc="http://purl.org/dc/elements/1.1/" xmlns:rdf="http://www.w3.org/1999/02/22-rdf-syntax-ns#">
   <cc:Work>
    <dc:type rdf:resource="http://purl.org/dc/dcmitype/StillImage"/>
    <dc:date>2022-04-30T17:26:54.496608</dc:date>
    <dc:format>image/svg+xml</dc:format>
    <dc:creator>
     <cc:Agent>
      <dc:title>Matplotlib v3.3.4, https://matplotlib.org/</dc:title>
     </cc:Agent>
    </dc:creator>
   </cc:Work>
  </rdf:RDF>
 </metadata>
 <defs>
  <style type="text/css">*{stroke-linecap:butt;stroke-linejoin:round;}</style>
 </defs>
 <g id="figure_1">
  <g id="patch_1">
   <path d="M 0 291.6 
L 736.452 291.6 
L 736.452 0 
L 0 0 
z
" style="fill:#ffffff;"/>
  </g>
  <g id="axes_1">
   <g id="PolyCollection_1">
    <path clip-path="url(#pe393b341b1)" d="M -487.127908 256.168246 
L -476.091083 256.168246 
L -465.054258 256.168246 
L -454.017434 256.168246 
L -442.980609 256.168246 
L -431.943785 256.168246 
L -420.90696 256.168246 
L -409.870135 256.168246 
L -398.833311 256.168246 
L -387.796486 256.168246 
L -376.759662 256.168246 
L -365.722837 256.168246 
L -354.686012 256.168246 
L -343.649188 256.168246 
L -332.612363 256.168246 
L -321.575538 256.168246 
L -310.538714 256.168246 
L -299.501889 256.168246 
L -288.465065 256.168246 
L -277.42824 256.168246 
L -266.391415 256.168246 
L -255.354591 256.168246 
L -244.317766 256.168246 
L -233.280942 256.168246 
L -222.244117 256.168246 
L -211.207292 256.168246 
L -200.170468 256.168246 
L -189.133643 256.168246 
L -178.096818 256.168246 
L -167.059994 256.168246 
L -156.023169 256.168246 
L -144.986345 256.168246 
L -133.94952 256.168246 
L -122.912695 256.168246 
L -111.875871 256.168246 
L -100.839046 256.168246 
L -89.802222 256.168246 
L -78.765397 256.168246 
L -67.728572 256.168246 
L -56.691748 256.168246 
L -45.654923 256.168246 
L -34.618098 256.168246 
L -23.581274 256.168246 
L -12.544449 256.168246 
L -1.507625 256.168246 
L 9.5292 256.168246 
L 20.566025 256.168246 
L 31.602849 256.168246 
L 42.639674 256.168246 
L 53.676498 256.168246 
L 64.713323 256.168246 
L 75.750148 256.168246 
L 86.786972 256.168246 
L 97.823797 256.168246 
L 108.860622 256.168246 
L 119.897446 256.168246 
L 130.934271 256.168246 
L 141.971095 256.168246 
L 153.00792 256.168246 
L 164.044745 256.168246 
L 175.081569 256.168246 
L 186.118394 256.168246 
L 197.155218 256.168246 
L 208.192043 256.168246 
L 219.228868 256.168246 
L 230.265692 256.168246 
L 241.302517 256.168246 
L 252.339342 256.168246 
L 263.376166 256.168246 
L 274.412991 256.168246 
L 285.449815 256.168246 
L 296.48664 256.168246 
L 307.523465 256.168246 
L 318.560289 256.168246 
L 329.597114 256.168246 
L 340.633938 256.168246 
L 351.670763 256.168246 
L 362.707588 256.168246 
L 373.744412 256.168246 
L 384.781237 256.168246 
L 395.818062 256.168246 
L 406.854886 256.168246 
L 417.891711 256.168246 
L 428.928535 256.168246 
L 439.96536 256.168246 
L 451.002185 256.168246 
L 462.039009 256.168246 
L 473.075834 256.168246 
L 484.112658 256.168246 
L 495.149483 256.168246 
L 506.186308 256.168246 
L 517.223132 256.168246 
L 528.259957 256.168246 
L 539.296782 256.168246 
L 550.333606 256.168246 
L 561.370431 256.168246 
L 572.407255 256.168246 
L 583.44408 256.168246 
L 594.480905 256.168246 
L 605.517729 256.168246 
L 616.554554 256.168246 
L 627.591378 256.168246 
L 638.628203 256.168246 
L 649.665028 256.168246 
L 660.701852 256.168246 
L 671.738677 256.168246 
L 682.775502 256.168246 
L 693.812326 256.168246 
L 704.849151 256.168246 
L 715.885975 256.168246 
L 726.9228 256.168246 
L 737.959625 256.168246 
L 748.996449 256.168246 
L 760.033274 256.168246 
L 771.070098 256.168246 
L 782.106923 256.168246 
L 793.143748 256.168246 
L 804.180572 256.168246 
L 815.217397 256.168246 
L 826.254222 256.168246 
L 837.291046 256.168246 
L 848.327871 256.168246 
L 859.364695 256.168246 
L 870.40152 256.168246 
L 881.438345 256.168246 
L 892.475169 256.168246 
L 903.511994 256.168246 
L 914.548818 256.168246 
L 925.585643 256.168246 
L 936.622468 256.168246 
L 947.659292 256.168246 
L 958.696117 256.168246 
L 969.732942 256.168246 
L 980.769766 256.168246 
L 991.806591 256.168246 
L 1002.843415 256.168246 
L 1013.88024 256.168246 
L 1024.917065 256.168246 
L 1035.953889 256.168246 
L 1046.990714 256.168246 
L 1058.027538 256.168246 
L 1069.064363 256.168246 
L 1080.101188 256.168246 
L 1091.138012 256.168246 
L 1102.174837 256.168246 
L 1113.211662 256.168246 
L 1124.248486 256.168246 
L 1135.285311 256.168246 
L 1146.322135 256.168246 
L 1157.35896 256.168246 
L 1168.395785 256.168246 
L 1179.432609 256.168246 
L 1190.469434 256.168246 
L 1201.506258 256.168246 
L 1212.543083 256.168246 
L 1223.579908 256.168246 
L 1234.616732 256.168246 
L 1245.653557 256.168246 
L 1256.690382 256.168246 
L 1267.727206 256.168246 
L 1278.764031 256.168246 
L 1289.800855 256.168246 
L 1300.83768 256.168246 
L 1311.874505 256.168246 
L 1322.911329 256.168246 
L 1333.948154 256.168246 
L 1344.984978 256.168246 
L 1356.021803 256.168246 
L 1367.058628 256.168246 
L 1378.095452 256.168246 
L 1389.132277 256.168246 
L 1400.169102 256.168246 
L 1411.205926 256.168246 
L 1422.242751 256.168246 
L 1433.279575 256.168246 
L 1444.3164 256.168246 
L 1455.353225 256.168246 
L 1466.390049 256.168246 
L 1477.426874 256.168246 
L 1488.463698 256.168246 
L 1499.500523 256.168246 
L 1510.537348 256.168246 
L 1521.574172 256.168246 
L 1532.610997 256.168246 
L 1543.647822 256.168246 
L 1554.684646 256.168246 
L 1565.721471 256.168246 
L 1576.758295 256.168246 
L 1587.79512 256.168246 
L 1598.831945 256.168246 
L 1609.868769 256.168246 
L 1620.905594 256.168246 
L 1631.942418 256.168246 
L 1642.979243 256.168246 
L 1654.016068 256.168246 
L 1665.052892 256.168246 
L 1676.089717 256.168246 
L 1687.126542 256.168246 
L 1698.163366 256.168246 
L 1709.200191 256.168246 
L 1720.237015 256.168246 
L 1731.27384 256.168246 
L 1742.310665 256.168246 
L 1753.347489 256.168246 
L 1764.384314 256.168246 
L 1775.421138 256.168246 
L 1786.457963 256.168246 
L 1797.494788 256.168246 
L 1808.531612 256.168246 
L 1819.568437 256.168246 
L 1819.568437 145.8 
L 1808.531612 145.8 
L 1797.494788 145.8 
L 1786.457963 145.8 
L 1775.421138 145.8 
L 1764.384314 145.8 
L 1753.347489 145.8 
L 1742.310665 145.8 
L 1731.27384 145.8 
L 1720.237015 145.8 
L 1709.200191 145.8 
L 1698.163366 145.8 
L 1687.126542 145.8 
L 1676.089717 145.8 
L 1665.052892 145.8 
L 1654.016068 145.8 
L 1642.979243 145.8 
L 1631.942418 145.8 
L 1620.905594 145.8 
L 1609.868769 145.8 
L 1598.831945 145.8 
L 1587.79512 145.8 
L 1576.758295 145.8 
L 1565.721471 145.8 
L 1554.684646 145.8 
L 1543.647822 145.8 
L 1532.610997 145.8 
L 1521.574172 145.8 
L 1510.537348 145.8 
L 1499.500523 145.8 
L 1488.463698 145.8 
L 1477.426874 145.8 
L 1466.390049 145.8 
L 1455.353225 145.8 
L 1444.3164 145.8 
L 1433.279575 145.8 
L 1422.242751 145.8 
L 1411.205926 145.8 
L 1400.169102 145.8 
L 1389.132277 145.8 
L 1378.095452 145.8 
L 1367.058628 145.8 
L 1356.021803 145.8 
L 1344.984978 145.8 
L 1333.948154 145.8 
L 1322.911329 145.8 
L 1311.874505 145.8 
L 1300.83768 145.8 
L 1289.800855 145.8 
L 1278.764031 145.8 
L 1267.727206 145.8 
L 1256.690382 145.8 
L 1245.653557 145.8 
L 1234.616732 145.8 
L 1223.579908 145.8 
L 1212.543083 145.8 
L 1201.506258 145.8 
L 1190.469434 145.8 
L 1179.432609 145.8 
L 1168.395785 145.8 
L 1157.35896 145.8 
L 1146.322135 145.8 
L 1135.285311 145.8 
L 1124.248486 145.8 
L 1113.211662 145.8 
L 1102.174837 145.8 
L 1091.138012 145.8 
L 1080.101188 145.8 
L 1069.064363 145.8 
L 1058.027538 145.8 
L 1046.990714 145.8 
L 1035.953889 145.8 
L 1024.917065 145.8 
L 1013.88024 145.8 
L 1002.843415 145.8 
L 991.806591 145.8 
L 980.769766 145.8 
L 969.732942 145.8 
L 958.696117 145.8 
L 947.659292 145.8 
L 936.622468 145.8 
L 925.585643 145.8 
L 914.548818 145.8 
L 903.511994 145.8 
L 892.475169 145.8 
L 881.438345 145.8 
L 870.40152 145.8 
L 859.364695 145.8 
L 848.327871 145.8 
L 837.291046 145.8 
L 826.254222 145.8 
L 815.217397 145.8 
L 804.180572 145.8 
L 793.143748 145.8 
L 782.106923 145.8 
L 771.070098 145.8 
L 760.033274 145.8 
L 748.996449 145.8 
L 737.959625 145.8 
L 726.9228 145.8 
L 715.885975 145.8 
L 704.849151 145.8 
L 693.812326 145.8 
L 682.775502 145.8 
L 671.738677 145.8 
L 660.701852 145.8 
L 649.665028 145.8 
L 638.628203 145.8 
L 627.591378 145.8 
L 616.554554 145.8 
L 605.517729 145.8 
L 594.480905 145.8 
L 583.44408 145.8 
L 572.407255 145.8 
L 561.370431 145.8 
L 550.333606 145.8 
L 539.296782 145.8 
L 528.259957 145.8 
L 517.223132 145.8 
L 506.186308 145.8 
L 495.149483 145.8 
L 484.112658 145.8 
L 473.075834 145.8 
L 462.039009 145.8 
L 451.002185 145.8 
L 439.96536 145.8 
L 428.928535 145.8 
L 417.891711 145.8 
L 406.854886 145.8 
L 395.818062 145.8 
L 384.781237 145.8 
L 373.744412 145.8 
L 362.707588 145.8 
L 351.670763 145.8 
L 340.633938 145.8 
L 329.597114 145.8 
L 318.560289 145.8 
L 307.523465 145.8 
L 296.48664 145.8 
L 285.449815 145.8 
L 274.412991 145.8 
L 263.376166 145.8 
L 252.339342 145.8 
L 241.302517 145.8 
L 230.265692 145.8 
L 219.228868 145.8 
L 208.192043 145.8 
L 197.155218 145.8 
L 186.118394 145.8 
L 175.081569 145.8 
L 164.044745 145.8 
L 153.00792 145.8 
L 141.971095 145.8 
L 130.934271 145.8 
L 119.897446 145.8 
L 108.860622 145.8 
L 97.823797 145.8 
L 86.786972 145.8 
L 75.750148 145.8 
L 64.713323 145.8 
L 53.676498 145.8 
L 42.639674 145.8 
L 31.602849 145.8 
L 20.566025 145.8 
L 9.5292 145.8 
L -1.507625 145.8 
L -12.544449 145.8 
L -23.581274 145.8 
L -34.618098 145.8 
L -45.654923 145.8 
L -56.691748 145.8 
L -67.728572 145.8 
L -78.765397 145.8 
L -89.802222 145.8 
L -100.839046 145.8 
L -111.875871 145.8 
L -122.912695 145.8 
L -133.94952 145.8 
L -144.986345 145.8 
L -156.023169 145.8 
L -167.059994 145.8 
L -178.096818 145.8 
L -189.133643 145.8 
L -200.170468 145.8 
L -211.207292 145.8 
L -222.244117 145.8 
L -233.280942 145.8 
L -244.317766 145.8 
L -255.354591 145.8 
L -266.391415 145.8 
L -277.42824 145.8 
L -288.465065 145.8 
L -299.501889 145.8 
L -310.538714 145.8 
L -321.575538 145.8 
L -332.612363 145.8 
L -343.649188 145.8 
L -354.686012 145.8 
L -365.722837 145.8 
L -376.759662 145.8 
L -387.796486 145.8 
L -398.833311 145.8 
L -409.870135 145.8 
L -420.90696 145.8 
L -431.943785 145.8 
L -442.980609 145.8 
L -454.017434 145.8 
L -465.054258 145.8 
L -476.091083 145.8 
L -487.127908 145.8 
z
" style="fill:#c7c7c7;"/>
    <path clip-path="url(#pe393b341b1)" d="M -487.127908 145.8 
L -476.091083 145.8 
L -465.054258 145.8 
L -454.017434 145.8 
L -442.980609 145.8 
L -431.943785 145.8 
L -420.90696 145.8 
L -409.870135 145.8 
L -398.833311 145.8 
L -387.796486 145.8 
L -376.759662 145.8 
L -365.722837 145.8 
L -354.686012 145.8 
L -343.649188 145.8 
L -332.612363 145.8 
L -321.575538 145.8 
L -310.538714 145.8 
L -299.501889 145.8 
L -288.465065 145.8 
L -277.42824 145.8 
L -266.391415 145.8 
L -255.354591 145.8 
L -244.317766 145.8 
L -233.280942 145.8 
L -222.244117 145.8 
L -211.207292 145.8 
L -200.170468 145.8 
L -189.133643 145.8 
L -178.096818 145.8 
L -167.059994 145.8 
L -156.023169 145.8 
L -144.986345 145.8 
L -133.94952 145.8 
L -122.912695 145.8 
L -111.875871 145.8 
L -100.839046 145.8 
L -89.802222 145.8 
L -78.765397 145.8 
L -67.728572 145.8 
L -56.691748 145.8 
L -45.654923 145.8 
L -34.618098 145.8 
L -23.581274 145.8 
L -12.544449 145.8 
L -1.507625 145.8 
L 9.5292 145.8 
L 20.566025 145.8 
L 31.602849 145.8 
L 42.639674 145.8 
L 53.676498 145.8 
L 64.713323 145.8 
L 75.750148 145.8 
L 86.786972 145.8 
L 97.823797 145.8 
L 108.860622 145.8 
L 119.897446 145.8 
L 130.934271 145.8 
L 141.971095 145.8 
L 153.00792 145.8 
L 164.044745 145.8 
L 175.081569 145.8 
L 186.118394 145.8 
L 197.155218 145.8 
L 208.192043 145.8 
L 219.228868 145.8 
L 230.265692 145.8 
L 241.302517 145.8 
L 252.339342 145.8 
L 263.376166 145.8 
L 274.412991 145.8 
L 285.449815 145.8 
L 296.48664 145.8 
L 307.523465 145.8 
L 318.560289 145.8 
L 329.597114 145.8 
L 340.633938 145.8 
L 351.670763 145.8 
L 362.707588 145.8 
L 373.744412 145.8 
L 384.781237 145.8 
L 395.818062 145.8 
L 406.854886 145.8 
L 417.891711 145.8 
L 428.928535 145.8 
L 439.96536 145.8 
L 451.002185 145.8 
L 462.039009 145.8 
L 473.075834 145.8 
L 484.112658 145.8 
L 495.149483 145.8 
L 506.186308 145.8 
L 517.223132 145.8 
L 528.259957 145.8 
L 539.296782 145.8 
L 550.333606 145.8 
L 561.370431 145.8 
L 572.407255 145.8 
L 583.44408 145.8 
L 594.480905 145.8 
L 605.517729 145.8 
L 616.554554 145.8 
L 627.591378 145.8 
L 638.628203 145.8 
L 649.665028 145.8 
L 660.701852 145.8 
L 671.738677 145.8 
L 682.775502 145.8 
L 693.812326 145.8 
L 704.849151 145.8 
L 715.885975 145.8 
L 726.9228 145.8 
L 737.959625 145.8 
L 748.996449 145.8 
L 760.033274 145.8 
L 771.070098 145.8 
L 782.106923 145.8 
L 793.143748 145.8 
L 804.180572 145.8 
L 815.217397 145.8 
L 826.254222 145.8 
L 837.291046 145.8 
L 848.327871 145.8 
L 859.364695 145.8 
L 870.40152 145.8 
L 881.438345 145.8 
L 892.475169 145.8 
L 903.511994 145.8 
L 914.548818 145.8 
L 925.585643 145.8 
L 936.622468 145.8 
L 947.659292 145.8 
L 958.696117 145.8 
L 969.732942 145.8 
L 980.769766 145.8 
L 991.806591 145.8 
L 1002.843415 145.8 
L 1013.88024 145.8 
L 1024.917065 145.8 
L 1035.953889 145.8 
L 1046.990714 145.8 
L 1058.027538 145.8 
L 1069.064363 145.8 
L 1080.101188 145.8 
L 1091.138012 145.8 
L 1102.174837 145.8 
L 1113.211662 145.8 
L 1124.248486 145.8 
L 1135.285311 145.8 
L 1146.322135 145.8 
L 1157.35896 145.8 
L 1168.395785 145.8 
L 1179.432609 145.8 
L 1190.469434 145.8 
L 1201.506258 145.8 
L 1212.543083 145.8 
L 1223.579908 145.8 
L 1234.616732 145.8 
L 1245.653557 145.8 
L 1256.690382 145.8 
L 1267.727206 145.8 
L 1278.764031 145.8 
L 1289.800855 145.8 
L 1300.83768 145.8 
L 1311.874505 145.8 
L 1322.911329 145.8 
L 1333.948154 145.8 
L 1344.984978 145.8 
L 1356.021803 145.8 
L 1367.058628 145.8 
L 1378.095452 145.8 
L 1389.132277 145.8 
L 1400.169102 145.8 
L 1411.205926 145.8 
L 1422.242751 145.8 
L 1433.279575 145.8 
L 1444.3164 145.8 
L 1455.353225 145.8 
L 1466.390049 145.8 
L 1477.426874 145.8 
L 1488.463698 145.8 
L 1499.500523 145.8 
L 1510.537348 145.8 
L 1521.574172 145.8 
L 1532.610997 145.8 
L 1543.647822 145.8 
L 1554.684646 145.8 
L 1565.721471 145.8 
L 1576.758295 145.8 
L 1587.79512 145.8 
L 1598.831945 145.8 
L 1609.868769 145.8 
L 1620.905594 145.8 
L 1631.942418 145.8 
L 1642.979243 145.8 
L 1654.016068 145.8 
L 1665.052892 145.8 
L 1676.089717 145.8 
L 1687.126542 145.8 
L 1698.163366 145.8 
L 1709.200191 145.8 
L 1720.237015 145.8 
L 1731.27384 145.8 
L 1742.310665 145.8 
L 1753.347489 145.8 
L 1764.384314 145.8 
L 1775.421138 145.8 
L 1786.457963 145.8 
L 1797.494788 145.8 
L 1808.531612 145.8 
L 1819.568437 145.8 
L 1819.568437 35.431754 
L 1808.531612 35.431754 
L 1797.494788 35.431754 
L 1786.457963 35.431754 
L 1775.421138 35.431754 
L 1764.384314 35.431754 
L 1753.347489 35.431754 
L 1742.310665 35.431754 
L 1731.27384 35.431754 
L 1720.237015 35.431754 
L 1709.200191 35.431754 
L 1698.163366 35.431754 
L 1687.126542 35.431754 
L 1676.089717 35.431754 
L 1665.052892 35.431754 
L 1654.016068 35.431754 
L 1642.979243 35.431754 
L 1631.942418 35.431754 
L 1620.905594 35.431754 
L 1609.868769 35.431754 
L 1598.831945 35.431754 
L 1587.79512 35.431754 
L 1576.758295 35.431754 
L 1565.721471 35.431754 
L 1554.684646 35.431754 
L 1543.647822 35.431754 
L 1532.610997 35.431754 
L 1521.574172 35.431754 
L 1510.537348 35.431754 
L 1499.500523 35.431754 
L 1488.463698 35.431754 
L 1477.426874 35.431754 
L 1466.390049 35.431754 
L 1455.353225 35.431754 
L 1444.3164 35.431754 
L 1433.279575 35.431754 
L 1422.242751 35.431754 
L 1411.205926 35.431754 
L 1400.169102 35.431754 
L 1389.132277 35.431754 
L 1378.095452 35.431754 
L 1367.058628 35.431754 
L 1356.021803 35.431754 
L 1344.984978 35.431754 
L 1333.948154 35.431754 
L 1322.911329 35.431754 
L 1311.874505 35.431754 
L 1300.83768 35.431754 
L 1289.800855 35.431754 
L 1278.764031 35.431754 
L 1267.727206 35.431754 
L 1256.690382 35.431754 
L 1245.653557 35.431754 
L 1234.616732 35.431754 
L 1223.579908 35.431754 
L 1212.543083 35.431754 
L 1201.506258 35.431754 
L 1190.469434 35.431754 
L 1179.432609 35.431754 
L 1168.395785 35.431754 
L 1157.35896 35.431754 
L 1146.322135 35.431754 
L 1135.285311 35.431754 
L 1124.248486 35.431754 
L 1113.211662 35.431754 
L 1102.174837 35.431754 
L 1091.138012 35.431754 
L 1080.101188 35.431754 
L 1069.064363 35.431754 
L 1058.027538 35.431754 
L 1046.990714 35.431754 
L 1035.953889 35.431754 
L 1024.917065 35.431754 
L 1013.88024 35.431754 
L 1002.843415 35.431754 
L 991.806591 35.431754 
L 980.769766 35.431754 
L 969.732942 35.431754 
L 958.696117 35.431754 
L 947.659292 35.431754 
L 936.622468 35.431754 
L 925.585643 35.431754 
L 914.548818 35.431754 
L 903.511994 35.431754 
L 892.475169 35.431754 
L 881.438345 35.431754 
L 870.40152 35.431754 
L 859.364695 35.431754 
L 848.327871 35.431754 
L 837.291046 35.431754 
L 826.254222 35.431754 
L 815.217397 35.431754 
L 804.180572 35.431754 
L 793.143748 35.431754 
L 782.106923 35.431754 
L 771.070098 35.431754 
L 760.033274 35.431754 
L 748.996449 35.431754 
L 737.959625 35.431754 
L 726.9228 35.431754 
L 715.885975 35.431754 
L 704.849151 35.431754 
L 693.812326 35.431754 
L 682.775502 35.431754 
L 671.738677 35.431754 
L 660.701852 35.431754 
L 649.665028 35.431754 
L 638.628203 35.431754 
L 627.591378 35.431754 
L 616.554554 35.431754 
L 605.517729 35.431754 
L 594.480905 35.431754 
L 583.44408 35.431754 
L 572.407255 35.431754 
L 561.370431 35.431754 
L 550.333606 35.431754 
L 539.296782 35.431754 
L 528.259957 35.431754 
L 517.223132 35.431754 
L 506.186308 35.431754 
L 495.149483 35.431754 
L 484.112658 35.431754 
L 473.075834 35.431754 
L 462.039009 35.431754 
L 451.002185 35.431754 
L 439.96536 35.431754 
L 428.928535 35.431754 
L 417.891711 35.431754 
L 406.854886 35.431754 
L 395.818062 35.431754 
L 384.781237 35.431754 
L 373.744412 35.431754 
L 362.707588 35.431754 
L 351.670763 35.431754 
L 340.633938 35.431754 
L 329.597114 35.431754 
L 318.560289 35.431754 
L 307.523465 35.431754 
L 296.48664 35.431754 
L 285.449815 35.431754 
L 274.412991 35.431754 
L 263.376166 35.431754 
L 252.339342 35.431754 
L 241.302517 35.431754 
L 230.265692 35.431754 
L 219.228868 35.431754 
L 208.192043 35.431754 
L 197.155218 35.431754 
L 186.118394 35.431754 
L 175.081569 35.431754 
L 164.044745 35.431754 
L 153.00792 35.431754 
L 141.971095 35.431754 
L 130.934271 35.431754 
L 119.897446 35.431754 
L 108.860622 35.431754 
L 97.823797 35.431754 
L 86.786972 35.431754 
L 75.750148 35.431754 
L 64.713323 35.431754 
L 53.676498 35.431754 
L 42.639674 35.431754 
L 31.602849 35.431754 
L 20.566025 35.431754 
L 9.5292 35.431754 
L -1.507625 35.431754 
L -12.544449 35.431754 
L -23.581274 35.431754 
L -34.618098 35.431754 
L -45.654923 35.431754 
L -56.691748 35.431754 
L -67.728572 35.431754 
L -78.765397 35.431754 
L -89.802222 35.431754 
L -100.839046 35.431754 
L -111.875871 35.431754 
L -122.912695 35.431754 
L -133.94952 35.431754 
L -144.986345 35.431754 
L -156.023169 35.431754 
L -167.059994 35.431754 
L -178.096818 35.431754 
L -189.133643 35.431754 
L -200.170468 35.431754 
L -211.207292 35.431754 
L -222.244117 35.431754 
L -233.280942 35.431754 
L -244.317766 35.431754 
L -255.354591 35.431754 
L -266.391415 35.431754 
L -277.42824 35.431754 
L -288.465065 35.431754 
L -299.501889 35.431754 
L -310.538714 35.431754 
L -321.575538 35.431754 
L -332.612363 35.431754 
L -343.649188 35.431754 
L -354.686012 35.431754 
L -365.722837 35.431754 
L -376.759662 35.431754 
L -387.796486 35.431754 
L -398.833311 35.431754 
L -409.870135 35.431754 
L -420.90696 35.431754 
L -431.943785 35.431754 
L -442.980609 35.431754 
L -454.017434 35.431754 
L -465.054258 35.431754 
L -476.091083 35.431754 
L -487.127908 35.431754 
z
" style="fill:#c7c7c7;"/>
   </g>
   <g id="PathCollection_1"/>
   <g id="PathCollection_2">
    <path clip-path="url(#pe393b341b1)" d="M -487.127908 209.261742 
L -470.572671 200.984123 
L -487.127908 192.706505 
z
" style="fill:#dddddd;stroke:#dddddd;stroke-width:0.5;"/>
    <path clip-path="url(#pe393b341b1)" d="M -487.127908 98.893495 
L -470.572671 90.615877 
L -487.127908 82.338258 
z
" style="fill:#dddddd;stroke:#dddddd;stroke-width:0.5;"/>
   </g>
   <g id="PathCollection_3">
    <path clip-path="url(#pe393b341b1)" d="M -1 256.168246 
L 737.452 256.168246 
L 737.452 256.168246 
" style="fill:none;stroke:#555555;stroke-width:0.5;"/>
    <path clip-path="url(#pe393b341b1)" d="M -1 145.8 
L 737.452 145.8 
L 737.452 145.8 
" style="fill:none;stroke:#555555;stroke-width:0.5;"/>
   </g>
   <g id="PathCollection_4">
    <path clip-path="url(#pe393b341b1)" d="M -1 145.8 
L 737.452 145.8 
L 737.452 145.8 
" style="fill:none;stroke:#555555;stroke-width:0.5;"/>
    <path clip-path="url(#pe393b341b1)" d="M -1 35.431754 
L 737.452 35.431754 
L 737.452 35.431754 
" style="fill:none;stroke:#555555;stroke-width:0.5;"/>
   </g>
   <g id="PatchCollection_1">
    <path clip-path="url(#pe393b341b1)" d="M 64.713323 156.101 
C 67.640323 156.101 70.447835 154.93809 72.517537 152.868388 
C 74.587238 150.798687 75.750148 147.991175 75.750148 145.064175 
C 75.750148 142.137175 74.587238 139.329663 72.517537 137.259961 
C 70.447835 135.19026 67.640323 134.02735 64.713323 134.02735 
C 61.786323 134.02735 58.978811 135.19026 56.90911 137.259961 
C 54.839408 139.329663 53.676498 142.137175 53.676498 145.064175 
C 53.676498 147.991175 54.839408 150.798687 56.90911 152.868388 
C 58.978811 154.93809 61.786323 156.101 64.713323 156.101 
z
" style="fill:#008000;stroke:#008000;"/>
    <path clip-path="url(#pe393b341b1)" d="M 154.093723 143.276329 
L 114.633967 157.312468 
L 114.45739 148.484774 
L 64.801612 149.478022 
L 64.625034 140.650328 
L 114.280812 139.65708 
L 114.104235 130.829386 
z
" style="fill:#008000;stroke:#008000;"/>
    <path clip-path="url(#pe393b341b1)" d="M 616.554554 165.666284 
L 616.554554 125.933716 
L 671.738677 125.933716 
L 671.738677 165.666284 
z
" style="fill:#f1b514;stroke:#302404;stroke-width:0.5;"/>
    <path clip-path="url(#pe393b341b1)" d="M 216.58003 134.763175 
L 216.58003 79.579052 
L 247.483139 79.579052 
L 247.483139 134.763175 
z
" style="fill:#d95558;stroke:#831d20;stroke-width:0.5;"/>
    <path clip-path="url(#pe393b341b1)" d="M 216.58003 256.168246 
L 216.58003 167.873649 
L 247.483139 167.873649 
L 247.483139 256.168246 
z
" style="fill:#d95558;stroke:#831d20;stroke-width:0.5;"/>
    <path clip-path="url(#pe393b341b1)" d="M 437.316522 90.615877 
L 437.316522 35.431754 
L 468.219631 35.431754 
L 468.219631 90.615877 
z
" style="fill:#d95558;stroke:#831d20;stroke-width:0.5;"/>
    <path clip-path="url(#pe393b341b1)" d="M 437.316522 173.392062 
L 437.316522 118.207938 
L 468.219631 118.207938 
L 468.219631 173.392062 
z
" style="fill:#d95558;stroke:#831d20;stroke-width:0.5;"/>
    <path clip-path="url(#pe393b341b1)" d="M 437.316522 256.168246 
L 437.316522 200.984123 
L 468.219631 200.984123 
L 468.219631 256.168246 
z
" style="fill:#d95558;stroke:#831d20;stroke-width:0.5;"/>
    <path clip-path="url(#pe393b341b1)" d="M 575.27683 106.881013 
L 575.27683 92.00966 
L 595.143114 92.00966 
L 595.143114 106.881013 
z
" style="fill:#d95558;stroke:#831d20;stroke-width:0.5;"/>
    <path clip-path="url(#pe393b341b1)" d="M 64.713323 150.582587 
C 66.176823 150.582587 67.580579 150.001132 68.61543 148.966282 
C 69.650281 147.931431 70.231735 146.527675 70.231735 145.064175 
C 70.231735 143.600675 69.650281 142.196919 68.61543 141.162068 
C 67.580579 140.127217 66.176823 139.545763 64.713323 139.545763 
C 63.249823 139.545763 61.846067 140.127217 60.811216 141.162068 
C 59.776366 142.196919 59.194911 143.600675 59.194911 145.064175 
C 59.194911 146.527675 59.776366 147.931431 60.811216 148.966282 
C 61.846067 150.001132 63.249823 150.582587 64.713323 150.582587 
z
" style="fill:#1d7eea;stroke:#00478f;stroke-width:0.5;"/>
   </g>
   <g id="line2d_1">
    <path clip-path="url(#pe393b341b1)" d="M 64.713323 145.064175 
" style="fill:none;stroke:#ffd700;stroke-linecap:square;stroke-width:2;"/>
   </g>
   <g id="line2d_2">
    <path clip-path="url(#pe393b341b1)" d="M 64.713323 145.064175 
L 74.646465 144.865512 
L 84.579607 144.666849 
L 94.51275 144.468186 
L 104.445892 144.269524 
L 114.379034 144.070861 
" style="fill:none;stroke:#ffd700;stroke-linecap:square;stroke-width:2;"/>
   </g>
   <g id="line2d_3">
    <path clip-path="url(#pe393b341b1)" d="M 64.713323 145.064175 
L 74.646465 144.865512 
L 84.577918 144.597503 
L 94.501385 144.12133 
L 104.401789 143.298002 
L 114.249303 141.988928 
" style="fill:none;stroke:#ffd700;stroke-linecap:square;stroke-width:2;"/>
   </g>
   <g id="line2d_4">
    <path clip-path="url(#pe393b341b1)" d="M 64.713323 145.064175 
L 74.646465 144.865512 
L 84.580692 144.736208 
L 94.515263 144.81522 
L 104.440669 145.242031 
L 114.332651 146.156315 
" style="fill:none;stroke:#ffd700;stroke-linecap:square;stroke-width:2;"/>
   </g>
   <g id="line2d_5">
    <path clip-path="url(#pe393b341b1)" d="M 114.249303 141.988928 
L 123.991354 140.057894 
L 133.591738 137.512233 
L 143.055754 134.49747 
L 152.408693 131.153069 
L 161.689624 127.613236 
" style="fill:none;stroke:#ffd700;stroke-linecap:square;stroke-width:2;"/>
   </g>
   <g id="line2d_6">
    <path clip-path="url(#pe393b341b1)" d="M 114.249303 141.988928 
L 123.991354 140.057894 
L 133.572546 137.443087 
L 142.944949 134.157586 
L 152.061679 130.217828 
L 160.877129 125.643521 
" style="fill:none;stroke:#ffd700;stroke-linecap:square;stroke-width:2;"/>
   </g>
   <g id="line2d_7">
    <path clip-path="url(#pe393b341b1)" d="M 160.877129 125.643521 
L 169.347202 120.457546 
L 177.47148 114.744066 
L 185.305344 108.63776 
L 192.920826 102.260698 
L 200.401064 95.725245 
" style="fill:none;stroke:#ffd700;stroke-linecap:square;stroke-width:2;"/>
   </g>
   <g id="line2d_8">
    <path clip-path="url(#pe393b341b1)" d="M 160.877129 125.643521 
L 169.347202 120.457546 
L 177.429525 114.685848 
L 185.083669 108.357298 
L 192.271342 101.503555 
L 198.956591 94.158903 
" style="fill:none;stroke:#ffd700;stroke-linecap:square;stroke-width:2;"/>
   </g>
   <g id="line2d_9">
    <path clip-path="url(#pe393b341b1)" d="M 198.956591 94.158903 
L 205.105972 86.360084 
L 210.748245 78.186193 
L 215.982016 69.744389 
L 220.917138 61.124235 
L 225.670525 52.402342 
" style="fill:none;stroke:#ffd700;stroke-linecap:square;stroke-width:2;"/>
   </g>
   <g id="line2d_10">
    <path clip-path="url(#pe393b341b1)" d="M 198.956591 94.158903 
L 205.105972 86.360084 
L 210.688723 78.146112 
L 215.676916 69.558075 
L 220.0456 60.638935 
L 223.77292 51.433309 
" style="fill:none;stroke:#ffd700;stroke-linecap:square;stroke-width:2;"/>
   </g>
   <g id="line2d_11">
    <path clip-path="url(#pe393b341b1)" d="M 225.670525 52.402342 
L 230.362928 43.64742 
L 235.055332 34.892498 
L 239.747736 26.137576 
L 244.440139 17.382654 
L 249.132543 8.627732 
" style="fill:none;stroke:#ffd700;stroke-dasharray:7.4,3.2;stroke-dashoffset:0;stroke-width:2;"/>
   </g>
   <g id="line2d_12">
    <path clip-path="url(#pe393b341b1)" d="M 225.670525 52.402342 
L 230.362928 43.64742 
L 234.994063 34.860003 
L 239.439853 25.97758 
L 243.57177 16.945213 
L 247.254409 7.721009 
" style="fill:none;stroke:#ffd700;stroke-dasharray:7.4,3.2;stroke-dashoffset:0;stroke-width:2;"/>
   </g>
   <g id="line2d_13">
    <path clip-path="url(#pe393b341b1)" d="M 225.670525 52.402342 
L 230.362928 43.64742 
L 235.116315 34.925527 
L 240.051437 26.305373 
L 245.285207 17.863569 
L 250.927481 9.689678 
" style="fill:none;stroke:#ffd700;stroke-dasharray:7.4,3.2;stroke-dashoffset:0;stroke-width:2;"/>
   </g>
   <g id="line2d_14">
    <path clip-path="url(#pe393b341b1)" d="M 223.77292 51.433309 
L 226.84023 41.987249 
L 229.301907 32.364988 
L 231.28757 22.6329 
L 232.931296 12.836949 
L 234.369296 3.008507 
" style="fill:none;stroke:#ffd700;stroke-dasharray:7.4,3.2;stroke-dashoffset:0;stroke-width:2;"/>
   </g>
   <g id="line2d_15">
    <path clip-path="url(#pe393b341b1)" d="M 223.77292 51.433309 
L 226.84023 41.987249 
L 229.232186 32.348006 
L 230.936823 22.563801 
L 231.945613 12.683578 
L 232.25351 2.756763 
" style="fill:none;stroke:#ffd700;stroke-dasharray:7.4,3.2;stroke-dashoffset:0;stroke-width:2;"/>
   </g>
   <g id="line2d_16">
    <path clip-path="url(#pe393b341b1)" d="M 200.401064 95.725245 
L 207.835534 89.137684 
L 215.270005 82.550123 
L 222.704476 75.962562 
L 230.138947 69.375001 
L 237.573418 62.787441 
" style="fill:none;stroke:#ffd700;stroke-linecap:square;stroke-width:2;"/>
   </g>
   <g id="line2d_17">
    <path clip-path="url(#pe393b341b1)" d="M 200.401064 95.725245 
L 207.835534 89.137684 
L 215.223785 82.498417 
L 222.471073 75.705826 
L 229.475858 68.663852 
L 236.125627 61.286296 
" style="fill:none;stroke:#ffd700;stroke-linecap:square;stroke-width:2;"/>
   </g>
   <g id="line2d_18">
    <path clip-path="url(#pe393b341b1)" d="M 200.401064 95.725245 
L 207.835534 89.137684 
L 215.315773 82.602231 
L 222.931254 76.225169 
L 230.765118 70.118863 
L 238.889396 64.405382 
" style="fill:none;stroke:#ffd700;stroke-linecap:square;stroke-width:2;"/>
   </g>
   <g id="line2d_19">
    <path clip-path="url(#pe393b341b1)" d="M 236.125627 61.286296 
L 242.293342 53.50197 
L 247.954835 45.341379 
L 253.208457 36.911915 
L 258.16385 28.303398 
L 262.937748 19.592715 
" style="fill:none;stroke:#ffd700;stroke-dasharray:7.4,3.2;stroke-dashoffset:0;stroke-width:2;"/>
   </g>
   <g id="line2d_20">
    <path clip-path="url(#pe393b341b1)" d="M 236.125627 61.286296 
L 242.293342 53.50197 
L 247.895407 45.301158 
L 252.903797 36.724883 
L 257.293457 27.816048 
L 261.042429 18.619219 
" style="fill:none;stroke:#ffd700;stroke-dasharray:7.4,3.2;stroke-dashoffset:0;stroke-width:2;"/>
   </g>
   <g id="line2d_21">
    <path clip-path="url(#pe393b341b1)" d="M 237.573418 62.787441 
L 245.007888 56.19988 
L 252.442359 49.612319 
L 259.87683 43.024758 
L 267.311301 36.437198 
L 274.745772 29.849637 
" style="fill:none;stroke:#ffd700;stroke-dasharray:7.4,3.2;stroke-dashoffset:0;stroke-width:2;"/>
   </g>
   <g id="line2d_22">
    <path clip-path="url(#pe393b341b1)" d="M 237.573418 62.787441 
L 245.007888 56.19988 
L 252.396139 49.560613 
L 259.643427 42.768022 
L 266.648212 35.726048 
L 273.297981 28.348493 
" style="fill:none;stroke:#ffd700;stroke-dasharray:7.4,3.2;stroke-dashoffset:0;stroke-width:2;"/>
   </g>
   <g id="line2d_23">
    <path clip-path="url(#pe393b341b1)" d="M 237.573418 62.787441 
L 245.007888 56.19988 
L 252.488127 49.664427 
L 260.103609 43.287365 
L 267.937472 37.181059 
L 276.06175 31.467578 
" style="fill:none;stroke:#ffd700;stroke-dasharray:7.4,3.2;stroke-dashoffset:0;stroke-width:2;"/>
   </g>
   <g id="line2d_24">
    <path clip-path="url(#pe393b341b1)" d="M 238.889396 64.405382 
L 247.359469 59.219408 
L 256.142143 54.581263 
L 265.142644 50.380386 
L 274.285003 46.497119 
L 283.506942 42.806325 
" style="fill:none;stroke:#ffd700;stroke-linecap:square;stroke-width:2;"/>
   </g>
   <g id="line2d_25">
    <path clip-path="url(#pe393b341b1)" d="M 238.889396 64.405382 
L 247.359469 59.219408 
L 256.174919 54.6451 
L 265.291649 50.705342 
L 274.664052 47.419841 
L 284.245244 44.805034 
" style="fill:none;stroke:#ffd700;stroke-linecap:square;stroke-width:2;"/>
   </g>
   <g id="line2d_26">
    <path clip-path="url(#pe393b341b1)" d="M 283.506942 42.806325 
L 292.754481 39.179986 
L 302.00202 35.553647 
L 311.249559 31.927308 
L 320.497098 28.300968 
L 329.744637 24.674629 
" style="fill:none;stroke:#ffd700;stroke-dasharray:7.4,3.2;stroke-dashoffset:0;stroke-width:2;"/>
   </g>
   <g id="line2d_27">
    <path clip-path="url(#pe393b341b1)" d="M 283.506942 42.806325 
L 292.754481 39.179986 
L 301.976419 35.489192 
L 311.118778 31.605925 
L 320.119279 27.405048 
L 328.901954 22.766903 
" style="fill:none;stroke:#ffd700;stroke-dasharray:7.4,3.2;stroke-dashoffset:0;stroke-width:2;"/>
   </g>
   <g id="line2d_28">
    <path clip-path="url(#pe393b341b1)" d="M 283.506942 42.806325 
L 292.754481 39.179986 
L 302.027057 35.618323 
L 311.3721 32.251921 
L 320.828995 29.214896 
L 330.423361 26.64665 
" style="fill:none;stroke:#ffd700;stroke-dasharray:7.4,3.2;stroke-dashoffset:0;stroke-width:2;"/>
   </g>
   <g id="line2d_29">
    <path clip-path="url(#pe393b341b1)" d="M 284.245244 44.805034 
L 293.987295 42.874 
L 303.832837 41.565161 
L 313.731259 40.741972 
L 323.652741 40.265868 
L 333.582207 39.997886 
" style="fill:none;stroke:#ffd700;stroke-linecap:square;stroke-width:2;"/>
   </g>
   <g id="line2d_30">
    <path clip-path="url(#pe393b341b1)" d="M 284.245244 44.805034 
L 293.987295 42.874 
L 303.841472 41.6364 
L 313.758479 41.098424 
L 323.688708 41.262763 
L 333.582483 42.128596 
" style="fill:none;stroke:#ffd700;stroke-linecap:square;stroke-width:2;"/>
   </g>
   <g id="line2d_31">
    <path clip-path="url(#pe393b341b1)" d="M 333.582207 39.997886 
L 343.515349 39.799223 
L 353.448491 39.60056 
L 363.381633 39.401897 
L 373.314776 39.203234 
L 383.247918 39.004572 
" style="fill:none;stroke:#ffd700;stroke-linecap:square;stroke-width:2;"/>
   </g>
   <g id="line2d_32">
    <path clip-path="url(#pe393b341b1)" d="M 333.582207 39.997886 
L 343.515349 39.799223 
L 353.446802 39.531214 
L 363.370269 39.055041 
L 373.270673 38.231713 
L 383.118187 36.922639 
" style="fill:none;stroke:#ffd700;stroke-linecap:square;stroke-width:2;"/>
   </g>
   <g id="line2d_33">
    <path clip-path="url(#pe393b341b1)" d="M 333.582207 39.997886 
L 343.515349 39.799223 
L 353.449576 39.669919 
L 363.384147 39.748931 
L 373.309553 40.175742 
L 383.201535 41.090026 
" style="fill:none;stroke:#ffd700;stroke-linecap:square;stroke-width:2;"/>
   </g>
   <g id="line2d_34">
    <path clip-path="url(#pe393b341b1)" d="M 383.118187 36.922639 
L 392.860238 34.991605 
L 402.460622 32.445944 
L 411.924638 29.431181 
L 421.277577 26.08678 
L 430.558508 22.546947 
" style="fill:none;stroke:#ffd700;stroke-dasharray:7.4,3.2;stroke-dashoffset:0;stroke-width:2;"/>
   </g>
   <g id="line2d_35">
    <path clip-path="url(#pe393b341b1)" d="M 383.118187 36.922639 
L 392.860238 34.991605 
L 402.44143 32.376798 
L 411.813833 29.091297 
L 420.930563 25.151539 
L 429.746013 20.577231 
" style="fill:none;stroke:#ffd700;stroke-dasharray:7.4,3.2;stroke-dashoffset:0;stroke-width:2;"/>
   </g>
   <g id="line2d_36">
    <path clip-path="url(#pe393b341b1)" d="M 383.247918 39.004572 
L 393.18106 38.805909 
L 403.114202 38.607246 
L 413.047344 38.408583 
L 422.980486 38.20992 
L 432.913629 38.011257 
" style="fill:none;stroke:#ffd700;stroke-linecap:square;stroke-width:2;"/>
   </g>
   <g id="line2d_37">
    <path clip-path="url(#pe393b341b1)" d="M 383.247918 39.004572 
L 393.18106 38.805909 
L 403.112512 38.5379 
L 413.03598 38.061726 
L 422.936383 37.238399 
L 432.783898 35.929325 
" style="fill:none;stroke:#ffd700;stroke-linecap:square;stroke-width:2;"/>
   </g>
   <g id="line2d_38">
    <path clip-path="url(#pe393b341b1)" d="M 383.247918 39.004572 
L 393.18106 38.805909 
L 403.115286 38.676604 
L 413.049858 38.755617 
L 422.975264 39.182428 
L 432.867246 40.096712 
" style="fill:none;stroke:#ffd700;stroke-linecap:square;stroke-width:2;"/>
   </g>
   <g id="line2d_39">
    <path clip-path="url(#pe393b341b1)" d="M 432.783898 35.929325 
L 442.525949 33.998291 
L 452.126332 31.452629 
L 461.590349 28.437867 
L 470.943288 25.093466 
L 480.224219 21.553633 
" style="fill:none;stroke:#ffd700;stroke-dasharray:7.4,3.2;stroke-dashoffset:0;stroke-width:2;"/>
   </g>
   <g id="line2d_40">
    <path clip-path="url(#pe393b341b1)" d="M 432.783898 35.929325 
L 442.525949 33.998291 
L 452.107141 31.383484 
L 461.479544 28.097983 
L 470.596274 24.158225 
L 479.411724 19.583917 
" style="fill:none;stroke:#ffd700;stroke-dasharray:7.4,3.2;stroke-dashoffset:0;stroke-width:2;"/>
   </g>
   <g id="line2d_41">
    <path clip-path="url(#pe393b341b1)" d="M 432.913629 38.011257 
L 442.846771 37.812595 
L 452.779913 37.613932 
L 462.713055 37.415269 
L 472.646197 37.216606 
L 482.579339 37.017943 
" style="fill:none;stroke:#ffd700;stroke-dasharray:7.4,3.2;stroke-dashoffset:0;stroke-width:2;"/>
   </g>
   <g id="line2d_42">
    <path clip-path="url(#pe393b341b1)" d="M 432.913629 38.011257 
L 442.846771 37.812595 
L 452.778223 37.544585 
L 462.701691 37.068412 
L 472.602094 36.245085 
L 482.449609 34.936011 
" style="fill:none;stroke:#ffd700;stroke-dasharray:7.4,3.2;stroke-dashoffset:0;stroke-width:2;"/>
   </g>
   <g id="line2d_43">
    <path clip-path="url(#pe393b341b1)" d="M 432.913629 38.011257 
L 442.846771 37.812595 
L 452.780997 37.68329 
L 462.715569 37.762302 
L 472.640975 38.189114 
L 482.532956 39.103398 
" style="fill:none;stroke:#ffd700;stroke-dasharray:7.4,3.2;stroke-dashoffset:0;stroke-width:2;"/>
   </g>
   <g id="line2d_44">
    <path clip-path="url(#pe393b341b1)" d="M 432.867246 40.096712 
L 442.678725 41.636623 
L 452.373228 43.796336 
L 461.950233 46.430227 
L 471.429431 49.397935 
L 480.844494 52.563798 
" style="fill:none;stroke:#ffd700;stroke-dasharray:7.4,3.2;stroke-dashoffset:0;stroke-width:2;"/>
   </g>
   <g id="line2d_45">
    <path clip-path="url(#pe393b341b1)" d="M 432.867246 40.096712 
L 442.678725 41.636623 
L 452.356817 43.866194 
L 461.853108 46.77427 
L 471.120094 50.346305 
L 480.111417 54.564429 
" style="fill:none;stroke:#ffd700;stroke-dasharray:7.4,3.2;stroke-dashoffset:0;stroke-width:2;"/>
   </g>
   <g id="line2d_46">
    <path clip-path="url(#pe393b341b1)" d="M 383.201535 41.090026 
L 393.013014 42.629937 
L 402.707518 44.78965 
L 412.284522 47.423541 
L 421.76372 50.391249 
L 431.178783 53.557113 
" style="fill:none;stroke:#ffd700;stroke-linecap:square;stroke-width:2;"/>
   </g>
   <g id="line2d_47">
    <path clip-path="url(#pe393b341b1)" d="M 383.201535 41.090026 
L 393.013014 42.629937 
L 402.691107 44.859508 
L 412.187398 47.767584 
L 421.454383 51.339619 
L 430.445706 55.557744 
" style="fill:none;stroke:#ffd700;stroke-linecap:square;stroke-width:2;"/>
   </g>
   <g id="line2d_48">
    <path clip-path="url(#pe393b341b1)" d="M 431.178783 53.557113 
L 440.571571 56.788654 
L 449.964358 60.020195 
L 459.357145 63.251736 
L 468.749933 66.483278 
L 478.14272 69.714819 
" style="fill:none;stroke:#ffd700;stroke-dasharray:7.4,3.2;stroke-dashoffset:0;stroke-width:2;"/>
   </g>
   <g id="line2d_49">
    <path clip-path="url(#pe393b341b1)" d="M 431.178783 53.557113 
L 440.571571 56.788654 
L 449.986634 59.954517 
L 459.465832 62.922225 
L 469.042836 65.556117 
L 478.73734 67.715829 
" style="fill:none;stroke:#ffd700;stroke-dasharray:7.4,3.2;stroke-dashoffset:0;stroke-width:2;"/>
   </g>
   <g id="line2d_50">
    <path clip-path="url(#pe393b341b1)" d="M 431.178783 53.557113 
L 440.571571 56.788654 
L 449.941509 60.085676 
L 459.240089 63.578368 
L 468.410387 67.394392 
L 477.381567 71.656514 
" style="fill:none;stroke:#ffd700;stroke-dasharray:7.4,3.2;stroke-dashoffset:0;stroke-width:2;"/>
   </g>
   <g id="line2d_51">
    <path clip-path="url(#pe393b341b1)" d="M 430.445706 55.557744 
L 439.116387 60.400857 
L 447.462644 65.784883 
L 455.534429 71.573034 
L 463.398834 77.640457 
L 471.134437 83.871552 
" style="fill:none;stroke:#ffd700;stroke-dasharray:7.4,3.2;stroke-dashoffset:0;stroke-width:2;"/>
   </g>
   <g id="line2d_52">
    <path clip-path="url(#pe393b341b1)" d="M 430.445706 55.557744 
L 439.116387 60.400857 
L 447.423052 65.844732 
L 455.324147 71.862136 
L 462.780148 78.422967 
L 469.753757 85.494405 
" style="fill:none;stroke:#ffd700;stroke-dasharray:7.4,3.2;stroke-dashoffset:0;stroke-width:2;"/>
   </g>
   <g id="line2d_53">
    <path clip-path="url(#pe393b341b1)" d="M 333.582483 42.128596 
L 343.390312 43.691592 
L 353.079706 45.874111 
L 362.650486 48.530532 
L 372.122674 51.520539 
L 381.530261 54.708549 
" style="fill:none;stroke:#ffd700;stroke-linecap:square;stroke-width:2;"/>
   </g>
   <g id="line2d_54">
    <path clip-path="url(#pe393b341b1)" d="M 333.582483 42.128596 
L 343.390312 43.691592 
L 353.063131 45.94393 
L 362.552552 48.874346 
L 371.811107 52.468178 
L 380.792478 56.707449 
" style="fill:none;stroke:#ffd700;stroke-linecap:square;stroke-width:2;"/>
   </g>
   <g id="line2d_55">
    <path clip-path="url(#pe393b341b1)" d="M 381.530261 54.708549 
L 390.915418 57.962184 
L 400.300575 61.21582 
L 409.685732 64.469455 
L 419.070889 67.723091 
L 428.456046 70.976726 
" style="fill:none;stroke:#ffd700;stroke-linecap:square;stroke-width:2;"/>
   </g>
   <g id="line2d_56">
    <path clip-path="url(#pe393b341b1)" d="M 381.530261 54.708549 
L 390.915418 57.962184 
L 400.323006 61.150194 
L 409.795194 64.140201 
L 419.365973 66.796622 
L 429.055368 68.979141 
" style="fill:none;stroke:#ffd700;stroke-linecap:square;stroke-width:2;"/>
   </g>
   <g id="line2d_57">
    <path clip-path="url(#pe393b341b1)" d="M 381.530261 54.708549 
L 390.915418 57.962184 
L 400.277573 61.281247 
L 409.567908 64.795811 
L 418.7292 68.633403 
L 427.690325 72.916625 
" style="fill:none;stroke:#ffd700;stroke-linecap:square;stroke-width:2;"/>
   </g>
   <g id="line2d_58">
    <path clip-path="url(#pe393b341b1)" d="M 429.055368 68.979141 
L 438.863196 70.542137 
L 448.751024 71.479483 
L 458.673415 71.929533 
L 468.605787 72.031876 
L 478.538304 71.925944 
" style="fill:none;stroke:#ffd700;stroke-dasharray:7.4,3.2;stroke-dashoffset:0;stroke-width:2;"/>
   </g>
   <g id="line2d_59">
    <path clip-path="url(#pe393b341b1)" d="M 429.055368 68.979141 
L 438.863196 70.542137 
L 448.756971 71.40797 
L 458.6872 71.572309 
L 468.604208 71.034333 
L 478.458385 69.796733 
" style="fill:none;stroke:#ffd700;stroke-dasharray:7.4,3.2;stroke-dashoffset:0;stroke-width:2;"/>
   </g>
   <g id="line2d_60">
    <path clip-path="url(#pe393b341b1)" d="M 428.456046 70.976726 
L 437.841202 74.230362 
L 447.226359 77.483998 
L 456.611516 80.737633 
L 465.996673 83.991269 
L 475.38183 87.244904 
" style="fill:none;stroke:#ffd700;stroke-dasharray:7.4,3.2;stroke-dashoffset:0;stroke-width:2;"/>
   </g>
   <g id="line2d_61">
    <path clip-path="url(#pe393b341b1)" d="M 428.456046 70.976726 
L 437.841202 74.230362 
L 447.24879 77.418372 
L 456.720978 80.408378 
L 466.291758 83.064799 
L 475.981152 85.247319 
" style="fill:none;stroke:#ffd700;stroke-dasharray:7.4,3.2;stroke-dashoffset:0;stroke-width:2;"/>
   </g>
   <g id="line2d_62">
    <path clip-path="url(#pe393b341b1)" d="M 428.456046 70.976726 
L 437.841202 74.230362 
L 447.203357 77.549425 
L 456.493692 81.063989 
L 465.654984 84.901581 
L 474.61611 89.184803 
" style="fill:none;stroke:#ffd700;stroke-dasharray:7.4,3.2;stroke-dashoffset:0;stroke-width:2;"/>
   </g>
   <g id="line2d_63">
    <path clip-path="url(#pe393b341b1)" d="M 427.690325 72.916625 
L 436.361006 77.759738 
L 444.707264 83.143764 
L 452.779049 88.931915 
L 460.643454 94.999338 
L 468.379057 101.230434 
" style="fill:none;stroke:#ffd700;stroke-dasharray:7.4,3.2;stroke-dashoffset:0;stroke-width:2;"/>
   </g>
   <g id="line2d_64">
    <path clip-path="url(#pe393b341b1)" d="M 427.690325 72.916625 
L 436.361006 77.759738 
L 444.667671 83.203613 
L 452.568767 89.221017 
L 460.024768 95.781848 
L 466.998376 102.853286 
" style="fill:none;stroke:#ffd700;stroke-dasharray:7.4,3.2;stroke-dashoffset:0;stroke-width:2;"/>
   </g>
   <g id="line2d_65">
    <path clip-path="url(#pe393b341b1)" d="M 380.792478 56.707449 
L 389.451738 61.570953 
L 397.785303 66.974605 
L 405.843444 72.781734 
L 413.69355 78.867647 
L 421.414468 85.116929 
" style="fill:none;stroke:#ffd700;stroke-linecap:square;stroke-width:2;"/>
   </g>
   <g id="line2d_66">
    <path clip-path="url(#pe393b341b1)" d="M 380.792478 56.707449 
L 389.451738 61.570953 
L 397.745569 67.03436 
L 405.632482 73.07034 
L 413.073024 79.648699 
L 420.029973 86.736528 
" style="fill:none;stroke:#ffd700;stroke-linecap:square;stroke-width:2;"/>
   </g>
   <g id="line2d_67">
    <path clip-path="url(#pe393b341b1)" d="M 421.414468 85.116929 
L 429.091613 91.420004 
L 436.768758 97.723079 
L 444.445903 104.026155 
L 452.123048 110.32923 
L 459.800193 116.632305 
" style="fill:none;stroke:#ffd700;stroke-linecap:square;stroke-width:2;"/>
   </g>
   <g id="line2d_68">
    <path clip-path="url(#pe393b341b1)" d="M 421.414468 85.116929 
L 429.091613 91.420004 
L 436.812532 97.669286 
L 444.662637 103.755199 
L 452.720778 109.562328 
L 461.054343 114.96598 
" style="fill:none;stroke:#ffd700;stroke-linecap:square;stroke-width:2;"/>
   </g>
   <g id="line2d_69">
    <path clip-path="url(#pe393b341b1)" d="M 421.414468 85.116929 
L 429.091613 91.420004 
L 436.724517 97.776489 
L 444.222329 104.291494 
L 451.487195 111.064833 
L 458.409928 118.186878 
" style="fill:none;stroke:#ffd700;stroke-linecap:square;stroke-width:2;"/>
   </g>
   <g id="line2d_70">
    <path clip-path="url(#pe393b341b1)" d="M 420.029973 86.736528 
L 426.468527 94.298371 
L 432.414451 102.254107 
L 437.962245 110.492941 
L 443.218314 118.921239 
L 448.296607 127.458045 
" style="fill:none;stroke:#ffd700;stroke-dasharray:7.4,3.2;stroke-dashoffset:0;stroke-width:2;"/>
   </g>
   <g id="line2d_71">
    <path clip-path="url(#pe393b341b1)" d="M 420.029973 86.736528 
L 426.468527 94.298371 
L 432.356479 102.2964 
L 437.664374 110.690607 
L 442.36566 119.438999 
L 446.436819 128.497813 
" style="fill:none;stroke:#ffd700;stroke-dasharray:7.4,3.2;stroke-dashoffset:0;stroke-width:2;"/>
   </g>
   <g id="line2d_72">
    <path clip-path="url(#pe393b341b1)" d="M 461.054343 114.96598 
L 469.713603 119.829484 
L 478.664624 124.133781 
L 487.816861 127.992921 
L 497.0989 131.529338 
L 506.453218 134.870422 
" style="fill:none;stroke:#ffd700;stroke-linecap:square;stroke-width:2;"/>
   </g>
   <g id="line2d_73">
    <path clip-path="url(#pe393b341b1)" d="M 461.054343 114.96598 
L 469.713603 119.829484 
L 478.694975 124.068755 
L 487.953529 127.662587 
L 497.44295 130.593003 
L 507.115769 132.845341 
" style="fill:none;stroke:#ffd700;stroke-linecap:square;stroke-width:2;"/>
   </g>
   <g id="line2d_74">
    <path clip-path="url(#pe393b341b1)" d="M 507.115769 132.845341 
L 516.923598 134.408337 
L 526.811426 135.345683 
L 536.733817 135.795733 
L 546.666189 135.898076 
L 556.598705 135.792144 
" style="fill:none;stroke:#ffd700;stroke-linecap:square;stroke-width:2;"/>
   </g>
   <g id="line2d_75">
    <path clip-path="url(#pe393b341b1)" d="M 507.115769 132.845341 
L 516.923598 134.408337 
L 526.817373 135.27417 
L 536.747602 135.438509 
L 546.664609 134.900533 
L 556.518786 133.662933 
" style="fill:none;stroke:#ffd700;stroke-linecap:square;stroke-width:2;"/>
   </g>
   <g id="line2d_76">
    <path clip-path="url(#pe393b341b1)" d="M 556.518786 133.662933 
L 566.260837 131.731899 
L 575.861221 129.186237 
L 585.325237 126.171475 
L 594.678176 122.827074 
L 603.959108 119.287241 
" style="fill:none;stroke:#ffd700;stroke-linecap:square;stroke-width:2;"/>
   </g>
   <g id="line2d_77">
    <path clip-path="url(#pe393b341b1)" d="M 556.518786 133.662933 
L 566.260837 131.731899 
L 575.842029 129.117092 
L 585.214432 125.831591 
L 594.331162 121.891833 
L 603.146613 117.317525 
" style="fill:none;stroke:#ffd700;stroke-linecap:square;stroke-width:2;"/>
   </g>
   <g id="line2d_78">
    <path clip-path="url(#pe393b341b1)" d="M 603.146613 117.317525 
L 611.616685 112.131551 
L 619.740963 106.41807 
L 627.574827 100.311765 
L 635.190309 93.934702 
L 642.670547 87.399249 
" style="fill:none;stroke:#ffd700;stroke-linecap:square;stroke-width:2;"/>
   </g>
   <g id="line2d_79">
    <path clip-path="url(#pe393b341b1)" d="M 603.146613 117.317525 
L 611.616685 112.131551 
L 619.699008 106.359853 
L 627.353152 100.031303 
L 634.540826 93.177559 
L 641.226074 85.832908 
" style="fill:none;stroke:#ffd700;stroke-linecap:square;stroke-width:2;"/>
   </g>
   <g id="line2d_80">
    <path clip-path="url(#pe393b341b1)" d="M 603.959108 119.287241 
L 613.215155 115.682673 
L 622.471201 112.078105 
L 631.727248 108.473538 
L 640.983295 104.86897 
L 650.239342 101.264402 
" style="fill:none;stroke:#ffd700;stroke-linecap:square;stroke-width:2;"/>
   </g>
   <g id="line2d_81">
    <path clip-path="url(#pe393b341b1)" d="M 603.959108 119.287241 
L 613.215155 115.682673 
L 622.445753 112.01359 
L 631.597224 108.151848 
L 640.607586 103.972163 
L 649.401151 99.354699 
" style="fill:none;stroke:#ffd700;stroke-linecap:square;stroke-width:2;"/>
   </g>
   <g id="line2d_82">
    <path clip-path="url(#pe393b341b1)" d="M 603.959108 119.287241 
L 613.215155 115.682673 
L 622.496086 112.14284 
L 631.849025 108.798439 
L 641.313041 105.783677 
L 650.913425 103.238015 
" style="fill:none;stroke:#ffd700;stroke-linecap:square;stroke-width:2;"/>
   </g>
   <g id="line2d_83">
    <path clip-path="url(#pe393b341b1)" d="M 556.598705 135.792144 
L 566.531848 135.616856 
L 576.46499 135.441568 
L 586.398132 135.26628 
L 596.331274 135.090992 
L 606.264416 134.915704 
" style="fill:none;stroke:#ffd700;stroke-linecap:square;stroke-width:2;"/>
   </g>
   <g id="line2d_84">
    <path clip-path="url(#pe393b341b1)" d="M 556.598705 135.792144 
L 566.531848 135.616856 
L 576.463463 135.372221 
L 586.387584 134.919413 
L 596.289458 134.119413 
L 606.139589 132.833564 
" style="fill:none;stroke:#ffd700;stroke-linecap:square;stroke-width:2;"/>
   </g>
   <g id="line2d_85">
    <path clip-path="url(#pe393b341b1)" d="M 556.598705 135.792144 
L 566.531848 135.616856 
L 576.465911 135.510926 
L 586.399829 135.613303 
L 596.323764 136.063442 
L 606.21313 137.000952 
" style="fill:none;stroke:#ffd700;stroke-linecap:square;stroke-width:2;"/>
   </g>
   <g id="line2d_86">
    <path clip-path="url(#pe393b341b1)" d="M 606.139589 132.833564 
L 615.886157 130.925461 
L 625.492505 128.402398 
L 634.963589 125.409915 
L 644.324372 122.087532 
L 653.613608 118.569549 
" style="fill:none;stroke:#ffd700;stroke-linecap:square;stroke-width:2;"/>
   </g>
   <g id="line2d_87">
    <path clip-path="url(#pe393b341b1)" d="M 606.139589 132.833564 
L 615.886157 130.925461 
L 625.492505 128.402398 
L 634.963589 125.409915 
L 644.324372 122.087532 
L 653.613608 118.569549 
" style="fill:none;stroke:#008000;stroke-linecap:square;stroke-width:3;"/>
   </g>
   <g id="line2d_88">
    <path clip-path="url(#pe393b341b1)" d="M 64.713323 145.064175 
" style="fill:none;stroke:#008000;stroke-linecap:square;stroke-width:3;"/>
   </g>
   <g id="line2d_89">
    <path clip-path="url(#pe393b341b1)" d="M 64.713323 145.064175 
L 74.646465 144.865512 
L 84.577918 144.597503 
L 94.501385 144.12133 
L 104.401789 143.298002 
L 114.249303 141.988928 
" style="fill:none;stroke:#008000;stroke-linecap:square;stroke-width:3;"/>
   </g>
   <g id="line2d_90">
    <path clip-path="url(#pe393b341b1)" d="M 114.249303 141.988928 
L 123.991354 140.057894 
L 133.572546 137.443087 
L 142.944949 134.157586 
L 152.061679 130.217828 
L 160.877129 125.643521 
" style="fill:none;stroke:#008000;stroke-linecap:square;stroke-width:3;"/>
   </g>
   <g id="line2d_91">
    <path clip-path="url(#pe393b341b1)" d="M 160.877129 125.643521 
L 169.347202 120.457546 
L 177.47148 114.744066 
L 185.305344 108.63776 
L 192.920826 102.260698 
L 200.401064 95.725245 
" style="fill:none;stroke:#008000;stroke-linecap:square;stroke-width:3;"/>
   </g>
   <g id="line2d_92">
    <path clip-path="url(#pe393b341b1)" d="M 200.401064 95.725245 
L 207.835534 89.137684 
L 215.315773 82.602231 
L 222.931254 76.225169 
L 230.765118 70.118863 
L 238.889396 64.405382 
" style="fill:none;stroke:#008000;stroke-linecap:square;stroke-width:3;"/>
   </g>
   <g id="line2d_93">
    <path clip-path="url(#pe393b341b1)" d="M 238.889396 64.405382 
L 247.359469 59.219408 
L 256.174919 54.6451 
L 265.291649 50.705342 
L 274.664052 47.419841 
L 284.245244 44.805034 
" style="fill:none;stroke:#008000;stroke-linecap:square;stroke-width:3;"/>
   </g>
   <g id="line2d_94">
    <path clip-path="url(#pe393b341b1)" d="M 284.245244 44.805034 
L 293.987295 42.874 
L 303.841472 41.6364 
L 313.758479 41.098424 
L 323.688708 41.262763 
L 333.582483 42.128596 
" style="fill:none;stroke:#008000;stroke-linecap:square;stroke-width:3;"/>
   </g>
   <g id="line2d_95">
    <path clip-path="url(#pe393b341b1)" d="M 333.582483 42.128596 
L 343.390312 43.691592 
L 353.063131 45.94393 
L 362.552552 48.874346 
L 371.811107 52.468178 
L 380.792478 56.707449 
" style="fill:none;stroke:#008000;stroke-linecap:square;stroke-width:3;"/>
   </g>
   <g id="line2d_96">
    <path clip-path="url(#pe393b341b1)" d="M 380.792478 56.707449 
L 389.451738 61.570953 
L 397.785303 66.974605 
L 405.843444 72.781734 
L 413.69355 78.867647 
L 421.414468 85.116929 
" style="fill:none;stroke:#008000;stroke-linecap:square;stroke-width:3;"/>
   </g>
   <g id="line2d_97">
    <path clip-path="url(#pe393b341b1)" d="M 421.414468 85.116929 
L 429.091613 91.420004 
L 436.812532 97.669286 
L 444.662637 103.755199 
L 452.720778 109.562328 
L 461.054343 114.96598 
" style="fill:none;stroke:#008000;stroke-linecap:square;stroke-width:3;"/>
   </g>
   <g id="line2d_98">
    <path clip-path="url(#pe393b341b1)" d="M 461.054343 114.96598 
L 469.713603 119.829484 
L 478.694975 124.068755 
L 487.953529 127.662587 
L 497.44295 130.593003 
L 507.115769 132.845341 
" style="fill:none;stroke:#008000;stroke-linecap:square;stroke-width:3;"/>
   </g>
   <g id="line2d_99">
    <path clip-path="url(#pe393b341b1)" d="M 507.115769 132.845341 
L 516.923598 134.408337 
L 526.811426 135.345683 
L 536.733817 135.795733 
L 546.666189 135.898076 
L 556.598705 135.792144 
" style="fill:none;stroke:#008000;stroke-linecap:square;stroke-width:3;"/>
   </g>
   <g id="line2d_100">
    <path clip-path="url(#pe393b341b1)" d="M 556.598705 135.792144 
L 566.531848 135.616856 
L 576.463463 135.372221 
L 586.387584 134.919413 
L 596.289458 134.119413 
L 606.139589 132.833564 
" style="fill:none;stroke:#008000;stroke-linecap:square;stroke-width:3;"/>
   </g>
   <g id="line2d_101">
    <path clip-path="url(#pe393b341b1)" d="M 606.139589 132.833564 
L 615.886157 130.925461 
L 625.492505 128.402398 
L 634.963589 125.409915 
L 644.324372 122.087532 
L 653.613608 118.569549 
" style="fill:none;stroke:#008000;stroke-linecap:square;stroke-width:3;"/>
   </g>
   <g id="line2d_102">
    <path clip-path="url(#pe393b341b1)" d="M 64.713323 145.064175 
" style="fill:none;stroke:#ffd700;stroke-linecap:square;stroke-width:1.5;"/>
    <defs>
     <path d="M 0 4 
C 1.060812 4 2.078319 3.578535 2.828427 2.828427 
C 3.578535 2.078319 4 1.060812 4 0 
C 4 -1.060812 3.578535 -2.078319 2.828427 -2.828427 
C 2.078319 -3.578535 1.060812 -4 0 -4 
C -1.060812 -4 -2.078319 -3.578535 -2.828427 -2.828427 
C -3.578535 -2.078319 -4 -1.060812 -4 0 
C -4 1.060812 -3.578535 2.078319 -2.828427 2.828427 
C -2.078319 3.578535 -1.060812 4 0 4 
z
" id="me48ddfc45c" style="stroke:#ffd700;"/>
    </defs>
    <g clip-path="url(#pe393b341b1)">
     <use style="fill:#ffd700;stroke:#ffd700;" x="64.713323" xlink:href="#me48ddfc45c" y="145.064175"/>
    </g>
   </g>
   <g id="line2d_103">
    <path clip-path="url(#pe393b341b1)" d="M 114.379034 144.070861 
" style="fill:none;stroke:#ffd700;stroke-linecap:square;stroke-width:1.5;"/>
    <g clip-path="url(#pe393b341b1)">
     <use style="fill:#ffd700;stroke:#ffd700;" x="114.379034" xlink:href="#me48ddfc45c" y="144.070861"/>
    </g>
   </g>
   <g id="line2d_104">
    <path clip-path="url(#pe393b341b1)" d="M 114.249303 141.988928 
" style="fill:none;stroke:#ffd700;stroke-linecap:square;stroke-width:1.5;"/>
    <g clip-path="url(#pe393b341b1)">
     <use style="fill:#ffd700;stroke:#ffd700;" x="114.249303" xlink:href="#me48ddfc45c" y="141.988928"/>
    </g>
   </g>
   <g id="line2d_105">
    <path clip-path="url(#pe393b341b1)" d="M 114.332651 146.156315 
" style="fill:none;stroke:#ffd700;stroke-linecap:square;stroke-width:1.5;"/>
    <g clip-path="url(#pe393b341b1)">
     <use style="fill:#ffd700;stroke:#ffd700;" x="114.332651" xlink:href="#me48ddfc45c" y="146.156315"/>
    </g>
   </g>
   <g id="line2d_106">
    <path clip-path="url(#pe393b341b1)" d="M 161.689624 127.613236 
" style="fill:none;stroke:#ffd700;stroke-linecap:square;stroke-width:1.5;"/>
    <g clip-path="url(#pe393b341b1)">
     <use style="fill:#ffd700;stroke:#ffd700;" x="161.689624" xlink:href="#me48ddfc45c" y="127.613236"/>
    </g>
   </g>
   <g id="line2d_107">
    <path clip-path="url(#pe393b341b1)" d="M 160.877129 125.643521 
" style="fill:none;stroke:#ffd700;stroke-linecap:square;stroke-width:1.5;"/>
    <g clip-path="url(#pe393b341b1)">
     <use style="fill:#ffd700;stroke:#ffd700;" x="160.877129" xlink:href="#me48ddfc45c" y="125.643521"/>
    </g>
   </g>
   <g id="line2d_108">
    <path clip-path="url(#pe393b341b1)" d="M 200.401064 95.725245 
" style="fill:none;stroke:#ffd700;stroke-linecap:square;stroke-width:1.5;"/>
    <g clip-path="url(#pe393b341b1)">
     <use style="fill:#ffd700;stroke:#ffd700;" x="200.401064" xlink:href="#me48ddfc45c" y="95.725245"/>
    </g>
   </g>
   <g id="line2d_109">
    <path clip-path="url(#pe393b341b1)" d="M 198.956591 94.158903 
" style="fill:none;stroke:#ffd700;stroke-linecap:square;stroke-width:1.5;"/>
    <g clip-path="url(#pe393b341b1)">
     <use style="fill:#ffd700;stroke:#ffd700;" x="198.956591" xlink:href="#me48ddfc45c" y="94.158903"/>
    </g>
   </g>
   <g id="line2d_110">
    <path clip-path="url(#pe393b341b1)" d="M 225.670525 52.402342 
" style="fill:none;stroke:#ffd700;stroke-linecap:square;stroke-width:1.5;"/>
    <g clip-path="url(#pe393b341b1)">
     <use style="fill:#ffd700;stroke:#ffd700;" x="225.670525" xlink:href="#me48ddfc45c" y="52.402342"/>
    </g>
   </g>
   <g id="line2d_111">
    <path clip-path="url(#pe393b341b1)" d="M 223.77292 51.433309 
" style="fill:none;stroke:#ffd700;stroke-linecap:square;stroke-width:1.5;"/>
    <g clip-path="url(#pe393b341b1)">
     <use style="fill:#ffd700;stroke:#ffd700;" x="223.77292" xlink:href="#me48ddfc45c" y="51.433309"/>
    </g>
   </g>
   <g id="line2d_112">
    <path clip-path="url(#pe393b341b1)" d="M 249.132543 8.627732 
" style="fill:none;stroke:#ffd700;stroke-linecap:square;stroke-width:1.5;"/>
    <g clip-path="url(#pe393b341b1)">
     <use style="fill:#ffd700;stroke:#ffd700;" x="249.132543" xlink:href="#me48ddfc45c" y="8.627732"/>
    </g>
   </g>
   <g id="line2d_113">
    <path clip-path="url(#pe393b341b1)" d="M 247.254409 7.721009 
" style="fill:none;stroke:#ffd700;stroke-linecap:square;stroke-width:1.5;"/>
    <g clip-path="url(#pe393b341b1)">
     <use style="fill:#ffd700;stroke:#ffd700;" x="247.254409" xlink:href="#me48ddfc45c" y="7.721009"/>
    </g>
   </g>
   <g id="line2d_114">
    <path clip-path="url(#pe393b341b1)" d="M 250.927481 9.689678 
" style="fill:none;stroke:#ffd700;stroke-linecap:square;stroke-width:1.5;"/>
    <g clip-path="url(#pe393b341b1)">
     <use style="fill:#ffd700;stroke:#ffd700;" x="250.927481" xlink:href="#me48ddfc45c" y="9.689678"/>
    </g>
   </g>
   <g id="line2d_115">
    <path clip-path="url(#pe393b341b1)" d="M 234.369296 3.008507 
" style="fill:none;stroke:#ffd700;stroke-linecap:square;stroke-width:1.5;"/>
    <g clip-path="url(#pe393b341b1)">
     <use style="fill:#ffd700;stroke:#ffd700;" x="234.369296" xlink:href="#me48ddfc45c" y="3.008507"/>
    </g>
   </g>
   <g id="line2d_116">
    <path clip-path="url(#pe393b341b1)" d="M 232.25351 2.756763 
" style="fill:none;stroke:#ffd700;stroke-linecap:square;stroke-width:1.5;"/>
    <g clip-path="url(#pe393b341b1)">
     <use style="fill:#ffd700;stroke:#ffd700;" x="232.25351" xlink:href="#me48ddfc45c" y="2.756763"/>
    </g>
   </g>
   <g id="line2d_117">
    <path clip-path="url(#pe393b341b1)" d="M 237.573418 62.787441 
" style="fill:none;stroke:#ffd700;stroke-linecap:square;stroke-width:1.5;"/>
    <g clip-path="url(#pe393b341b1)">
     <use style="fill:#ffd700;stroke:#ffd700;" x="237.573418" xlink:href="#me48ddfc45c" y="62.787441"/>
    </g>
   </g>
   <g id="line2d_118">
    <path clip-path="url(#pe393b341b1)" d="M 236.125627 61.286296 
" style="fill:none;stroke:#ffd700;stroke-linecap:square;stroke-width:1.5;"/>
    <g clip-path="url(#pe393b341b1)">
     <use style="fill:#ffd700;stroke:#ffd700;" x="236.125627" xlink:href="#me48ddfc45c" y="61.286296"/>
    </g>
   </g>
   <g id="line2d_119">
    <path clip-path="url(#pe393b341b1)" d="M 238.889396 64.405382 
" style="fill:none;stroke:#ffd700;stroke-linecap:square;stroke-width:1.5;"/>
    <g clip-path="url(#pe393b341b1)">
     <use style="fill:#ffd700;stroke:#ffd700;" x="238.889396" xlink:href="#me48ddfc45c" y="64.405382"/>
    </g>
   </g>
   <g id="line2d_120">
    <path clip-path="url(#pe393b341b1)" d="M 262.937748 19.592715 
" style="fill:none;stroke:#ffd700;stroke-linecap:square;stroke-width:1.5;"/>
    <g clip-path="url(#pe393b341b1)">
     <use style="fill:#ffd700;stroke:#ffd700;" x="262.937748" xlink:href="#me48ddfc45c" y="19.592715"/>
    </g>
   </g>
   <g id="line2d_121">
    <path clip-path="url(#pe393b341b1)" d="M 261.042429 18.619219 
" style="fill:none;stroke:#ffd700;stroke-linecap:square;stroke-width:1.5;"/>
    <g clip-path="url(#pe393b341b1)">
     <use style="fill:#ffd700;stroke:#ffd700;" x="261.042429" xlink:href="#me48ddfc45c" y="18.619219"/>
    </g>
   </g>
   <g id="line2d_122">
    <path clip-path="url(#pe393b341b1)" d="M 274.745772 29.849637 
" style="fill:none;stroke:#ffd700;stroke-linecap:square;stroke-width:1.5;"/>
    <g clip-path="url(#pe393b341b1)">
     <use style="fill:#ffd700;stroke:#ffd700;" x="274.745772" xlink:href="#me48ddfc45c" y="29.849637"/>
    </g>
   </g>
   <g id="line2d_123">
    <path clip-path="url(#pe393b341b1)" d="M 273.297981 28.348493 
" style="fill:none;stroke:#ffd700;stroke-linecap:square;stroke-width:1.5;"/>
    <g clip-path="url(#pe393b341b1)">
     <use style="fill:#ffd700;stroke:#ffd700;" x="273.297981" xlink:href="#me48ddfc45c" y="28.348493"/>
    </g>
   </g>
   <g id="line2d_124">
    <path clip-path="url(#pe393b341b1)" d="M 276.06175 31.467578 
" style="fill:none;stroke:#ffd700;stroke-linecap:square;stroke-width:1.5;"/>
    <g clip-path="url(#pe393b341b1)">
     <use style="fill:#ffd700;stroke:#ffd700;" x="276.06175" xlink:href="#me48ddfc45c" y="31.467578"/>
    </g>
   </g>
   <g id="line2d_125">
    <path clip-path="url(#pe393b341b1)" d="M 283.506942 42.806325 
" style="fill:none;stroke:#ffd700;stroke-linecap:square;stroke-width:1.5;"/>
    <g clip-path="url(#pe393b341b1)">
     <use style="fill:#ffd700;stroke:#ffd700;" x="283.506942" xlink:href="#me48ddfc45c" y="42.806325"/>
    </g>
   </g>
   <g id="line2d_126">
    <path clip-path="url(#pe393b341b1)" d="M 284.245244 44.805034 
" style="fill:none;stroke:#ffd700;stroke-linecap:square;stroke-width:1.5;"/>
    <g clip-path="url(#pe393b341b1)">
     <use style="fill:#ffd700;stroke:#ffd700;" x="284.245244" xlink:href="#me48ddfc45c" y="44.805034"/>
    </g>
   </g>
   <g id="line2d_127">
    <path clip-path="url(#pe393b341b1)" d="M 329.744637 24.674629 
" style="fill:none;stroke:#ffd700;stroke-linecap:square;stroke-width:1.5;"/>
    <g clip-path="url(#pe393b341b1)">
     <use style="fill:#ffd700;stroke:#ffd700;" x="329.744637" xlink:href="#me48ddfc45c" y="24.674629"/>
    </g>
   </g>
   <g id="line2d_128">
    <path clip-path="url(#pe393b341b1)" d="M 328.901954 22.766903 
" style="fill:none;stroke:#ffd700;stroke-linecap:square;stroke-width:1.5;"/>
    <g clip-path="url(#pe393b341b1)">
     <use style="fill:#ffd700;stroke:#ffd700;" x="328.901954" xlink:href="#me48ddfc45c" y="22.766903"/>
    </g>
   </g>
   <g id="line2d_129">
    <path clip-path="url(#pe393b341b1)" d="M 330.423361 26.64665 
" style="fill:none;stroke:#ffd700;stroke-linecap:square;stroke-width:1.5;"/>
    <g clip-path="url(#pe393b341b1)">
     <use style="fill:#ffd700;stroke:#ffd700;" x="330.423361" xlink:href="#me48ddfc45c" y="26.64665"/>
    </g>
   </g>
   <g id="line2d_130">
    <path clip-path="url(#pe393b341b1)" d="M 333.582207 39.997886 
" style="fill:none;stroke:#ffd700;stroke-linecap:square;stroke-width:1.5;"/>
    <g clip-path="url(#pe393b341b1)">
     <use style="fill:#ffd700;stroke:#ffd700;" x="333.582207" xlink:href="#me48ddfc45c" y="39.997886"/>
    </g>
   </g>
   <g id="line2d_131">
    <path clip-path="url(#pe393b341b1)" d="M 333.582483 42.128596 
" style="fill:none;stroke:#ffd700;stroke-linecap:square;stroke-width:1.5;"/>
    <g clip-path="url(#pe393b341b1)">
     <use style="fill:#ffd700;stroke:#ffd700;" x="333.582483" xlink:href="#me48ddfc45c" y="42.128596"/>
    </g>
   </g>
   <g id="line2d_132">
    <path clip-path="url(#pe393b341b1)" d="M 383.247918 39.004572 
" style="fill:none;stroke:#ffd700;stroke-linecap:square;stroke-width:1.5;"/>
    <g clip-path="url(#pe393b341b1)">
     <use style="fill:#ffd700;stroke:#ffd700;" x="383.247918" xlink:href="#me48ddfc45c" y="39.004572"/>
    </g>
   </g>
   <g id="line2d_133">
    <path clip-path="url(#pe393b341b1)" d="M 383.118187 36.922639 
" style="fill:none;stroke:#ffd700;stroke-linecap:square;stroke-width:1.5;"/>
    <g clip-path="url(#pe393b341b1)">
     <use style="fill:#ffd700;stroke:#ffd700;" x="383.118187" xlink:href="#me48ddfc45c" y="36.922639"/>
    </g>
   </g>
   <g id="line2d_134">
    <path clip-path="url(#pe393b341b1)" d="M 383.201535 41.090026 
" style="fill:none;stroke:#ffd700;stroke-linecap:square;stroke-width:1.5;"/>
    <g clip-path="url(#pe393b341b1)">
     <use style="fill:#ffd700;stroke:#ffd700;" x="383.201535" xlink:href="#me48ddfc45c" y="41.090026"/>
    </g>
   </g>
   <g id="line2d_135">
    <path clip-path="url(#pe393b341b1)" d="M 430.558508 22.546947 
" style="fill:none;stroke:#ffd700;stroke-linecap:square;stroke-width:1.5;"/>
    <g clip-path="url(#pe393b341b1)">
     <use style="fill:#ffd700;stroke:#ffd700;" x="430.558508" xlink:href="#me48ddfc45c" y="22.546947"/>
    </g>
   </g>
   <g id="line2d_136">
    <path clip-path="url(#pe393b341b1)" d="M 429.746013 20.577231 
" style="fill:none;stroke:#ffd700;stroke-linecap:square;stroke-width:1.5;"/>
    <g clip-path="url(#pe393b341b1)">
     <use style="fill:#ffd700;stroke:#ffd700;" x="429.746013" xlink:href="#me48ddfc45c" y="20.577231"/>
    </g>
   </g>
   <g id="line2d_137">
    <path clip-path="url(#pe393b341b1)" d="M 432.913629 38.011257 
" style="fill:none;stroke:#ffd700;stroke-linecap:square;stroke-width:1.5;"/>
    <g clip-path="url(#pe393b341b1)">
     <use style="fill:#ffd700;stroke:#ffd700;" x="432.913629" xlink:href="#me48ddfc45c" y="38.011257"/>
    </g>
   </g>
   <g id="line2d_138">
    <path clip-path="url(#pe393b341b1)" d="M 432.783898 35.929325 
" style="fill:none;stroke:#ffd700;stroke-linecap:square;stroke-width:1.5;"/>
    <g clip-path="url(#pe393b341b1)">
     <use style="fill:#ffd700;stroke:#ffd700;" x="432.783898" xlink:href="#me48ddfc45c" y="35.929325"/>
    </g>
   </g>
   <g id="line2d_139">
    <path clip-path="url(#pe393b341b1)" d="M 432.867246 40.096712 
" style="fill:none;stroke:#ffd700;stroke-linecap:square;stroke-width:1.5;"/>
    <g clip-path="url(#pe393b341b1)">
     <use style="fill:#ffd700;stroke:#ffd700;" x="432.867246" xlink:href="#me48ddfc45c" y="40.096712"/>
    </g>
   </g>
   <g id="line2d_140">
    <path clip-path="url(#pe393b341b1)" d="M 480.224219 21.553633 
" style="fill:none;stroke:#ffd700;stroke-linecap:square;stroke-width:1.5;"/>
    <g clip-path="url(#pe393b341b1)">
     <use style="fill:#ffd700;stroke:#ffd700;" x="480.224219" xlink:href="#me48ddfc45c" y="21.553633"/>
    </g>
   </g>
   <g id="line2d_141">
    <path clip-path="url(#pe393b341b1)" d="M 479.411724 19.583917 
" style="fill:none;stroke:#ffd700;stroke-linecap:square;stroke-width:1.5;"/>
    <g clip-path="url(#pe393b341b1)">
     <use style="fill:#ffd700;stroke:#ffd700;" x="479.411724" xlink:href="#me48ddfc45c" y="19.583917"/>
    </g>
   </g>
   <g id="line2d_142">
    <path clip-path="url(#pe393b341b1)" d="M 482.579339 37.017943 
" style="fill:none;stroke:#ffd700;stroke-linecap:square;stroke-width:1.5;"/>
    <g clip-path="url(#pe393b341b1)">
     <use style="fill:#ffd700;stroke:#ffd700;" x="482.579339" xlink:href="#me48ddfc45c" y="37.017943"/>
    </g>
   </g>
   <g id="line2d_143">
    <path clip-path="url(#pe393b341b1)" d="M 482.449609 34.936011 
" style="fill:none;stroke:#ffd700;stroke-linecap:square;stroke-width:1.5;"/>
    <g clip-path="url(#pe393b341b1)">
     <use style="fill:#ffd700;stroke:#ffd700;" x="482.449609" xlink:href="#me48ddfc45c" y="34.936011"/>
    </g>
   </g>
   <g id="line2d_144">
    <path clip-path="url(#pe393b341b1)" d="M 482.532956 39.103398 
" style="fill:none;stroke:#ffd700;stroke-linecap:square;stroke-width:1.5;"/>
    <g clip-path="url(#pe393b341b1)">
     <use style="fill:#ffd700;stroke:#ffd700;" x="482.532956" xlink:href="#me48ddfc45c" y="39.103398"/>
    </g>
   </g>
   <g id="line2d_145">
    <path clip-path="url(#pe393b341b1)" d="M 480.844494 52.563798 
" style="fill:none;stroke:#ffd700;stroke-linecap:square;stroke-width:1.5;"/>
    <g clip-path="url(#pe393b341b1)">
     <use style="fill:#ffd700;stroke:#ffd700;" x="480.844494" xlink:href="#me48ddfc45c" y="52.563798"/>
    </g>
   </g>
   <g id="line2d_146">
    <path clip-path="url(#pe393b341b1)" d="M 480.111417 54.564429 
" style="fill:none;stroke:#ffd700;stroke-linecap:square;stroke-width:1.5;"/>
    <g clip-path="url(#pe393b341b1)">
     <use style="fill:#ffd700;stroke:#ffd700;" x="480.111417" xlink:href="#me48ddfc45c" y="54.564429"/>
    </g>
   </g>
   <g id="line2d_147">
    <path clip-path="url(#pe393b341b1)" d="M 431.178783 53.557113 
" style="fill:none;stroke:#ffd700;stroke-linecap:square;stroke-width:1.5;"/>
    <g clip-path="url(#pe393b341b1)">
     <use style="fill:#ffd700;stroke:#ffd700;" x="431.178783" xlink:href="#me48ddfc45c" y="53.557113"/>
    </g>
   </g>
   <g id="line2d_148">
    <path clip-path="url(#pe393b341b1)" d="M 430.445706 55.557744 
" style="fill:none;stroke:#ffd700;stroke-linecap:square;stroke-width:1.5;"/>
    <g clip-path="url(#pe393b341b1)">
     <use style="fill:#ffd700;stroke:#ffd700;" x="430.445706" xlink:href="#me48ddfc45c" y="55.557744"/>
    </g>
   </g>
   <g id="line2d_149">
    <path clip-path="url(#pe393b341b1)" d="M 478.14272 69.714819 
" style="fill:none;stroke:#ffd700;stroke-linecap:square;stroke-width:1.5;"/>
    <g clip-path="url(#pe393b341b1)">
     <use style="fill:#ffd700;stroke:#ffd700;" x="478.14272" xlink:href="#me48ddfc45c" y="69.714819"/>
    </g>
   </g>
   <g id="line2d_150">
    <path clip-path="url(#pe393b341b1)" d="M 478.73734 67.715829 
" style="fill:none;stroke:#ffd700;stroke-linecap:square;stroke-width:1.5;"/>
    <g clip-path="url(#pe393b341b1)">
     <use style="fill:#ffd700;stroke:#ffd700;" x="478.73734" xlink:href="#me48ddfc45c" y="67.715829"/>
    </g>
   </g>
   <g id="line2d_151">
    <path clip-path="url(#pe393b341b1)" d="M 477.381567 71.656514 
" style="fill:none;stroke:#ffd700;stroke-linecap:square;stroke-width:1.5;"/>
    <g clip-path="url(#pe393b341b1)">
     <use style="fill:#ffd700;stroke:#ffd700;" x="477.381567" xlink:href="#me48ddfc45c" y="71.656514"/>
    </g>
   </g>
   <g id="line2d_152">
    <path clip-path="url(#pe393b341b1)" d="M 471.134437 83.871552 
" style="fill:none;stroke:#ffd700;stroke-linecap:square;stroke-width:1.5;"/>
    <g clip-path="url(#pe393b341b1)">
     <use style="fill:#ffd700;stroke:#ffd700;" x="471.134437" xlink:href="#me48ddfc45c" y="83.871552"/>
    </g>
   </g>
   <g id="line2d_153">
    <path clip-path="url(#pe393b341b1)" d="M 469.753757 85.494405 
" style="fill:none;stroke:#ffd700;stroke-linecap:square;stroke-width:1.5;"/>
    <g clip-path="url(#pe393b341b1)">
     <use style="fill:#ffd700;stroke:#ffd700;" x="469.753757" xlink:href="#me48ddfc45c" y="85.494405"/>
    </g>
   </g>
   <g id="line2d_154">
    <path clip-path="url(#pe393b341b1)" d="M 381.530261 54.708549 
" style="fill:none;stroke:#ffd700;stroke-linecap:square;stroke-width:1.5;"/>
    <g clip-path="url(#pe393b341b1)">
     <use style="fill:#ffd700;stroke:#ffd700;" x="381.530261" xlink:href="#me48ddfc45c" y="54.708549"/>
    </g>
   </g>
   <g id="line2d_155">
    <path clip-path="url(#pe393b341b1)" d="M 380.792478 56.707449 
" style="fill:none;stroke:#ffd700;stroke-linecap:square;stroke-width:1.5;"/>
    <g clip-path="url(#pe393b341b1)">
     <use style="fill:#ffd700;stroke:#ffd700;" x="380.792478" xlink:href="#me48ddfc45c" y="56.707449"/>
    </g>
   </g>
   <g id="line2d_156">
    <path clip-path="url(#pe393b341b1)" d="M 428.456046 70.976726 
" style="fill:none;stroke:#ffd700;stroke-linecap:square;stroke-width:1.5;"/>
    <g clip-path="url(#pe393b341b1)">
     <use style="fill:#ffd700;stroke:#ffd700;" x="428.456046" xlink:href="#me48ddfc45c" y="70.976726"/>
    </g>
   </g>
   <g id="line2d_157">
    <path clip-path="url(#pe393b341b1)" d="M 429.055368 68.979141 
" style="fill:none;stroke:#ffd700;stroke-linecap:square;stroke-width:1.5;"/>
    <g clip-path="url(#pe393b341b1)">
     <use style="fill:#ffd700;stroke:#ffd700;" x="429.055368" xlink:href="#me48ddfc45c" y="68.979141"/>
    </g>
   </g>
   <g id="line2d_158">
    <path clip-path="url(#pe393b341b1)" d="M 427.690325 72.916625 
" style="fill:none;stroke:#ffd700;stroke-linecap:square;stroke-width:1.5;"/>
    <g clip-path="url(#pe393b341b1)">
     <use style="fill:#ffd700;stroke:#ffd700;" x="427.690325" xlink:href="#me48ddfc45c" y="72.916625"/>
    </g>
   </g>
   <g id="line2d_159">
    <path clip-path="url(#pe393b341b1)" d="M 478.538304 71.925944 
" style="fill:none;stroke:#ffd700;stroke-linecap:square;stroke-width:1.5;"/>
    <g clip-path="url(#pe393b341b1)">
     <use style="fill:#ffd700;stroke:#ffd700;" x="478.538304" xlink:href="#me48ddfc45c" y="71.925944"/>
    </g>
   </g>
   <g id="line2d_160">
    <path clip-path="url(#pe393b341b1)" d="M 478.458385 69.796733 
" style="fill:none;stroke:#ffd700;stroke-linecap:square;stroke-width:1.5;"/>
    <g clip-path="url(#pe393b341b1)">
     <use style="fill:#ffd700;stroke:#ffd700;" x="478.458385" xlink:href="#me48ddfc45c" y="69.796733"/>
    </g>
   </g>
   <g id="line2d_161">
    <path clip-path="url(#pe393b341b1)" d="M 475.38183 87.244904 
" style="fill:none;stroke:#ffd700;stroke-linecap:square;stroke-width:1.5;"/>
    <g clip-path="url(#pe393b341b1)">
     <use style="fill:#ffd700;stroke:#ffd700;" x="475.38183" xlink:href="#me48ddfc45c" y="87.244904"/>
    </g>
   </g>
   <g id="line2d_162">
    <path clip-path="url(#pe393b341b1)" d="M 475.981152 85.247319 
" style="fill:none;stroke:#ffd700;stroke-linecap:square;stroke-width:1.5;"/>
    <g clip-path="url(#pe393b341b1)">
     <use style="fill:#ffd700;stroke:#ffd700;" x="475.981152" xlink:href="#me48ddfc45c" y="85.247319"/>
    </g>
   </g>
   <g id="line2d_163">
    <path clip-path="url(#pe393b341b1)" d="M 474.61611 89.184803 
" style="fill:none;stroke:#ffd700;stroke-linecap:square;stroke-width:1.5;"/>
    <g clip-path="url(#pe393b341b1)">
     <use style="fill:#ffd700;stroke:#ffd700;" x="474.61611" xlink:href="#me48ddfc45c" y="89.184803"/>
    </g>
   </g>
   <g id="line2d_164">
    <path clip-path="url(#pe393b341b1)" d="M 468.379057 101.230434 
" style="fill:none;stroke:#ffd700;stroke-linecap:square;stroke-width:1.5;"/>
    <g clip-path="url(#pe393b341b1)">
     <use style="fill:#ffd700;stroke:#ffd700;" x="468.379057" xlink:href="#me48ddfc45c" y="101.230434"/>
    </g>
   </g>
   <g id="line2d_165">
    <path clip-path="url(#pe393b341b1)" d="M 466.998376 102.853286 
" style="fill:none;stroke:#ffd700;stroke-linecap:square;stroke-width:1.5;"/>
    <g clip-path="url(#pe393b341b1)">
     <use style="fill:#ffd700;stroke:#ffd700;" x="466.998376" xlink:href="#me48ddfc45c" y="102.853286"/>
    </g>
   </g>
   <g id="line2d_166">
    <path clip-path="url(#pe393b341b1)" d="M 421.414468 85.116929 
" style="fill:none;stroke:#ffd700;stroke-linecap:square;stroke-width:1.5;"/>
    <g clip-path="url(#pe393b341b1)">
     <use style="fill:#ffd700;stroke:#ffd700;" x="421.414468" xlink:href="#me48ddfc45c" y="85.116929"/>
    </g>
   </g>
   <g id="line2d_167">
    <path clip-path="url(#pe393b341b1)" d="M 420.029973 86.736528 
" style="fill:none;stroke:#ffd700;stroke-linecap:square;stroke-width:1.5;"/>
    <g clip-path="url(#pe393b341b1)">
     <use style="fill:#ffd700;stroke:#ffd700;" x="420.029973" xlink:href="#me48ddfc45c" y="86.736528"/>
    </g>
   </g>
   <g id="line2d_168">
    <path clip-path="url(#pe393b341b1)" d="M 459.800193 116.632305 
" style="fill:none;stroke:#ffd700;stroke-linecap:square;stroke-width:1.5;"/>
    <g clip-path="url(#pe393b341b1)">
     <use style="fill:#ffd700;stroke:#ffd700;" x="459.800193" xlink:href="#me48ddfc45c" y="116.632305"/>
    </g>
   </g>
   <g id="line2d_169">
    <path clip-path="url(#pe393b341b1)" d="M 461.054343 114.96598 
" style="fill:none;stroke:#ffd700;stroke-linecap:square;stroke-width:1.5;"/>
    <g clip-path="url(#pe393b341b1)">
     <use style="fill:#ffd700;stroke:#ffd700;" x="461.054343" xlink:href="#me48ddfc45c" y="114.96598"/>
    </g>
   </g>
   <g id="line2d_170">
    <path clip-path="url(#pe393b341b1)" d="M 458.409928 118.186878 
" style="fill:none;stroke:#ffd700;stroke-linecap:square;stroke-width:1.5;"/>
    <g clip-path="url(#pe393b341b1)">
     <use style="fill:#ffd700;stroke:#ffd700;" x="458.409928" xlink:href="#me48ddfc45c" y="118.186878"/>
    </g>
   </g>
   <g id="line2d_171">
    <path clip-path="url(#pe393b341b1)" d="M 448.296607 127.458045 
" style="fill:none;stroke:#ffd700;stroke-linecap:square;stroke-width:1.5;"/>
    <g clip-path="url(#pe393b341b1)">
     <use style="fill:#ffd700;stroke:#ffd700;" x="448.296607" xlink:href="#me48ddfc45c" y="127.458045"/>
    </g>
   </g>
   <g id="line2d_172">
    <path clip-path="url(#pe393b341b1)" d="M 446.436819 128.497813 
" style="fill:none;stroke:#ffd700;stroke-linecap:square;stroke-width:1.5;"/>
    <g clip-path="url(#pe393b341b1)">
     <use style="fill:#ffd700;stroke:#ffd700;" x="446.436819" xlink:href="#me48ddfc45c" y="128.497813"/>
    </g>
   </g>
   <g id="line2d_173">
    <path clip-path="url(#pe393b341b1)" d="M 506.453218 134.870422 
" style="fill:none;stroke:#ffd700;stroke-linecap:square;stroke-width:1.5;"/>
    <g clip-path="url(#pe393b341b1)">
     <use style="fill:#ffd700;stroke:#ffd700;" x="506.453218" xlink:href="#me48ddfc45c" y="134.870422"/>
    </g>
   </g>
   <g id="line2d_174">
    <path clip-path="url(#pe393b341b1)" d="M 507.115769 132.845341 
" style="fill:none;stroke:#ffd700;stroke-linecap:square;stroke-width:1.5;"/>
    <g clip-path="url(#pe393b341b1)">
     <use style="fill:#ffd700;stroke:#ffd700;" x="507.115769" xlink:href="#me48ddfc45c" y="132.845341"/>
    </g>
   </g>
   <g id="line2d_175">
    <path clip-path="url(#pe393b341b1)" d="M 556.598705 135.792144 
" style="fill:none;stroke:#ffd700;stroke-linecap:square;stroke-width:1.5;"/>
    <g clip-path="url(#pe393b341b1)">
     <use style="fill:#ffd700;stroke:#ffd700;" x="556.598705" xlink:href="#me48ddfc45c" y="135.792144"/>
    </g>
   </g>
   <g id="line2d_176">
    <path clip-path="url(#pe393b341b1)" d="M 556.518786 133.662933 
" style="fill:none;stroke:#ffd700;stroke-linecap:square;stroke-width:1.5;"/>
    <g clip-path="url(#pe393b341b1)">
     <use style="fill:#ffd700;stroke:#ffd700;" x="556.518786" xlink:href="#me48ddfc45c" y="133.662933"/>
    </g>
   </g>
   <g id="line2d_177">
    <path clip-path="url(#pe393b341b1)" d="M 603.959108 119.287241 
" style="fill:none;stroke:#ffd700;stroke-linecap:square;stroke-width:1.5;"/>
    <g clip-path="url(#pe393b341b1)">
     <use style="fill:#ffd700;stroke:#ffd700;" x="603.959108" xlink:href="#me48ddfc45c" y="119.287241"/>
    </g>
   </g>
   <g id="line2d_178">
    <path clip-path="url(#pe393b341b1)" d="M 603.146613 117.317525 
" style="fill:none;stroke:#ffd700;stroke-linecap:square;stroke-width:1.5;"/>
    <g clip-path="url(#pe393b341b1)">
     <use style="fill:#ffd700;stroke:#ffd700;" x="603.146613" xlink:href="#me48ddfc45c" y="117.317525"/>
    </g>
   </g>
   <g id="line2d_179">
    <path clip-path="url(#pe393b341b1)" d="M 642.670547 87.399249 
" style="fill:none;stroke:#ffd700;stroke-linecap:square;stroke-width:1.5;"/>
    <g clip-path="url(#pe393b341b1)">
     <use style="fill:#ffd700;stroke:#ffd700;" x="642.670547" xlink:href="#me48ddfc45c" y="87.399249"/>
    </g>
   </g>
   <g id="line2d_180">
    <path clip-path="url(#pe393b341b1)" d="M 641.226074 85.832908 
" style="fill:none;stroke:#ffd700;stroke-linecap:square;stroke-width:1.5;"/>
    <g clip-path="url(#pe393b341b1)">
     <use style="fill:#ffd700;stroke:#ffd700;" x="641.226074" xlink:href="#me48ddfc45c" y="85.832908"/>
    </g>
   </g>
   <g id="line2d_181">
    <path clip-path="url(#pe393b341b1)" d="M 650.239342 101.264402 
" style="fill:none;stroke:#ffd700;stroke-linecap:square;stroke-width:1.5;"/>
    <g clip-path="url(#pe393b341b1)">
     <use style="fill:#ffd700;stroke:#ffd700;" x="650.239342" xlink:href="#me48ddfc45c" y="101.264402"/>
    </g>
   </g>
   <g id="line2d_182">
    <path clip-path="url(#pe393b341b1)" d="M 649.401151 99.354699 
" style="fill:none;stroke:#ffd700;stroke-linecap:square;stroke-width:1.5;"/>
    <g clip-path="url(#pe393b341b1)">
     <use style="fill:#ffd700;stroke:#ffd700;" x="649.401151" xlink:href="#me48ddfc45c" y="99.354699"/>
    </g>
   </g>
   <g id="line2d_183">
    <path clip-path="url(#pe393b341b1)" d="M 650.913425 103.238015 
" style="fill:none;stroke:#ffd700;stroke-linecap:square;stroke-width:1.5;"/>
    <g clip-path="url(#pe393b341b1)">
     <use style="fill:#ffd700;stroke:#ffd700;" x="650.913425" xlink:href="#me48ddfc45c" y="103.238015"/>
    </g>
   </g>
   <g id="line2d_184">
    <path clip-path="url(#pe393b341b1)" d="M 606.264416 134.915704 
" style="fill:none;stroke:#ffd700;stroke-linecap:square;stroke-width:1.5;"/>
    <g clip-path="url(#pe393b341b1)">
     <use style="fill:#ffd700;stroke:#ffd700;" x="606.264416" xlink:href="#me48ddfc45c" y="134.915704"/>
    </g>
   </g>
   <g id="line2d_185">
    <path clip-path="url(#pe393b341b1)" d="M 606.139589 132.833564 
" style="fill:none;stroke:#ffd700;stroke-linecap:square;stroke-width:1.5;"/>
    <g clip-path="url(#pe393b341b1)">
     <use style="fill:#ffd700;stroke:#ffd700;" x="606.139589" xlink:href="#me48ddfc45c" y="132.833564"/>
    </g>
   </g>
   <g id="line2d_186">
    <path clip-path="url(#pe393b341b1)" d="M 606.21313 137.000952 
" style="fill:none;stroke:#ffd700;stroke-linecap:square;stroke-width:1.5;"/>
    <g clip-path="url(#pe393b341b1)">
     <use style="fill:#ffd700;stroke:#ffd700;" x="606.21313" xlink:href="#me48ddfc45c" y="137.000952"/>
    </g>
   </g>
   <g id="line2d_187">
    <path clip-path="url(#pe393b341b1)" d="M 653.613608 118.569549 
" style="fill:none;stroke:#ffd700;stroke-linecap:square;stroke-width:1.5;"/>
    <g clip-path="url(#pe393b341b1)">
     <use style="fill:#ffd700;stroke:#ffd700;" x="653.613608" xlink:href="#me48ddfc45c" y="118.569549"/>
    </g>
   </g>
   <g id="line2d_188">
    <path clip-path="url(#pe393b341b1)" d="M 653.613608 118.569549 
" style="fill:none;stroke:#008000;stroke-linecap:square;stroke-width:1.5;"/>
    <defs>
     <path d="M 0 4 
C 1.060812 4 2.078319 3.578535 2.828427 2.828427 
C 3.578535 2.078319 4 1.060812 4 0 
C 4 -1.060812 3.578535 -2.078319 2.828427 -2.828427 
C 2.078319 -3.578535 1.060812 -4 0 -4 
C -1.060812 -4 -2.078319 -3.578535 -2.828427 -2.828427 
C -3.578535 -2.078319 -4 -1.060812 -4 0 
C -4 1.060812 -3.578535 2.078319 -2.828427 2.828427 
C -2.078319 3.578535 -1.060812 4 0 4 
z
" id="m7d6420b8ca" style="stroke:#008000;"/>
    </defs>
    <g clip-path="url(#pe393b341b1)">
     <use style="fill:#008000;stroke:#008000;" x="653.613608" xlink:href="#m7d6420b8ca" y="118.569549"/>
    </g>
   </g>
   <g id="line2d_189">
    <path clip-path="url(#pe393b341b1)" d="M 64.713323 145.064175 
" style="fill:none;stroke:#008000;stroke-linecap:square;stroke-width:1.5;"/>
    <g clip-path="url(#pe393b341b1)">
     <use style="fill:#008000;stroke:#008000;" x="64.713323" xlink:href="#m7d6420b8ca" y="145.064175"/>
    </g>
   </g>
   <g id="line2d_190">
    <path clip-path="url(#pe393b341b1)" d="M 114.249303 141.988928 
" style="fill:none;stroke:#008000;stroke-linecap:square;stroke-width:1.5;"/>
    <g clip-path="url(#pe393b341b1)">
     <use style="fill:#008000;stroke:#008000;" x="114.249303" xlink:href="#m7d6420b8ca" y="141.988928"/>
    </g>
   </g>
   <g id="line2d_191">
    <path clip-path="url(#pe393b341b1)" d="M 160.877129 125.643521 
" style="fill:none;stroke:#008000;stroke-linecap:square;stroke-width:1.5;"/>
    <g clip-path="url(#pe393b341b1)">
     <use style="fill:#008000;stroke:#008000;" x="160.877129" xlink:href="#m7d6420b8ca" y="125.643521"/>
    </g>
   </g>
   <g id="line2d_192">
    <path clip-path="url(#pe393b341b1)" d="M 200.401064 95.725245 
" style="fill:none;stroke:#008000;stroke-linecap:square;stroke-width:1.5;"/>
    <g clip-path="url(#pe393b341b1)">
     <use style="fill:#008000;stroke:#008000;" x="200.401064" xlink:href="#m7d6420b8ca" y="95.725245"/>
    </g>
   </g>
   <g id="line2d_193">
    <path clip-path="url(#pe393b341b1)" d="M 238.889396 64.405382 
" style="fill:none;stroke:#008000;stroke-linecap:square;stroke-width:1.5;"/>
    <g clip-path="url(#pe393b341b1)">
     <use style="fill:#008000;stroke:#008000;" x="238.889396" xlink:href="#m7d6420b8ca" y="64.405382"/>
    </g>
   </g>
   <g id="line2d_194">
    <path clip-path="url(#pe393b341b1)" d="M 284.245244 44.805034 
" style="fill:none;stroke:#008000;stroke-linecap:square;stroke-width:1.5;"/>
    <g clip-path="url(#pe393b341b1)">
     <use style="fill:#008000;stroke:#008000;" x="284.245244" xlink:href="#m7d6420b8ca" y="44.805034"/>
    </g>
   </g>
   <g id="line2d_195">
    <path clip-path="url(#pe393b341b1)" d="M 333.582483 42.128596 
" style="fill:none;stroke:#008000;stroke-linecap:square;stroke-width:1.5;"/>
    <g clip-path="url(#pe393b341b1)">
     <use style="fill:#008000;stroke:#008000;" x="333.582483" xlink:href="#m7d6420b8ca" y="42.128596"/>
    </g>
   </g>
   <g id="line2d_196">
    <path clip-path="url(#pe393b341b1)" d="M 380.792478 56.707449 
" style="fill:none;stroke:#008000;stroke-linecap:square;stroke-width:1.5;"/>
    <g clip-path="url(#pe393b341b1)">
     <use style="fill:#008000;stroke:#008000;" x="380.792478" xlink:href="#m7d6420b8ca" y="56.707449"/>
    </g>
   </g>
   <g id="line2d_197">
    <path clip-path="url(#pe393b341b1)" d="M 421.414468 85.116929 
" style="fill:none;stroke:#008000;stroke-linecap:square;stroke-width:1.5;"/>
    <g clip-path="url(#pe393b341b1)">
     <use style="fill:#008000;stroke:#008000;" x="421.414468" xlink:href="#m7d6420b8ca" y="85.116929"/>
    </g>
   </g>
   <g id="line2d_198">
    <path clip-path="url(#pe393b341b1)" d="M 461.054343 114.96598 
" style="fill:none;stroke:#008000;stroke-linecap:square;stroke-width:1.5;"/>
    <g clip-path="url(#pe393b341b1)">
     <use style="fill:#008000;stroke:#008000;" x="461.054343" xlink:href="#m7d6420b8ca" y="114.96598"/>
    </g>
   </g>
   <g id="line2d_199">
    <path clip-path="url(#pe393b341b1)" d="M 507.115769 132.845341 
" style="fill:none;stroke:#008000;stroke-linecap:square;stroke-width:1.5;"/>
    <g clip-path="url(#pe393b341b1)">
     <use style="fill:#008000;stroke:#008000;" x="507.115769" xlink:href="#m7d6420b8ca" y="132.845341"/>
    </g>
   </g>
   <g id="line2d_200">
    <path clip-path="url(#pe393b341b1)" d="M 556.598705 135.792144 
" style="fill:none;stroke:#008000;stroke-linecap:square;stroke-width:1.5;"/>
    <g clip-path="url(#pe393b341b1)">
     <use style="fill:#008000;stroke:#008000;" x="556.598705" xlink:href="#m7d6420b8ca" y="135.792144"/>
    </g>
   </g>
   <g id="line2d_201">
    <path clip-path="url(#pe393b341b1)" d="M 606.139589 132.833564 
" style="fill:none;stroke:#008000;stroke-linecap:square;stroke-width:1.5;"/>
    <g clip-path="url(#pe393b341b1)">
     <use style="fill:#008000;stroke:#008000;" x="606.139589" xlink:href="#m7d6420b8ca" y="132.833564"/>
    </g>
   </g>
   <g id="line2d_202">
    <path clip-path="url(#pe393b341b1)" d="M 653.613608 118.569549 
" style="fill:none;stroke:#008000;stroke-linecap:square;stroke-width:1.5;"/>
    <g clip-path="url(#pe393b341b1)">
     <use style="fill:#008000;stroke:#008000;" x="653.613608" xlink:href="#m7d6420b8ca" y="118.569549"/>
    </g>
   </g>
  </g>
 </g>
 <defs>
  <clipPath id="pe393b341b1">
   <rect height="277.2" width="722.052" x="7.2" y="7.2"/>
  </clipPath>
 </defs>
</svg>
